<svg id="Layer_1" data-name="Layer 1" xmlns="http://www.w3.org/2000/svg" viewBox="0 0 960 562"><title>joburg_office</title><path d="M950,539.32l-74.29-.13V523a1.89,1.89,0,0,0-1.89-1.89h-63V50.54a32.06,32.06,0,0,0-32.06-32.07h-118a32.06,32.06,0,0,0-32.06,32.07v421h-48.6v-6.91a1.89,1.89,0,0,0-1.88-1.89H571v-9.9a1.89,1.89,0,0,0-1.88-1.89H545.33a1.89,1.89,0,0,0-1.89,1.89v19.36l-.25.42v.55l.25-.91v.64L531.27,493l-7.49-4.87V264.88h15.87a1.89,1.89,0,0,0,1.89-1.88V252.8a1.89,1.89,0,0,0-1.89-1.89H523.78v-8.79h15.87a1.89,1.89,0,0,0,1.89-1.89V200.45a1.89,1.89,0,0,0-1.89-1.88H523.78V182.25h21.55a1.89,1.89,0,0,0,1.89-1.88V149.6a1.89,1.89,0,0,0-1.89-1.89H523.78V126.62a1.89,1.89,0,0,0-1.89-1.88H511.08V35.4a1.88,1.88,0,0,0-1.89-1.89h-8.25a1.89,1.89,0,0,0-1.89,1.89v89.34H488.74a1.89,1.89,0,0,0-1.89,1.88v21.09H462.91A1.89,1.89,0,0,0,461,149.6v30.77a1.89,1.89,0,0,0,1.89,1.88h23.94v16.32H468.39a1.89,1.89,0,0,0-1.89,1.88v39.78a1.89,1.89,0,0,0,1.89,1.89h18.46v8.79H477a1.89,1.89,0,0,0-1.89,1.89V263a1.89,1.89,0,0,0,1.89,1.88h9.9v213H456.77V396.14a1.89,1.89,0,0,0-1.88-1.89h-38.8V371.07a1.89,1.89,0,0,0-1.88-1.89H387a1.89,1.89,0,0,0-1.88,1.89v23.18H329.73V378.52a1.89,1.89,0,0,0-1.88-1.89H266.38a1.89,1.89,0,0,0-1.89,1.89v15.73H234.6a1.89,1.89,0,0,0-1.89,1.89v97.61H221.5v-14a1.89,1.89,0,0,0-1.89-1.89H192.88a1.89,1.89,0,0,0-1.88,1.89v14H151.64a1.88,1.88,0,0,0-1.89,1.89v25.49h-17a1.89,1.89,0,0,0-1.88,1.89v16.25H9.89a1.92,1.92,0,0,0-1.85,2,2.14,2.14,0,0,0,1.85,2.19H132.75a1.89,1.89,0,0,0,1.89-1.88V524.91h17a1.89,1.89,0,0,0,1.88-1.89v-25.5h39.36a1.89,1.89,0,0,0,1.89-1.88v-14h23v14a1.88,1.88,0,0,0,1.88,1.88h15a1.88,1.88,0,0,0,1.88-1.88V398h29.9a1.89,1.89,0,0,0,1.88-1.89V380.4H326v15.74a1.89,1.89,0,0,0,1.89,1.89H387a1.89,1.89,0,0,0,1.89-1.89V373h23.43v23.18a1.89,1.89,0,0,0,1.89,1.89H453v81.76a1.89,1.89,0,0,0,1.89,1.89h33.85a1.89,1.89,0,0,0,1.88-1.89V263a1.88,1.88,0,0,0-1.88-1.89h-9.9v-6.43h9.9a1.88,1.88,0,0,0,1.88-1.88V240.23a1.88,1.88,0,0,0-1.88-1.88H470.27v-36h18.47a1.88,1.88,0,0,0,1.88-1.89V180.37a1.88,1.88,0,0,0-1.88-1.89H464.79v-27h23.95a1.88,1.88,0,0,0,1.88-1.88V128.51h10.32a1.89,1.89,0,0,0,1.89-1.89V37.28h4.48v89.34a1.89,1.89,0,0,0,1.88,1.89H520V149.6a1.89,1.89,0,0,0,1.89,1.88h21.55v27H521.89a1.89,1.89,0,0,0-1.89,1.89v20.08a1.89,1.89,0,0,0,1.89,1.89h15.87v36H521.89a1.89,1.89,0,0,0-1.89,1.88V252.8a1.89,1.89,0,0,0,1.89,1.88h15.87v6.43H521.89A1.89,1.89,0,0,0,520,263V489.15a1.9,1.9,0,0,0,.86,1.58l10,6.49a1.88,1.88,0,0,0,2.64-.61q13.72-22.8,13.73-23.15v-18.7h20v9.9a1.89,1.89,0,0,0,1.89,1.89h7.14v6.91a1.88,1.88,0,0,0,1.89,1.88h52.36a1.88,1.88,0,0,0,1.89-1.88V50.54a28.3,28.3,0,0,1,28.29-28.3h118A28.3,28.3,0,0,1,807,50.54V523a1.89,1.89,0,0,0,1.89,1.89h63c0,6,0,14.82,0,16.06,0,1.56.32,2.46,2.25,2.46l75.8.1a2.14,2.14,0,0,0,2-2.14A2.05,2.05,0,0,0,950,539.32Z" style="fill:#9dec00"/></svg>