<?xml version="1.0" encoding="utf-8"?>
<!-- Generator: Adobe Illustrator 17.0.0, SVG Export Plug-In . SVG Version: 6.00 Build 0)  -->
<!DOCTYPE svg PUBLIC "-//W3C//DTD SVG 1.1//EN" "http://www.w3.org/Graphics/SVG/1.1/DTD/svg11.dtd">
<svg version="1.1" xmlns="http://www.w3.org/2000/svg" xmlns:xlink="http://www.w3.org/1999/xlink" x="0px" y="0px"
	 width="252.441px" height="152.033px" viewBox="0 0 252.441 152.033" enable-background="new 0 0 252.441 152.033"
	 xml:space="preserve">
<g id="Layer_2">
</g>
<g id="Layer_1">
	<g>
		<g opacity="0.17">
			<g>
				<path fill="#FFFFFF" d="M123.816,74.674l-3.777-1.415l4.442-6.911l3.361,4.802L123.816,74.674z M116.726,77.298v3.749
					l-4.39,1.461l-1.431-3.814l5.308-3.716l2.272-0.757L116.726,77.298z M111.357,70.991l3.426-0.855l-0.068,0.181l0.388-0.17
					l0.471,4.248l-4.695,3.286L111.357,70.991z M111.237,63.094l2.009-4.425l3.441,6.39l-1.542,4.115l-4.074,1.018l-3.976-3.476
					L111.237,63.094z M116.205,68.742l1.228-3.269l5.315,0.408L116.205,68.742z M119.212,72.949l-0.098,0.17l-2.728,0.912
					l-0.408-3.655l-0.063-0.584l7.441-3.256l-4.128,6.42L119.212,72.949z M124.974,65.58l0.602-0.938l-1.184,0.519l-6.981-0.536
					l-4.239-7.873l-2.56,5.768l-4.798,4.196l4.708,4.12l-0.532,7.469l-0.103,0.072l1.945,5.19l5.738-1.915v-4.13l2.017-3.531
					l4.403,1.651l4.977-4.355L124.974,65.58z"/>
			</g>
		</g>
		<g opacity="0.17">
			<g>
				<path fill="#FFFFFF" d="M79.238,119.252l-9-2l9.186-5.103l5.648,7.103H79.238z M61.07,122.914l7.722-4.824l1.93,7.72
					L61.07,122.914z M73.088,124.349l-1.531,1.315l-1.921-7.681l8.64,1.919L73.088,124.349z M76.42,108.396l2.168,3.252
					l-9.105,5.057v-8.95L76.42,108.396z M85.964,119.019l-8.363-10.52l16.476,1.394l-2.661,2.994L85.964,119.019z M92.617,112.803
					l3.21-3.611l-0.772-0.063l-25.838-2.246l-0.578-0.055v0.004v10.064l-0.153-0.033l0.089,0.364l-9.534,5.958l11.92,3.577
					l0.107,0.43l2.161-1.854l6.119-5.243h6.394l0.185,0.233l0.207-0.233L92.617,112.803z"/>
			</g>
		</g>
		<g opacity="0.17">
			<g>
				<path fill="#FFFFFF" d="M224.791,52.58l-9-2l9.186-5.103l5.648,7.103H224.791z M206.623,56.241l7.722-4.824l1.93,7.72
					L206.623,56.241z M218.641,57.676l-1.531,1.315l-1.921-7.681l8.64,1.919L218.641,57.676z M221.974,41.724l2.168,3.252
					l-9.105,5.057v-8.95L221.974,41.724z M231.517,52.347l-8.363-10.52l16.476,1.394l-2.661,2.994L231.517,52.347z M238.17,46.131
					l3.21-3.611l-0.772-0.063L214.77,40.21l-0.578-0.055v0.004v10.064l-0.153-0.033l0.089,0.364l-9.534,5.958l11.92,3.577
					l0.107,0.43l2.161-1.854l6.119-5.243h6.394l0.185,0.233l0.207-0.233L238.17,46.131z"/>
			</g>
		</g>
		<g opacity="0.17">
			<g>
				<path fill="#FFFFFF" d="M41.961,88.898l2.914-2.914l-1.841,4.458l-1.838,2.277L41.961,88.898z M48.089,93.916l3.74-1.11
					l-3.234,4.852L48.089,93.916z M46.2,84.986l5.882,6.863l-4.386,1.304l-3.777-2.643L46.2,84.986z M43.653,95.665l-2.569-1.468
					l2.397-2.964l3.747,2.621l0.565,4.176L43.653,95.665z M48.765,98.923l4.591-6.887l-7.26-8.47l-4.913,4.918l-1.13,5.65
					l-0.246,0.305l3.321,1.897l5.33,3.047l0.401,0.229L48.765,98.923z"/>
			</g>
		</g>
		<g opacity="0.17">
			<g>
				<path fill="#FFFFFF" d="M187.514,22.226l2.914-2.914l-1.841,4.458l-1.838,2.277L187.514,22.226z M193.642,27.244l3.74-1.11
					l-3.234,4.852L193.642,27.244z M191.754,18.313l5.882,6.863l-4.386,1.304l-3.777-2.643L191.754,18.313z M189.207,28.993
					l-2.569-1.468l2.397-2.964l3.747,2.621l0.565,4.176L189.207,28.993z M194.318,32.251l4.591-6.887l-7.26-8.47l-4.913,4.918
					l-1.13,5.65l-0.246,0.305l3.321,1.897l5.33,3.047l0.401,0.229L194.318,32.251z"/>
			</g>
		</g>
		<g opacity="0.17">
			<g>
				<path fill="#FFFFFF" d="M34.429,124.927l1.282-7.703l3.252-3.308v5.57L34.429,124.927z M35.264,116.54l-6.651-5.184l9.918,1.804
					L35.264,116.54z M30.675,118.136l-2.641-6.161l6.377,4.972L30.675,118.136z M33.574,124.901l-2.565-5.986l3.762-1.195
					L33.574,124.901z M26.303,110.078l7.334,17.115l6.169-7.402v-7.258L26.303,110.078z"/>
			</g>
		</g>
		<g opacity="0.17">
			<g>
				<path fill="#FFFFFF" d="M179.982,58.255l1.282-7.703l3.252-3.308v5.57L179.982,58.255z M180.817,49.868l-6.651-5.184
					l9.918,1.804L180.817,49.868z M176.229,51.464l-2.641-6.161l6.377,4.972L176.229,51.464z M179.127,58.229l-2.565-5.986
					l3.762-1.195L179.127,58.229z M171.856,43.406l7.334,17.115l6.169-7.402v-7.258L171.856,43.406z"/>
			</g>
		</g>
	</g>
</g>
</svg>
