<?xml version="1.0" encoding="utf-8"?>
<!-- Generator: Adobe Illustrator 17.0.0, SVG Export Plug-In . SVG Version: 6.00 Build 0)  -->
<!DOCTYPE svg PUBLIC "-//W3C//DTD SVG 1.1//EN" "http://www.w3.org/Graphics/SVG/1.1/DTD/svg11.dtd">
<svg version="1.1" id="Layer_1" xmlns="http://www.w3.org/2000/svg" xmlns:xlink="http://www.w3.org/1999/xlink" x="0px" y="0px"
	 width="524.347px" height="519.179px" viewBox="0 0 524.347 519.179" enable-background="new 0 0 524.347 519.179"
	 xml:space="preserve">
<path fill="#B3B3B3" d="M424.655,428.035v-6.477c0-37.861,0.115-75.736-0.077-113.61c-0.051-9.311-0.5-18.713-1.847-27.909
	c-5.566-38.067-27.614-65.975-65.732-70.272c-26.511-2.976-50.328,2.514-66.822,26.716c-4.605,6.746-13.313,6.733-17.02,0.218
	c-1.411-2.475-1.783-5.784-1.911-8.76c-0.282-6.195-0.077-12.415-0.077-18.572h-60.755v218.563h60.742v-6.182
	c0.013-39.221-0.218-78.455,0.077-117.689c0.231-31.102,17.725-55.958,51.008-53.086c17.161,1.475,29.73,9.786,36.476,26.421
	c3.642,8.965,4.489,18.354,4.489,27.922c-0.039,38.887-0.013,77.775-0.013,116.675v6.041H424.655z M292.256,204.496
	c15.391-11.171,32.218-15.288,50.148-16.366c43.415-2.591,82.136,24.407,95.474,66.732c5.092,16.186,7.093,32.731,7.08,49.648
	c-0.038,43.479,0,86.945-0.013,130.424c-0.013,10.62-3.309,13.942-13.839,13.954c-24.946,0.026-49.905,0.026-74.851,0
	c-9.914-0.013-13.416-3.655-13.416-13.929c-0.013-43.646,0.077-87.292-0.115-130.938c-0.026-5.682-0.975-11.505-2.45-17.007
	c-2.86-10.684-10.838-14.852-21.034-15.378c-10.132-0.539-18.956,2.552-22.907,12.608c-2.655,6.746-4.297,14.378-4.361,21.624
	c-0.398,42.453-0.205,84.906-0.205,127.372c0,12.479-3.104,15.647-15.314,15.66c-24.292,0-48.584,0-72.863-0.013
	c-10.799,0-14.224-3.553-14.237-14.737c0-77.095,0-154.203,0-231.311c0-11.197,3.655-14.878,14.762-14.878
	c23.458-0.013,46.916-0.013,70.362-0.013C288.421,187.963,290.447,189.759,292.256,204.496"/>
<path fill="#B3B3B3" d="M158.467,209.299h-60.73V427.99h60.73V209.299z M77.088,318.394c0-38.387,0-76.775,0-115.162
	c0-11.877,3.258-15.263,14.711-15.275c24.292-0.013,48.584-0.013,72.876,0c11.081,0.013,14.532,3.566,14.532,14.98
	c0,77.108,0,154.229,0,231.35c0,11.274-3.245,14.596-14.262,14.608c-24.625,0.013-49.251,0.013-73.876,0
	c-10.761-0.013-13.967-3.283-13.98-14.313C77.075,395.849,77.088,357.128,77.088,318.394"/>
<path fill="#B3B3B3" d="M97.369,133.311c0,16.802,12.659,28.807,30.346,28.781c18.161-0.026,31.192-11.979,31.154-28.588
	c-0.051-17.109-12.8-29.191-30.641-29.05C109.977,104.607,97.356,116.406,97.369,133.311 M77.233,133.413
	c-0.077-28.486,21.534-49.507,51.008-49.584c28.973-0.09,50.661,20.957,50.854,49.302c0.18,28.306-21.509,49.302-51.149,49.52
	C98.972,182.869,77.31,161.835,77.233,133.413"/>
<g>
	<path fill="#B3B3B3" d="M497,259.711c0-50.477,0.243-100.941-0.205-151.418c-0.09-10.499-1.305-21.472-4.476-31.396
		c-11.343-35.373-41.729-56.615-79.917-56.667c-99.854-0.128-199.721-0.166-299.587,0.153c-9.783,0.026-20.001,1.445-29.273,4.553
		c-34.619,11.65-55.452,42.625-55.49,81.605c-0.128,101.964-0.166,203.915,0.141,305.867c0.038,9.988,1.42,20.424,4.476,29.887
		c11.292,35.015,41.18,56.5,78.932,56.603c100.519,0.269,201.051,0.141,301.583,0.064c28.583-0.013,51.769-11.497,68.701-35.233
		c11.049-15.487,15.18-33.135,15.142-52.114C496.936,360.984,497,310.341,497,259.711 M7.654,426.27V92.908
		c0.371-1.432,0.831-2.839,1.087-4.284c6.842-40.041,28.698-67.793,65.734-82.628c7.891-3.159,16.498-4.438,24.759-6.586h326.533
		c1.394,0.371,2.775,0.844,4.195,1.1c39.223,6.995,66.399,29.299,80.927,67.128c3.095,8.044,4.361,16.83,6.458,25.27V426.27
		c-0.371,1.432-0.831,2.839-1.087,4.297c-6.842,40.041-28.698,67.78-65.734,82.615c-7.89,3.159-16.497,4.438-24.759,6.586H99.234
		c-1.394-0.371-2.775-0.844-4.195-1.1c-39.223-6.995-66.399-29.299-80.927-67.128C11.017,443.497,9.751,434.711,7.654,426.27"/>
</g>
</svg>
