<?xml version="1.0" encoding="utf-8"?>
<!-- Generator: Adobe Illustrator 19.0.0, SVG Export Plug-In . SVG Version: 6.00 Build 0)  -->
<svg version="1.1" id="Layer_1" xmlns="http://www.w3.org/2000/svg" xmlns:xlink="http://www.w3.org/1999/xlink" x="0px" y="0px"
	 viewBox="0 0 524.4 524.4" style="enable-background:new 0 0 524.4 524.4;" xml:space="preserve">
<style type="text/css">
	.st0{fill:#B3B3B3;}
</style>
<g>
	<path class="st0" d="M496.7,261.7c0-50.5,0.2-100.9-0.2-151.4c-0.1-10.5-1.3-21.5-4.5-31.4c-11.3-35.4-41.7-56.6-79.9-56.7
		c-99.9-0.1-199.7-0.2-299.6,0.2c-9.8,0-20,1.4-29.3,4.6c-34.6,11.6-55.5,42.6-55.5,81.6c-0.1,102-0.2,203.9,0.1,305.9
		c0,10,1.4,20.4,4.5,29.9c11.3,35,41.2,56.5,78.9,56.6c100.5,0.3,201.1,0.1,301.6,0.1c28.6,0,51.8-11.5,68.7-35.2
		c11-15.5,15.2-33.1,15.1-52.1C496.6,363,496.7,312.3,496.7,261.7 M7.3,428.3V94.9c0.4-1.4,0.8-2.8,1.1-4.3
		c6.8-40,28.7-67.8,65.7-82.6C82,4.8,90.6,3.6,98.9,1.4h326.5c1.4,0.4,2.8,0.8,4.2,1.1c39.2,7,66.4,29.3,80.9,67.1
		c3.1,8,4.4,16.8,6.5,25.3v333.4c-0.4,1.4-0.8,2.8-1.1,4.3c-6.8,40-28.7,67.8-65.7,82.6c-7.9,3.2-16.5,4.4-24.8,6.6H98.9
		c-1.4-0.4-2.8-0.8-4.2-1.1c-39.2-7-66.4-29.3-80.9-67.1C10.7,445.5,9.4,436.7,7.3,428.3"/>
</g>
<g>
	<path class="st0" d="M345.6,254.2c8-4.4,14.9-10,20.6-16.8c12.3-14.6,18.6-34.1,18.6-57.8c0-41.1-21.3-90-122.6-90H129.8v344h140.3
		c35.9,0,66.3-8.3,87.9-24c23.9-17.3,36.5-43,36.5-74.4C394.5,295.3,378,268.1,345.6,254.2z M316.4,245.8l-7.2,1.4v15.7l7.3,1.4
		c41,7.7,60.1,30.2,60.1,70.9c0,25.8-9.8,46-29.1,59.9c-18.6,13.4-45.3,20.5-77.4,20.5H147.8V107.5h114.4
		c69.5,0,104.7,24.3,104.7,72.1C366.9,225.9,339.4,241.1,316.4,245.8z"/>
	<path class="st0" d="M184,272.5V386h80.3c25.4,0,43.8-4.3,56.2-13.2c13.1-9.4,19.7-23.9,19.7-43.3c0-20.1-7.8-35.2-23.3-44.7
		c-13.4-8.3-32.5-12.3-58.4-12.3H184z M202,368.1v-77.7h56.7c56.5,0,63.7,20.9,63.7,39.1c0,8.5-1.1,19.2-9.6,26.8
		c-9,8-24.8,11.9-48.4,11.9H202z"/>
	<path class="st0" d="M312.3,149.4c-11.9-7.7-29.2-11.3-54.5-11.3H184v105.6h72.8c24,0,41.7-3.9,54.1-12c13.9-9,20.9-23,20.9-41.5
		C331.9,171.3,325.5,157.9,312.3,149.4z M314,190.2c0,16.5-6.5,35.5-57.1,35.5H202V156h55.8c22.4,0,37.5,3,46,9.3
		C311,170.5,314,178,314,190.2z"/>
</g>
</svg>
