<?xml version="1.0" encoding="utf-8"?>
<!-- Generator: Adobe Illustrator 17.0.0, SVG Export Plug-In . SVG Version: 6.00 Build 0)  -->
<!DOCTYPE svg PUBLIC "-//W3C//DTD SVG 1.1//EN" "http://www.w3.org/Graphics/SVG/1.1/DTD/svg11.dtd">
<svg version="1.1" id="Layer_1" xmlns="http://www.w3.org/2000/svg" xmlns:xlink="http://www.w3.org/1999/xlink" x="0px" y="0px"
	 width="524.347px" height="519.179px" viewBox="0 0 524.347 519.179" enable-background="new 0 0 524.347 519.179"
	 xml:space="preserve">
<path fill="#ABFF4F" d="M494.839,67.387v354.314l-139.393,50.779V118.167L494.839,67.387z M192.805,67.387l139.409,50.779v354.314
	l-139.409-50.779V67.387z M169.573,67.387v354.314L30.179,472.481V118.167L169.573,67.387z M180.47,38.668
	c-1.126,0.078-2.22,0.328-3.268,0.735l-162.625,59.3c-4.581,1.72-7.629,6.16-7.629,11.131v379.501
	c0.016,6.551,5.222,11.851,11.632,11.851c1.36-0.016,2.705-0.25,3.971-0.735l158.639-57.815l158.639,57.815
	c2.58,0.969,5.409,0.969,7.989,0l162.641-59.284c4.565-1.72,7.614-6.16,7.614-11.131V50.534c0-6.551-5.222-11.866-11.632-11.851
	c-1.36,0-2.705,0.25-3.971,0.719L343.83,97.217L185.191,39.402C183.675,38.824,182.08,38.574,180.47,38.668"/>
</svg>
