<?xml version="1.0" encoding="utf-8"?>
<!-- Generator: Adobe Illustrator 17.0.0, SVG Export Plug-In . SVG Version: 6.00 Build 0)  -->
<!DOCTYPE svg PUBLIC "-//W3C//DTD SVG 1.1//EN" "http://www.w3.org/Graphics/SVG/1.1/DTD/svg11.dtd">
<svg version="1.1" id="Layer_1" xmlns="http://www.w3.org/2000/svg" xmlns:xlink="http://www.w3.org/1999/xlink" x="0px" y="0px"
	 width="892.2px" height="545.816px" viewBox="0 0 892.2 545.816" enable-background="new 0 0 892.2 545.816" xml:space="preserve">
<path fill="#212121" d="M99.188,55.853"/>
<polygon fill="#212121" points="100.445,55.317 157.08,54.045 335.721,67.425 352.639,42.339 336.553,37.935 320.546,25.429 
	287.325,21.748 "/>
<polygon fill="#212121" points="451.175,209.635 446.869,218.416 444.508,251.905 451.975,272.268 448.241,297.382 452.964,320.836 
	459.042,332.179 466.222,365.879 474.16,374.734 504.113,405.253 541.45,427.255 592.121,445.923 613.59,461.524 658.66,404.719 
	734.134,365.782 741.868,362.449 748.935,336.846 718.799,317.111 704.131,319.912 677.195,308.844 671.314,298.43 667.995,297.91 
	661.994,295.509 664.987,289.978 675.843,282.308 690.864,274.17 709.065,261.773 695.197,252.839 671.328,268.574 668.795,231.237 
	725.166,224.633 728.113,210.991 693.048,185.221 675.266,181.081 664.987,166.006 649.415,167.903 553.026,175.095 520.976,180.87 
	512.631,164.108 508.041,167.802 "/>
<g>
	<path fill="#212121" stroke="#ABFF4F" stroke-miterlimit="10" d="M17.702,40.769l8.549-4.428l29.006-4.427l39.081-2.846
		l136.48-9.488l61.064-2.53l18.93,2.846l16.793,9.488l4.274,3.162l12.824,3.163l18.93,15.813l10.686-1.265l39.692,56.925l51.6,54.08
		l13.739,12.65l6.718,0.633l2.748-4.112l6.106,2.53l2.137-1.265l7.633-13.915l3.359,10.12l4.58-3.795l-6.412-16.445l-5.191-23.403
		l35.723,52.815l2.748-2.53l0.611-13.283l-11.297-28.147l12.518,14.548l8.549,14.548l3.359,13.282l32.364-4.111l65.644-10.753
		l-1.832,7.274l15.572-1.897l9.465,13.915l3.053,2.214l36.639,7.274l48.852,18.026l39.081,16.445l50.073,26.566l25.036,17.71
		l-7.327,3.163l-23.205-4.744l-41.829-5.377l-39.387,3.795l-57.095,8.539l-17.098,0.317l-13.129,11.068l-2.443-1.581l-1.526,3.163
		l-3.97,1.897l-5.19,1.582l-2.443,6.008l7.023,2.53l6.412-0.316l2.747,0.949l-1.221,9.804l9.465-0.316l15.877,3.162l10.686,1.581
		l43.356,5.693l6.412,6.009l-1.527,18.343l-14.655,22.137l-5.496-1.581l-1.221-1.265l-1.832,5.693l-16.793,22.454l-24.731,16.761
		l-3.969,15.18l-7.023-3.795l-5.801,5.377l-4.274,18.975l-8.855-4.428l-22.594,20.873l-4.274-9.487h-2.137l-21.373,47.438
		l-13.74,29.728l-12.823-17.078l-9.465-14.864l-3.359-50.601l-2.137-3.479l-2.137,7.907l3.969,52.182l-6.107,2.53l-25.036-36.686
		l-13.434-27.198l-7.328-10.12l-23.815-23.086l-27.174-32.258l0.305,6.641l-6.411-2.214l-1.832-13.282l-12.213,0.948l-2.443-5.692
		l-3.664-0.316l-1.832-10.753l4.885-19.292l-9.77-10.752l-1.832-12.018l3.969-12.018l-3.969-9.171l0.916-13.283l-1.221-11.701
		l2.137-22.138l1.221-7.906l-25.952-15.497l-5.496-5.692l12.213,2.213l14.045,8.856l7.022,1.897l5.496-10.753l1.832-7.59
		l-2.748-8.539l-25.952-12.333l-30.838-22.138l-22.899-14.232l-4.58,2.214l-12.213-13.599l-19.846-16.445l-24.12-15.813
		l-35.113-11.069L231.123,81.25l-16.182-12.018l-21.984-11.069l-38.776-3.479l-59.538,1.265L28.999,44.88L17.702,40.769z
		 M459.504,318.968l0.204-4.006l1.628-0.633l2.85,1.476l5.699-8.012l3.664-15.812l-3.664-6.536l-2.442-8.012l-3.053,2.951
		l-3.868-0.421l0.204-11.175l-6.921,9.699l-0.611,7.379l-2.646,10.12l0.611,6.536l0.611-1.686l4.071,0.421v8.223l3.256,11.174
		l-1.628,4.428l-6.514,5.692 M480.266,216.29l8.753,0.844l-8.753,5.27l-5.495,10.331l-0.407,11.596l-3.664,16.867l-0.407,12.861
		 M491.462,246.651l-0.815,28.884l-4.885,14.126v7.59l-2.646,6.958l-6.717,8.855l0.407,6.114l-15.266,4.006l-5.496,2.952
		 M621.326,257.192l-4.478,11.175l-2.036,11.807l1.629,9.698l6.717,7.59l10.381-0.211l7.124-4.216l7.328-10.12l4.071-12.862
		l-0.204-11.174l-4.682-10.12l-10.584-2.952l-9.77,4.428L621.326,257.192l-0.355-0.221l-27.328-17.067l-25.24-5.693l-16.284-4.638
		l-17.709-0.211l-2.035,10.12l-5.089,7.801v8.012l-1.628,3.795l-4.682,0.211l-3.867-4.639l-2.036-4.849l-0.814,4.217l2.443,12.65
		l-5.293,12.65l-0.407,12.229l1.629,10.963l-1.222,4.85l-4.274-3.796l-2.85-5.903l1.018-15.813l-1.832-8.011v-11.175v-15.602
		l-2.239-12.65l-12.009,15.391l-10.178,15.813l-11.602,11.807l-3.053,2.951l-3.868-0.421l0.204-11.175l4.681-13.493l-2.442-14.969
		l3.664-12.229l1.221-11.807l-0.407-5.271l-4.275-8.644 M517.719,190.357l3.257-9.487l-3.664-6.958l-4.681-9.804l-4.58,3.795
		l-6.005,7.696 M536.039,176.231l2.647,4.296l3.459,5.614 M543.977,180.237l8.753,4.217l6.717,8.433l2.646,10.964 M555.376,209.543
		l4.071-5.481l4.682,0.843l3.867,9.277l0.814,4.638l-3.053,3.795l-15.47-7.801l-8.142-2.53l-2.442-2.951l-9.567-6.325l-10.381,0.421
		l-2.443,3.374 M533.8,231.26l1.628-10.121l0.204-8.011l4.071-3.795 M505.099,199.634l3.664,9.909l0.407,3.796l2.85-0.633
		l-4.274,16.024l3.256,2.74l2.85,3.795l0.204,8.012l0.814,7.38 M524.64,258.247l-5.903-5.904l-3.053-14.758l-0.611-13.072
		l2.239-18.554 M449.734,212.811l-1.832,23.72l1.629,17.921l4.885,14.547l5.496,0.422 M482.913,220.296l2.239,5.482l4.071,1.897
		l4.478-2.951l5.088,2.741l2.443,6.957 M495.533,214.814l13.23-5.271 M509.577,174.545l8.549,1.054 M582.855,212.074l27.072-13.283
		l23.408-15.813l16.08-15.075 M155.403,54.368l77.246-14.864L100.445,55.317 M231.428,40.453l58.622-6.325l31.143-8.223
		 M245.778,73.659l26.563-12.333l24.121-5.693l35.112-4.744l17.709-10.12 M356.305,114.456l1.222-23.719l8.854-19.608l6.717-21.821
		 M537.209,193.362l3.206-0.158l3.817,5.06 M559.04,218.346v-3.321l5.038-0.949l-1.832,1.898l0.763,4.744 M503.318,218.504
		l4.428-8.223 M664.987,166.006l-3.359,4.744l-3.256,13.282l1.424,16.867l3.257,15.602l-0.61,16.656 M675.266,181.081l9.567,15.601
		l28.904,17.5 M476.806,319.178l55.365-9.698l3.664-0.422l5.089-2.319l7.328,1.265l13.638,0.211l6.106-7.169l9.567-5.903
		l5.903,0.211l2.035,5.271l-0.407,4.006l6.107-4.639h2.849l2.036,4.006l1.832,4.639l10.991,0.421l44.17-2.319l-5.903-4.006
		l-0.203-6.536l3.257-6.114l-2.239-7.168 M479.249,323.817l-7.735,3.162l-5.7,28.042l0.204,11.806 M740.809,363.454l-1.425-3.584
		l2.239-17.71l-6.921,6.746l0.815,5.904l-8.957,4.216l-9.159,17.921l-11.603-11.174l-13.23,12.65l-4.478-1.897l-4.071-20.451
		l-9.567-12.861 M712.516,313.064l6.31,12.439l8.549,4.639l7.327,18.764 M674.452,335.413l-0.204,8.855l-0.489,0.588l-8.467,10.165
		l-19.948,17.499l-9.566-5.482l-11.603,12.65l-8.549,2.32l-5.699-4.217l-7.531-30.15l-8.549,3.163l-6.107,28.041h-1.832
		l-33.992-30.571l-6.717,10.12l-3.257,18.764l-6.717-1.897l-4.682-6.747l-4.275,4.638l-5.088-1.265l-8.753-17.499l-4.478,27.62
		l-8.345-0.211l-13.435-11.385l-8.549-20.873l-3.46-0.633l-2.443,6.958l2.443,18.87 M569.421,405.41l42.745,46.806l28.09-44.276
		 M635.371,452.216l15.876-30.993l15.877,17.71 M705.798,365.773l-12.721,57.031 M471.717,357.34l31.449,42.062l10.686,7.59
		l15.571,5.06 M562.398,419.642l44.578,72.738 M647.889,250.129l2.748-4.111h1.984l-1.679-4.586l0.611-9.645l1.526-0.158
		l6.717,16.287 M691.245,273.849l10.991-10.121l0.764-5.376l-5.801-0.791l-15.114,13.283l-6.259,4.586l-17.098-12.967v-5.218
		l3.358-5.218l-0.305-5.376l-5.19-15.339l-1.68-0.316l-0.763,3.637 M650.179,290.768l5.19,13.283l4.885,2.055h7.023l4.58-0.316
		l1.374,3.953l-2.443,3.163v2.372l6.259-0.949l0.763-2.53l-0.305-2.846 M650.026,307.055l-0.305,2.688l4.58,0.791h9.159l4.733-1.107
		l1.069-3.162 M661.17,273.058h3.664l9.16,6.167l1.679,1.739 M669.872,278.276l-5.038,0.316l-1.984,2.372l-1.527-3.795l0.458-3.953
		 M665.445,289.029l-1.527-2.056l-0.305-2.056 M682.085,270.844l4.58,5.376 M535.225,309.111l0.61,2.214l-7.785,2.846l-3.054,6.325
		l4.427,0.158l5.496-2.53h1.527l0.763,2.372l4.58,0.791l3.206-1.898l3.664,0.949l2.9,2.688l3.206,1.423h3.817l0.153-2.214
		l-5.191-2.846 M575.985,301.837l1.069,10.278l2.29,3.321l4.122,0.474l6.259-7.906l2.748-2.372 M579.496,310.06l5.598-5.429
		 M589.725,308.004h4.885l2.901,1.581v4.112l-7.176-0.633l-5.037,0.791 M545.148,307.53l2.9,2.055l0.306,2.847l3.511-0.791
		l3.816,0.158l3.664,2.056l2.545-5.64 M571.558,317.175l0.153,4.112l5.954,2.372l4.732,0.316l1.069-8.065 M559.345,323.184
		l7.328,0.317l7.328-0.791 M521.18,371.887l-12.824-24.351 M528.202,363.665l7.023,11.596"/>
	<path fill="none" stroke="#ABFF4F" stroke-width="0.25" stroke-miterlimit="10" d="M451.18,331.369l13.645-3.167l13.441-8.447
		l-20.365,5.068L451.18,331.369z M479.284,323.767l-1.018-4.012l-13.441,8.447l6.924-0.845L479.284,323.767z M460.548,342.772
		c0.204-0.634,4.277-14.57,4.277-14.57l6.924-0.845L460.548,342.772z M446.089,349.951l14.459-7.179l-6.517,24.706l-2.24-5.49
		l-4.48-1.267L446.089,349.951z M451.18,331.369l9.368,11.403l25.253-10.136h-1.018l57.226-8.235l-36.861,9.08l-0.815,13.514
		l3.055,34.842l-8.35,0.633l-5.906-37.587l-6.72,25.34l-8.146-20.483l-4.888-0.422l-5.702-0.845l6.72-11.614 M522.254,311.731
		l19.755,12.67l-57.226,8.235l-13.034-5.279l7.535-3.59L522.254,311.731z M508.61,348.051l-1.222,33.786l5.091-26.395
		L508.61,348.051z M509.424,339.182l-4.276-5.701l18.532,0.633L509.424,339.182z M508.61,348.051l0.814-8.869l-5.091,7.813
		L508.61,348.051z M523.68,334.114l-2.24,11.614l-12.83,2.323l0.814-8.869L523.68,334.114z M521.236,371.701l0.204-25.973
		l8.146-3.167l-0.15,0.524L521.236,371.701z M523.68,334.114l5.906,8.447l9.164-4.857L523.68,334.114z M536.306,349.529l-6.72-6.968
		l-0.611,20.905L536.306,349.529z M527.753,364.733l-6.517,6.968l4.684,2.112l4.684-4.857L527.753,364.733z M536.306,349.529
		l-0.61,26.395l4.073-20.905L536.306,349.529z M484.783,332.636l20.365,0.845l18.532,0.633l15.07,3.59l5.092,2.323l5.498,3.589
		l6.11,2.323l-13.441-21.538l-3.259,13.303l-2.444,11.825l7.536-9.502l-3.666,15.837l9.164-12.248l2.444,4.857l-6.721,10.558
		 M479.284,323.767l62.725,0.634l117.1,9.502L555.45,345.939l9.164,11.825l23.013,20.694 M562.985,359.665l1.629-1.901l12.219-8.024
		l26.679-9.502 M542.009,324.401l1.833,15.626 M474.193,375.713l22.809,15.415l6.72,9.291l5.499,4.646l17.514,27.029
		 M503.519,382.47l0.203,17.949l37.268,7.813L503.519,382.47z M529.179,412.455l11.811-4.223l17.515,31.886L529.179,412.455z
		 M562.17,419.424l-3.665,20.694l7.535-6.969l4.073-1.055L562.17,419.424z M525.106,431.038l7.535,9.924l12.219,26.184
		l26.475,37.587l-0.408-5.279l-52.135-89.955l52.135,89.955l1.019-5.701L555.857,456.8l-26.678-44.345 M558.505,440.118
		l12.422,33.152l-15.07-16.47l-12.83-4.435 M599.031,479.816l0.204,38.009l-5.295-1.478l8.961,12.037 M629.579,427.026
		l-14.256,73.273l20.569-48.99l15.07-29.774L629.579,427.026z M542.823,397.463l-39.304-14.993l37.471,25.762l21.18,11.192
		L542.823,397.463z M526.938,373.179l15.885,24.284l-7.127-21.539l-5.092-6.968L526.938,373.179z M552.191,349.529l-3.869,23.65
		l-5.499,24.284l26.882,8.869l-14.459-54.058L552.191,349.529z M569.502,364.733l0.203,41.599l-21.383-33.153l-4.888-5.49
		 M562.17,419.424l-0.407-10.558l-18.94-11.403L562.17,419.424z M577.037,501.355l-5.091-7.602l-1.019-20.483l-5.498-39.065
		l-3.259-13.937l-0.407-11.402l7.942-2.534l-7.942,2.534l0.407,10.558l26.068,7.813l17.717,64.827l9.368,8.235 M580.906,374.657
		l31.159,77.497 M629.579,427.026l-23.624,65.038v26.395l-2.443,4.223l-4.277-4.857 M615.12,381.837l-12.423-34.208l21.791,31.463
		l-2.037-41.177l13.237,28.929l12.423-28.929l-2.444,34.208l17.922-15.415 M664.403,333.058l-2.036,23.862l-14.256-19.005
		L664.403,333.058z M674.79,336.226l-4.277-0.423l-6.11-2.745l-2.036,24.706l5.295-4.645l2.374-3.134l4.346-5.735L674.79,336.226z
		 M622.451,337.915h25.66l16.292-4.857l-5.294,0.845L622.451,337.915z M597.809,314.265c0.611,0,37.065,2.534,37.065,2.534
		l63.743,15.415l-34.214,0.844 M650.148,310.042l-15.274,6.757l-37.065-5.49 M668.069,309.619l4.073,1.69 M678.048,312.576
		l40.527,12.88l-20.773,6.969l28.919-2.534 M717.149,323.978l10.59,0.423l-14.866-10.558L717.149,323.978z M742.606,340.238
		l-15.07-10.347l-8.961-4.435l-0.611-1.478l9.775,0.423L742.606,340.238z M763.378,325.034l-18.939-2.112l-16.7,1.479l14.867,15.837
		l7.128-9.291L763.378,325.034z M757.065,319.544l-12.626,3.378l-1.833,17.316l7.128,7.813l12.219-3.59 M744.439,364.944
		l1.832-20.905l3.463,4.012l-1.426,16.048L746.679,366L744.439,364.944z M643.427,371.912l-3.462,36.531l13.441-25.762
		L643.427,371.912z M655.035,364.944l-1.629,17.737l9.165,29.563l-4.073-50.045L655.035,364.944z M663.589,356.708l-1.018,55.536
		l5.294-41.81l2.037-19.849L663.589,356.708z M684.158,421.535l-13.034-72.851l-1.088,1.301l-2.171,20.449L684.158,421.535z
		 M692.507,378.669l-8.349,42.866l2.24-1.9l6.313,3.167l12.83-55.958L692.507,378.669z M650.962,421.535l2.444-38.854l9.368,31.041
		L650.962,421.535z M667.865,440.118l-5.091-26.396l13.645,30.408L667.865,440.118z M667.865,371.279l2.037,42.443h-7.128
		 M684.158,421.535l-14.663-8.657l6.313,30.407 M674.79,336.226l26.678,5.279l-11.201,14.148L674.79,336.226z M674.382,344.25
		l15.885,11.403l2.24,23.016l-8.757-22.594 M705.541,364.733l-0.876-0.521l-14.398-8.559l11.201-14.148l19.143-3.379l-15.681,27.662
		L705.541,364.733z M717.149,376.558l3.462-38.432l5.906,20.905L717.149,376.558z M726.721,329.891l-6.11,8.235l9.368-0.633
		L726.721,329.891z M733.849,348.684l-13.238-10.558 M27.294,44.005l263.886-27.02 M57.068,49.071l254.505-28.709 M17.301,39.994
		l25.492,2.111l8.157,5.911 M20.36,38.094l74.435-9.077 M54.009,33.45l17.334,5.911l19.169,5.699l25.288,7.389l-57.916-3.167
		 M155.158,47.594l-21.209-7.178l-10.196-6.966l-6.118-6.544 M192.885,57.937l16.926-5.91l-16.11-5.489 M243.46,84.746l19.577-4.01
		l-18.761-6.967L243.46,84.746z M291.995,56.037l-28.142,1.267l-38.339,6.122 M244.684,72.925l20.189-15.621l-7.342-6.966
		l32.221,5.488l24.064-18.787l16.518,12.666l-5.302-9.711 M331.762,32.184l1.223,3.166l-7.953,4.644l-11.216-2.955l-56.285,13.299
		l-32.017,13.088l18.762,10.343l-30.386-5.277l12.644-5.066l-16.723-11.399l63.015-16.255l-15.295,14.566l-47.72,1.689
		l28.959-12.033 M320.546,25.429l-6.73,11.61 M332.985,35.35l10.197,7.388l1.427-6.755 M306.27,54.138l-22.432,10.343l-39.562,9.288
		l18.761,6.967l13.256,13.088l5.302-11.822l30.182,15.199l22.228,23.854 M362.555,50.76l-32.221,0.211L349.3,40.627l13.255,9.289
		V50.76z M283.838,64.481l-20.801,16.255l18.558,1.266l39.97-5.488l24.676-26.387l3.059-9.5l-18.15,9.922l-27.123,4.433
		L283.838,64.481z M308.106,103.745l3.671-6.544l9.788-20.687 M356.641,89.813l-7.545,10.977l6.933-28.287l0.147-0.27l10.866-19.995
		l-1.02,18.998L356.641,89.813z M356.641,89.813l2.651,6.966l6.73,7.177l13.255-27.653l-10.196-4.433l-3.059-0.634L356.641,89.813z
		 M355.622,141.109l-6.934-17.943l0.408-22.376l-9.789-14.777l16.869-13.78l9.846-0.997l3.059,0.634l10.196,4.433l4.691-11.188
		L371.12,54.771l-8.565-4.011l-6.379,21.473l-0.147-21.262l-16.722,35.042l-6.118,34.409 M356.641,89.813l-1.223,24.909
		l-6.322-13.932L356.641,89.813z M366.022,103.956l-10.4,12.666l1.835-24.909l1.835,5.066L366.022,103.956z M348.688,123.166
		l20.597,24.276l-9.381-2.744l-5.914-6.544L348.688,123.166z M355.622,116.622l0.611,15.41l13.052,15.41l-4.894-12.455l1.631-31.031
		L355.622,116.622z M379.277,76.303l77.494,97.948l13.663,0.633l-56.896-66.706l-29.57-43.063L379.277,76.303z M470.434,174.884
		l9.585-0.211l-66.481-66.495L470.434,174.884z M364.391,134.987l74.23,56.574l-16.926-7.177l-52.41-36.942L364.391,134.987z
		 M366.022,103.956l33.037,57.207l2.039-11.399L366.022,103.956z M399.059,161.163l26.103,20.265l2.039-14.565l-26.103-17.099
		L399.059,161.163z M379.277,76.303l21.821,73.461l-35.076-45.808L379.277,76.303z M427.201,166.863l3.875-14.355l21.82,28.709
		v9.922L427.201,166.863z M449.022,196.416l3.874-5.277l-25.695-24.276l-2.039,14.565L449.022,196.416z M431.076,152.508
		l-40.582-38.63l-11.217-36.731l64.238,80.638L431.076,152.508z M452.896,181.217l3.875-6.966l9.585,11.399l-4.691,3.8
		L452.896,181.217z M451.061,204.649l2.447-4.644l-0.612-8.866l-3.874,5.277L451.061,204.649z M461.665,189.45l7.75,8.866
		l-5.303-0.633l-6.933-7.389l-4.283,0.845v-9.922L461.665,189.45z M453.508,200.005l4.487-1.056l-0.816-8.655l-4.283,0.845
		L453.508,200.005z M464.112,197.683l-1.019,5.066l-5.098-3.8l-0.816-8.655L464.112,197.683z M466.356,185.65l8.973-2.322
		l-4.895-8.444l-13.663-0.633L466.356,185.65z M492.051,175.729l-16.722,7.599l-4.895-8.444l20.801,0.634L492.051,175.729z
		 M502.043,175.518l-4.486-4.645l7.341-12.665l3.263,9.499L502.043,175.518z M475.329,183.328l11.827,2.744l0.321-0.677l4.574-9.666
		L475.329,183.328z M466.356,185.65l3.059,12.666l4.282-1.9L466.356,185.65z M487.156,186.072l-7.749,8.866l-4.078-11.61
		L487.156,186.072z M473.697,196.416l5.71-1.478l-4.078-11.61l-8.973,2.322L473.697,196.416z M463.093,202.749l6.729,5.911
		l-0.407-10.344l-5.303-0.633L463.093,202.749z M492.051,175.729l3.467,10.343h-8.362l3.467,7.811l4.895-7.811 M457.995,198.949
		l-9.585,35.675l0.612-20.898l2.039-9.077l2.447-4.644L457.995,198.949z M463.093,202.749l-9.585,25.965l0.408,22.165l-5.71-15.199
		l9.789-36.731L463.093,202.749z M467.375,219.636l-13.867,9.078l9.585,12.032l3.67-13.088L467.375,219.636z M453.916,250.879
		l8.565-11.188l2.651,14.987L453.916,250.879z M451.469,263.333l4.486-4.644l-2.039-7.81l-4.894,2.955L451.469,263.333z
		 M462.481,263.544l-6.526-4.855l9.177-4.011L462.481,263.544z M504.898,158.208l-2.855,17.31l6.118-7.811L504.898,158.208z
		 M512.648,164.752l-2.855,9.921l-7.75,0.845l5.507-6.756L512.648,164.752z M518.154,175.729l-8.157,2.955l9.584,6.544l0.816-4.855
		L518.154,175.729z M497.557,170.873l-6.322,4.645h10.808l-6.525,10.554l14.479-7.388l-7.954-3.166 M517.95,189.872l-22.432-3.8
		l14.479-7.388L517.95,189.872z M411.906,211.615l20.189,10.977l11.828,4.855l-1.427,4.855l-18.762-10.766l-8.157-5.488
		L411.906,211.615z M449.022,213.726l-4.487,9.499l-0.612,4.222l-1.427,4.855l-2.651,14.777l8.565-12.455L449.022,213.726z
		 M449.022,253.834l-4.079,5.911l-5.098-12.666l8.361-11.399l0.612,12.665L449.022,253.834z M439.845,274.31l5.098-14.565
		l-4.894-11.611l-1.224,13.51L439.845,274.31z M439.437,278.532l4.894,2.533l4.691-7.599l0.203-18.788l-4.282,5.067l-5.098,13.51
		L439.437,278.532z M456.771,274.521l-12.44,6.544l8.565,5.489l0.816-6.966L456.771,274.521z M443.108,296.053l4.282,1.267
		l-3.671-10.344l0.612-5.911l-4.894-2.533l-0.408,8.866L443.108,296.053z M450.449,297.953l-3.059-0.633l-3.671-10.344l7.75,3.377
		L450.449,297.953z M439.029,287.398l4.69-0.422 M443.108,296.053l1.019,16.465l-5.302-4.432L443.108,296.053z M450.449,297.953
		l-1.224,12.877l3.263,9.71l-8.361-8.022l-1.019-16.465L450.449,297.953z M457.587,323.707l-5.099-3.167l-3.263-9.71l6.73-0.211
		l2.855,10.132l-1.019,3.8 M440.864,320.118l11.624,0.422l-1.427,9.922L440.864,320.118z M523.252,203.593l-2.447,40.319
		l0.612,7.178l3.67,7.177l-6.321-5.911l-3.263-15.199l-0.204-13.51l2.243-17.098l2.651-3.378L523.252,203.593z M502.247,126.543
		l13.46,27.021l-5.099,5.277l-5.098-13.932l-4.078-19.21L502.247,126.543z M521.213,181.428l7.341,0.211l-12.847-28.075
		l-5.099,5.277l9.789,21.532L521.213,181.428z M537.323,178.262l-8.769,3.377l-12.847-28.075l4.486-1.267L537.323,178.262z
		 M540.178,162.219l7.546-3.8l-1.224,14.776l-6.933-0.211L540.178,162.219z M537.323,177.206l9.177-4.011l-2.039,7.178l-5.506,0.633
		L537.323,177.206z M549.763,182.484l-2.855-16.044l5.302,4.856l0.816,3.799l-0.408,9.077L549.763,182.484z M552.618,179.106
		l45.884-6.966l47.108-8.022l5.71-3.799l-59.343,9.499l-26.919,3.8l-12.032,1.477L552.618,179.106z M554.453,186.706l51.391-10.555
		l-31.813-0.422l-21.413,3.377v5.066L554.453,186.706z M632.151,166.018l-5.302,7.6l-21.005,2.533l-30.794-0.422L632.151,166.018z
		 M554.453,186.706l43.03-2.534l-37.523,9.289L554.453,186.706z M605.844,176.151l-8.361,8.021l-29.978,17.099l-6.322-0.633
		l0.816,3.8l2.651,0.211l3.263,8.444l22.84-12.455l36.096-27.02L605.844,176.151z M539.974,209.715l4.487,19.421l-9.381-5.067
		l0.204-10.554L539.974,209.715z M557.716,218.581l-13.255,10.555l-4.487-19.421l2.448,2.955l7.953,2.322L557.716,218.581z
		 M550.171,228.925l13.255-6.966l2.651,1.055l3.059-4.433l13.868-6.966l7.749-10.977l58.732-33.564 M553.026,229.558l22.636-7.177
		l32.425-12.877l47.72-42.219l-7.138,1.055l-17.13,15.832l-20.597,13.933l-26.715,13.299l-15.091,7.177l-3.059,4.433l-2.651-1.055
		l-14.275,7.177l4.691,1.055L553.026,229.558z M567.097,220.903l10.197,0.844l28.55,10.344l25.083,15.199l5.71-1.689 M616.04,252.99
		l8.362-9.711l22.024-54.674l10.808-19.42l-8.361,19.209l-8.769,53.196l1.836,4.644 M655.399,211.404l4.486-10.977l6.322-15.621
		l2.651-14.144 M660.293,198.738l16.315,14.143l-10.401-28.075 M662.536,246.446l6.934-11.822l-6.118-1.9l-3.263,7.811l2.244-7.811
		l-6.934-21.32l0.408-32.298l3.059-9.077l5.914-3.377l-7.546,2.533l-34.26,45.596l-17.13,17.31l-12.644,8.022 M676.608,212.881
		l-7.138,21.743l12.644,4.222l-5.914-26.598 M659.274,259.956l36.503-1.478l1.632-1.055l6.321,0.422l51.187-4.433l35.484-14.777
		l21.616-0.211l10.401-3.8 M677.423,182.484l15.907,14.987l53.226,20.688l43.845,20.476l24.471,14.355l19.781,12.243
		 M685.377,183.539l126.64,54.885l49.759,31.031 M757.772,205.704l-6.934,5.911l-14.683,2.955l-22.84-1.055l25.695,17.098
		l51.391,8.022 M688.436,206.76l16.518,19.632l49.963,27.02l9.585,11.61l50.37-12.032l21.821,1.266l19.373-1.9 M675.384,274.944
		c0.204-0.634,7.138-16.255,7.138-16.255l22.432-32.297l8.361-12.877 M465.54,230.825l4.282,2.533l5.099-0.211 M487.156,186.072
		l-1.019,16.255l-4.894,3.377L487.156,186.072z M479.407,194.938l1.836,10.766l-5.099,5.7l-2.447-14.988L479.407,194.938z
		 M469.415,198.316l6.729,13.088l-0.815,6.966l-7.546-0.422l7.546,0.422l4.894-1.9l5.914-4.011l-4.894-6.755l-0.816,9.711
		 M466.56,210.77l3.262-2.11 M486.137,202.327v10.132l5.71-3.166L486.137,202.327z M460.238,278.954l7.749-10.343l-2.243-23.432
		l3.875-13.299l5.71-13.51l0.815-6.966l5.099-5.7l4.894-3.377l11.624-5.7l7.953,3.378l-5.302,4.01l-2.651-7.388 M491.847,209.293
		l-1.428,7.599l5.914-2.533L491.847,209.293z M500.412,204.015l-8.565,5.278 M490.623,193.883l13.664,0.844l-8.769-8.655
		L490.623,193.883z M517.95,189.872l-13.663,4.855l9.788,7.389L517.95,189.872z M521.213,181.428l-3.263,8.444l12.44,2.533
		l-1.836-10.766l13.052,9.077l3.671,7.178l9.38,11.188l2.855-3.589l-10.604-12.243l-5.098-7.811 M484.913,225.758l-10.808,20.899
		l12.644-6.755l-6.118,9.077l19.577-13.721 M471.25,257.423l9.381-8.444l-3.263,12.665l9.381-8.021 M470.638,266.078l6.73-4.434
		l1.02,4.856 M474.105,246.657l6.526,2.322l6.729-1.478l2.448,1.689 M496.129,226.603l-9.38,13.299 M467.783,277.899l13.867-7.389
		l-2.447-5.699L467.783,277.899z M490.827,248.345l-5.914,42.008l-3.263-19.843l-2.651-4.855L490.827,248.345z M467.783,277.899
		l8.157,5.911l5.71-13.3L467.783,277.899z M473.493,292.676l6.526,1.055l-4.079-9.921l-8.157-5.911L473.493,292.676z
		 M484.913,290.353l-4.894,3.378l4.69,5.066l0.612-1.266L484.913,290.353z M470.026,307.874l1.632,2.956l8.361-17.099l-6.526-1.055
		L470.026,307.874z M475.329,313.152l-3.671-2.322l8.361-17.099l4.69,5.066l-1.223,5.278L475.329,313.152z M460.646,324.34
		l11.012-13.51l0.204,9.921 M486.953,218.37l1.631,9.499l6.73-13.088L486.953,218.37z M503.267,217.948l-3.467-4.855l7.546-2.956
		L503.267,217.948z M494.702,225.547l5.098-12.454l3.467,4.855l-4.283,10.132L494.702,225.547z M507.753,225.969l-4.486-8.021
		l4.079-7.811l1.835,3.167l2.855-0.211L507.753,225.969z M499.392,227.236l8.769,10.344v16.043l-2.039,18.365l1.224,9.077
		l-1.224,20.265 M513.056,233.991l-4.895,3.589l-6.118,1.688l1.632,9.077v5.067l4.486,0.211l5.71,0.633l2.855,12.455l-10.604,5.277
		l-2.855-2.111l1.835,12.033l2.244-0.845l3.67-1.477l0.204,14.354l-5.098,5.911 M530.39,192.405l1.631,9.077l-9.992-0.844
		l-7.954,1.478l3.875-12.244L530.39,192.405z M507.55,228.714l7.749-5.067l2.243-17.098l-5.098,5.488l1.631-9.921l-8.361-2.111
		l-1.427-5.278l-6.526,1.9l2.651,7.388l7.749,5.911 M532.021,201.482l6.526,6.966l-8.361-5.277h-9.993l-2.651,3.378l-3.467-4.433
		 M544.461,180.373l8.769,11.61l6.73,12.455 M554.657,209.082l-1.427,6.544l-6.322-2.956l-1.631-14.776l1.631-4.644l5.71-2.323
		l7.342,3.378 M626.9,250.14v6.649l-4.436,12.508l-4.588,13.457l-0.918,7.599l6.883,7.283l0.459-18.998l8.718-7.441v-9.975
		l3.517-10.607l-0.306-4.433l11.013,2.533l-3.212,8.708l-5.965,15.673l-6.883,10.925l-1.682,9.182l3.059,4.117l8.259-3.8
		l-0.153-9.816l6.118-12.824l-0.765-13.932l5.812,1.266 M617.723,266.605l9.177-9.816l9.635-6.174l7.495,6.808l1.988-0.475
		 M615.123,280.379l2.753,2.375l6.424-4.116l6.882,5.383l9.483-0.317l7.494-0.792 M652.289,269.93l-5.506,0.95l-8.718,2.216
		l-5.047-1.899l-10.554-1.9l-4.282-3.642 M644.03,257.423l-11.012,3.799l-10.554,8.075l1.836,9.341 M617.876,282.754l5.965,14.882
		 M651.983,236.049l5.965,16.941l-4.588-3.8l-5.354,1.266l2.753-3.958l1.989-0.316l-1.683-4.433L651.983,236.049z M650.759,254.573
		l5.66,0.475l1.529-2.058l4.385-0.634l19.781-13.51l6.322-32.086l-19.782-34.831 M658.56,257.264l-2.294,1.742l-5.048-1.742
		 M658.866,260.747l-6.577,3.325l5.812,2.375l6.424,1.108l-2.447,4.908l-0.918,3.8l-3.059-1.425l-2.753,0.792l-3.824-1.9
		l3.059,12.982l-0.612,11.241 M652.289,268.663l6.118,0.159l-0.306,6.016l5.965,11.399 M662.383,295.578l-2.6-6.966l-4.435-12.982
		l2.906-6.175l-0.153-3.008l0.459-4.433 M654.583,286.712l2.6,4.591 M659.783,288.612l-2.6,2.691l1.377,9.025l8.106,5.066
		l1.988-4.433l-4.741-4.275 M652.901,298.586l-2.906,2.533l3.823,3.958l4.13,0.317l-2.6-2.058L652.901,298.586z M647.395,295.895
		l2.6,5.224l-2.142,2.217 M661.16,306.661l-7.036,3.483l9.024,0.158L661.16,306.661z M677.984,309.51l-4.588-0.475l5.047-7.757
		l-9.789-0.317 M663.913,272.463l6.271-1.266l2.294,6.966l3.977-2.533l4.588,6.016l-2.6,3.166l-2.753-4.433 M702.762,258.689
		l-18.507,14.566l-1.377-2.533l14.072-12.35l1.682-0.474L702.762,258.689z M665.442,288.929l2.753-4.908l-4.435,0.633
		L665.442,288.929z M672.784,286.554l-4.589-2.533l4.895-3.958l0.918-0.634l1.835,1.584v2.374L672.784,286.554z M665.289,278.796
		l2.906,5.225l-4.435,0.633l-1.071-3.325L665.289,278.796z M525.495,319.643l5.048-3.483l6.576,0.158v2.058l-3.976,0.475
		l-3.365,1.742L525.495,319.643z M540.331,307.452l0.306,5.383l-4.741-1.425l-0.612-1.741L540.331,307.452z M544.614,307.136
		l1.376,5.224l-3.976,2.217l-1.377-1.742l-0.306-5.383l1.071-0.791L544.614,307.136z M537.119,316.318l3.518-3.483l1.377,1.742
		l0.459,6.016l-4.895-0.317l-1.07-0.95L537.119,316.318z M544.308,319.643l3.059,0.475l0.459-7.758h-1.836L544.308,319.643z
		 M549.814,312.677l4.589,6.966l-7.036-3.166l0.459-4.117L549.814,312.677z M575.662,301.911l-3.671,4.908l-4.741,2.216
		l-6.271,9.025l-7.188,1.108l4.282,2.691l5.2-2.533l7.801,1.9 M576.427,304.919l-1.835,6.016l-11.319,8.391 M594.628,301.594
		l-13.766,10.924h-3.364l1.529,2.375l4.13,0.634 M582.698,318.851l-3.212,0.792l2.6,4.275L582.698,318.851z M576.427,322.651
		c0.459-0.475,3.059-3.008,3.059-3.008l2.6,4.275l-3.824-0.317L576.427,322.651z M571.838,317.426l7.648,2.217l-3.059,3.008
		l-4.13-1.583L571.838,317.426z M577.192,313.468l-5.354,3.958l7.648,2.217l-0.153-3.8L577.192,313.468z M560.062,314.418
		l-4.895,1.742l-0.764,3.483 M587.439,310.777l9.942,0.475l0.306,2.375l-6.118-0.475l-6.271,0.95L587.439,310.777z"/>
</g>
</svg>
