<?xml version="1.0" encoding="utf-8"?>
<!-- Generator: Adobe Illustrator 17.0.0, SVG Export Plug-In . SVG Version: 6.00 Build 0)  -->
<!DOCTYPE svg PUBLIC "-//W3C//DTD SVG 1.1//EN" "http://www.w3.org/Graphics/SVG/1.1/DTD/svg11.dtd">
<svg version="1.1" id="Layer_1" xmlns="http://www.w3.org/2000/svg" xmlns:xlink="http://www.w3.org/1999/xlink" x="0px" y="0px"
	 width="757.422px" height="757.422px" viewBox="0 0 757.422 757.422" enable-background="new 0 0 757.422 757.422"
	 xml:space="preserve">
<g>
	<polygon fill="#ABFF4F" points="486.061,653.344 231.57,650.944 189.301,487.581 307.022,355.715 398.906,345.379 400.241,357.195 
		312.879,367.035 202.422,490.758 240.81,639.127 457.306,641.165 429.854,613.373 328.255,600.708 323.102,540.093 334.96,539.079 
		339.295,590.091 435.421,602.073 	"/>
	<polygon fill="#ABFF4F" points="479.124,351.704 465.755,160.911 477.624,160.073 490.992,350.866 	"/>
	<polygon fill="#ABFF4F" points="364.986,246.166 357.94,236.574 468.169,155.689 475.205,165.292 	"/>
	<path fill="#ABFF4F" d="M414.718,357.233l180.436,167.77l-22.464-77.429l-90.094-90.342H414.718z M618.58,563.03L384.432,345.334
		h103.1l95.743,95.992L618.58,563.03z"/>
	<polygon fill="#ABFF4F" points="392.511,606.775 387.731,595.88 458.641,564.765 502.192,449.756 513.326,453.977 467.994,573.654 
			"/>
	<polygon fill="#ABFF4F" points="486.195,357.128 483.929,345.446 657.836,311.672 674.36,290.326 630.984,251.72 581.638,201.588 
		469.888,166.159 473.478,154.818 588.043,191.137 639.324,243.236 690.574,288.826 664.51,322.506 	"/>
	<polygon fill="#ABFF4F" points="117.821,587.762 230.741,638.857 235.646,628.023 153.882,591.022 218.014,574.983 
		215.127,563.436 	"/>
	
		<rect x="330.606" y="234.765" transform="matrix(0.9154 0.4025 -0.4025 0.9154 149.5674 -110.0179)" fill="#ABFF4F" width="11.902" height="132.205"/>
</g>
</svg>
