<?xml version="1.0" encoding="utf-8"?>
<!-- Generator: Adobe Illustrator 17.0.0, SVG Export Plug-In . SVG Version: 6.00 Build 0)  -->
<!DOCTYPE svg PUBLIC "-//W3C//DTD SVG 1.1//EN" "http://www.w3.org/Graphics/SVG/1.1/DTD/svg11.dtd">
<svg version="1.1" id="Layer_1" xmlns="http://www.w3.org/2000/svg" xmlns:xlink="http://www.w3.org/1999/xlink" x="0px" y="0px"
	 width="474.365px" height="638.021px" viewBox="0 0 474.365 638.021" enable-background="new 0 0 474.365 638.021"
	 xml:space="preserve">
<path fill="#212121" d="M153.528,32.363l-7.742,100.822l-0.012-0.012l-8.117-6.07l1.571-8.653l0.024-0.155l-1.035-10.688
	l-0.238-2.404l-1.345-2.702l-5.404-10.807l-3.809-0.845l-3.797,17.163l-0.488,16.782l-7.248,2.511l-6.618-20.972l-2.702-6.641
	l-0.083-0.214l-0.036-0.083l-6.606-10.236l-2.821,5.904l3.94,22.662l14.259,33.885l0.905,0.643l7.653,5.463l-1.333,4.273
	l-5.011,1.488l-6.165,5.142l-2.44,5.784l-0.702,8.034l-5.499,14.58l4.511,8.272h2.392l0.06-0.143l2.357-6.511l0.095-0.238
	l2.452-6.76l0.964,7.867l-4.19,10.379l-6.261-0.726l-0.095-0.012l-7.713,4.916v12.628l2.297,3.928l5.415,5.892l0.916,5.558
	l0.417,2.571l4.559,12.116l-1.048,4.416l-3.428,14.473l-8.486,11.259L84.51,286.13l-15.393,2.023l-7.475,6.389l-2.212,5.548
	l-3.962,1.771l-12.956-1.332l-0.25-0.012l-27.196,4.737l-3.594,0.631l-4.499,7.082L4.9,320.929v14.354l5.356,23.531h6.225v-4.32
	l5.32,4.832l9.212,22.15l6.57,15.223l1.559,2.69l1.476,2.535l11.319,19.508l14.878,12.985l28.886,39.789l7.034-0.833l12.688,61.463
	l17.818-28.458l13.973-10.843l8.165,10.319l8.819,8.653l12.105-17.996l2.844,0.226l0.964,0.988l26.589,28.577l-1.297,23.923
	l4.428,49.489l5.166,14.628l12.033-12.616l6.594-12.045l11.962-40.622l0.083-0.298l0.226,0.238l13.961,14.64l24.733,8.308
	l16.949-24.745l16.425-28.375l11.051-11.245l8.075-5.918l7.221,2.211l1.635-8.293l0.036-0.143l32.183-21.233l25.768-25.09
	l24.221-46.192l1.452,2.607l0.619,16.258l6.463,12.462l3.226,6.213l7.32-1.976l3.928,0.94l9.165-21.971l-1.035-14.354l8.046-14.973
	l1.155-33.409l-4.606-11.985l-16.651-10.807l-0.714-0.071l-24.804-2.428l-2.987-0.286l-17.913-7.344l-2.678-5.094h-5.213
	l-28.339-12.033l-33.16-8.474l-0.678-2.19l-2.035-6.57l2.523-14.235l0.571-3.237l1.904-5.047l0.488-5.296l0.643,2.678l-1.119,2.595
	h5.344l3.499-7.01v-13.509l-1.535,3.571l-1.262-2.511l2.44-1.059l0.321-0.179l2.928-1.678v-7.213l-2.368-9.998l-8.27-20.317
	l26.924,0.061l15.054-175.59l-1.924-7.529C374.871,21.934,155.98,33.374,153.528,32.363"/>
<g>
	<path fill="none" stroke="#ABFF4F" stroke-miterlimit="10" d="M245.966,548.408l-12.04,40.922l-6.593,12.04l-12.039,12.614
		l-5.16-14.621l-3.13-73.411l-1.3,23.92l4.43,49.492 M331.726,295.84l33.156,8.476l28.337,12.032 M401.282,321.773l-2.843-5.425
		h-11.073l-51.283-9.719l62.355,13.723l20.582,8.439l28.515,2.782l16.64,10.813l4.607,11.981l-1.151,33.411l-8.051,14.972
		 M329.434,285.249l4.582,23.957 M67.702,383.766l-0.495-17.333 M63.051,359.673l6.487,10.552l1.902,1.801l0.433,4.074
		 M147.292,494.916l-13.757,11.108l-17.815,28.457l-12.8-62.032 M122.812,473.848l-2.984-2.796 M297.781,481.843l-9.092,5.326
		l-61.057,12.973l-51.027-3.979l-12.107,17.991l-8.822-8.649l-42.047-53.109 M217.599,537.336l-37.188-39.962l65.555,51.033
		l14.184,14.878l24.734,8.303l16.951-24.737l16.432-28.371l11.07-11.418l8.053-5.751 M428.449,402.574l-24.216,46.19l-25.772,25.084
		l-32.177,21.239 M429.832,403.439l0.693,17.991l9.686,18.683l7.326-1.983 M435.193,355.867l6.055,8.477l10.896,11.245l7.438,27.16
		l1.038,14.358l-9.167,21.97l-10.032-2.422l-7.957-31.657l-8.912-6.85 M426.199,396.693l-16.086,14.185l-16.086,7.784l-23.351,7.266
		 M358.164,375.588l-0.78,7.769 M354.245,378.009l7.84,13.352 M270.182,440.979l20.756,38.405l22.139,7.958l16.087,11.937
		l15.394,3.805l8.994-41.691l17.124-35.464l-0.691-31.138l-2.25-2.422l-17.47-3.114 M190.789,435.097l-10.183,8.26l-12.648,22.88
		l-7.957,3.46 M125.579,432.675l11.935-3.805L160,469.696l29.232-37.367l33.556,28.544l25.081-44.806l35.113,48.785
		 M128.347,432.157l-15.222,20.931l-9.341-5.189l-33.383-49.476 M69.538,398.423l19.718,34.079l9.34,7.439 M61.47,397.173
		l5.473,9.207l8.735,1.038 M37.884,375.242l-1.165-18.51 M59.332,338.049h10.551l22.14,6.574 M43.073,325.766l-6.919,17.472v12.109
		l1.903,4.67l22.831,38.405l9.168-19.721l6.4-9.169l10.205-5.881l3.286-10.38 M16.781,346.179l14.53,34.945l6.572,15.223
		l14.356,24.737l14.875,12.975l28.887,39.789l30.961-3.633 M16.781,354.137l5.708,5.189 M11.074,339.259l10.205,8.649l4.67,8.13
		l9.167,29.063l7.957,0.693l2.595-13.84 M16.781,344.795v13.666h-6.226l-5.362-23.527v-14.358l2.075-7.958l4.498-7.092l30.789-5.363
		l13.161,0.906 M47.57,304.26l46.23-18.106 M98.144,286.547l-13.386-1.209l-15.393,2.023l-7.611,6.458l-2.076,5.479
		 M136.673,285.338h-18.346 M161.595,283.205h-6.784 M268.873,282.63l-12.702-2.708h-36.323l-4.843,1.354l-33.73,1.353
		 M264.631,200.869l1.725,18.394 M207.9,198.893l-30.051,91.832 M189.09,198.238l-30.93,95.581 M333.591,225.671l-1.959,3.815
		 M328.238,194.163l5.779,7.796l9.367,22.99l2.371,10.001v7.216l-3.249,1.856l-7.352,3.197 M342.868,244.022v13.507l-3.505,7.01
		h-5.346 M302.602,293.819l3.053,10.441l-1.959,14.509l-4.109,1.583 M312.429,281.729l-8.007,4.863l-4.711,10.817l-0.857,14.993
		l2.034,22.061l-2.57,4.284l-6.96,1.071l-20.237-4.284l-3.427-6.319l3.534-4.284l5.568-1.714l1.82-13.708l-5.246-24.31
		l-1.786-11.761 M300.888,330.394l10.815,2.355 M332.37,272.67l-7.496,32.128l-0.856,25.488l-1.178,2.677l-3.534,2.999h-2.998
		l-8.245-2.678 M333.548,236.474l1.606,15.635l-1.606,17.564l-4.069,6.425l-9.209,5.89l-5.033,0.643l-12.848-4.123l-17.026-4.766
		l-8.03-1.071h-4.819l-2.463,2.035l2.142,1.498 M270.05,287.342l-1.177-17.67 M259.235,246.648l-4.069,18.098l3.534,6.746h5.246
		l4.926-1.82l12.421-17.778 M286.969,190.934l-8.887,9.128l-6.103,6.105l-8.46,19.705l-6.425,20.134h5.727l6.694,1.177l7.26,1.821
		l5.212,2.142l6.588-12.531l7.389-7.175 M285.255,190.934l-6.537,3.812v1.432l0.862,2.879 M324.655,185.992l-5.868,1.101h-6.969
		h-8.07l-14.305,0.498l-8.218,2.378l10.624,1.431l10.126,2.201l13.627,1.146l9.521-0.414l4.211-0.229l-0.501-2.041L324.655,185.992z
		 M321.721,187.093v-4.769l2.934-14.49l-1.466-9.354l-7.52-9.538l-2.934-1.651l-15.955,0.918 M296.229,179.671l-6.051-10.003v-4.952
		l1.1-5.869l-3.484-6.787l0.916-5.869l1.651-2.568h2.476l5.961,3.668 M291.277,187.093l3.118-9.537 M193.287,141.601l20.034-22.676
		h3.417v2.891l-20.543,22.64 M121.923,164.241l2.151-6.876 M122.743,161.639l-5.011,1.481l-6.165,5.148l-2.436,5.782l-0.705,8.038
		l-5.499,14.58l4.512,8.266h2.397l4.956-13.647 M111.567,209.533l4.191-10.382l-2.095-17.064 M135.884,260.416l-2.219,5.859
		l-9.447,12.692l-10.874,11.757 M108.426,272.904l-14.241,18.897l-1.269,6.345l17.202,12.398l7.754,3.537l9.588-4.509v-3.247
		l-13.395-7.052l-2.961-3.243l5.358-12.691 M105.746,238.072v4.09l5.358,14.243l-4.512,19.037 M120.738,210.598l-15.531-1.803
		l-7.702,4.917v12.621l2.295,3.934l7.375,8.032h8.685l2.458-1.147l18.191,24.094l2.786,10.818l-2.622,13.276l-8.686,17.209
		l2.949,5.737l17.044,10.982 M148.8,320.577h9.177l6.064-3.934l-2.446-4.589l-8.886-2.48 M153.559,310.544l-9.736-11.137
		l7.614-11.465l8.672-18.999l1.487-5.512l-3.29-13.824l-3.114-8.85l-5.405-15.57l-1.151-28.519 M146.831,204.26l2.955-14.292
		l5.217-9.1l16.968-8.068l26.702-19.195v-6.714l-6.108-5.997l-8.696,5.698l-15.292,17.94l-20.869-1.412l-8.866,1.412l-0.985-4.786
		l1.689-6.194l8.32-11.083l0.726-7.769l-10.632-7.951 M123.08,136.942l0.845-29.278l3.799-17.172l3.8,0.845l6.756,13.513
		l1.266,13.09l-2.815,15.625 M125.475,158.367l-9.95-7.109l-14.26-33.882l-3.941-22.662l2.815-5.912l6.614,10.236l2.815,6.937
		l6.615,20.973l7.319-2.534 M151.436,188.841l132.354,4.184 M329.796,194.479l25.418,0.803 M356.154,194.746l14.49-169.609
		 M157.185,34.957l213.458-10.492 M146.323,163.119L156.55,34.957 M149.787,189.968l128.931,3.915 M329.296,196.178l29.699,1.027
		l1.051,1.033 M143.823,163.738l1.124-17.381 M335.156,203.326l26.835,0.934l15.117-176.328l-1.988-6.79L153.776,31.571
		l-7.708,101.314 M276.775,201.292l-128.343-4.472"/>
</g>
<path fill="none" stroke="#ABFF4F" stroke-width="0.25" stroke-miterlimit="10" d="M289.644,339.705l24.468,20.609l38.853-9.142
	l67.453,4.568l20.278,7.922 M298.802,337.747l54.163,13.424l52.437-7.25 M336.004,306.548l-7.998,12.128l93.844,21.029
	 M320.967,334.388l31.999,16.783l-24.96-32.495l77.397,25.246l29.022,11.818h-14.007l31.556,19.702l-27.573-12.008l-71.437-12.262
	 M121.409,473.606l3.784,13.48l7.467,10.024l-9.76-23.504 M116.347,471.233l8.846,15.854l-10.385,17.008 M105.368,472.521
	l9.44,31.574l-6.794-31.885 M115.796,534.094l-0.988-29.999l18.808,1.658 M144.343,490.843l-11.683,6.268l0.956,8.642l-8.423-18.666
	l-2.292-13.48l9.322,1.929 M233.926,538.73l-2.294,2.745l-14.19-3.624v-11.138 M211.343,521.153l6.27,15.881l11.966,49.306
	 M228.012,599.778l1.568-13.438l-21.517-56.763l15.811,58.318l3.465,13.111l-17.184-2.005l13.72-11.106l5.706-1.556l4.347,2.638
	l-2.294-47.503l-3.55-7.292 M155.738,505.234l11.08-3.955 M187.405,437.665l35.392,24.649l30.641,20.711 M261.544,434.893
	l-8.105,48.132l-9.741-59.712 M178.493,447.041l9.073,41.839l40.071,10.998l25.801-16.851l35.209,3.888l4.006-7.145
	 M138.815,483.861l28.003,17.418l5.517-43.1 M287.905,473.606l-34.466,9.419l-65.873,5.853l-20.748,12.4l-2.265,12.596
	 M317.176,490.173l-5.263,33.82l-9.765,21.693 M306.209,484.641l5.703,39.352l18.109-24.751l-13.624-42.889 M284.845,571.254
	l-13.747-11.319 M246.657,548.829l24.441,11.106l30.685-13.396l2.257-62.678 M300.228,482.491l-29.131,77.444l-10.17,3.291
	 M192.168,497.111l54.488,51.718l-19.02-48.952l43.461,60.058l-0.944-69.092 M329.262,506.79l-0.625-5.977v-1.57 M376.996,474.499
	l-13.609,4.659 M350.85,473.254l12.537,5.903l7.183-53.424 M347.479,488.879l15.908-9.722l40.309-30.543 M407.75,411.775
	l-4.054,36.84l-13.933-28.852 M441.181,404.344l-15.131-7.819 M433.995,407.556l17.288,31.312 M436.985,433.998V417.81
	 M459.406,402.574l-8.123,36.294l-10.103-34.525l-7.872,0.477 M443.373,358.806l-8.047-4.246l-0.901,1.178l-12.576-16.035
	l-83.77-32.7 M419.477,328.97l10.98,4.181l10.502,9.765l2.414,15.891l-1.54,4.855 M445.007,331.828l-14.55,1.324l-8.608,6.553
	l19.11,3.211l13.477,29.166l-1.698,4.587 M421.772,328.97l8.685,4.181l23.175,10.167l-6.876-11.912 M468.513,356.795l-3.012,10.258
	l-11.869-23.735l0.805,28.764l-0.805,9.411 M457.963,397.304l7.538-30.251l-11.064,5.029l-11.063-13.276v6.839 M467.45,387.618
	l-1.95-20.565l-1.353-24.391l-10.516,0.656l-12.672-0.402l-5.633,11.645l-13.477-14.856l-16.446,4.217l15.016,11.818l3.984,7.694
	l-84.46,1.744l13.023-14.005 M420.419,387.65l-38.74,12.891l-11.375,13.221 M452.738,375.441l-11.557,28.903l-11.502-28.038
	l-3.629,20.219l-5.631-8.875l-62.351-12.209l23.61,25.1l-11.47,8.942 M314.865,360.313l39.285,17.547l-14.209-12.684l18.126,10.264
	l71.611,0.865l-9.26,11.344l-10.443,23.047l-28.297-10.156l12.224,17.933 M358.068,415.882l-65.414-24.684l34.66,19.996
	l29.964,22.847l3.002,13l-0.649-29.927 M353.459,461.163l-37.062-4.81l-26.754-7.739l-19.49-7.845 M250.501,419.553l19.653,21.217
	l9.199-38.195l13.301-11.376l22.212-30.885l35.31,28.781l-57.522,2.104l-39.164-1.078l16.664,50.65l-12.631-26.286l-20.666-11.218
	l-21.611-14.172 M344.472,502.814l-28.075-46.461l-37.044-53.779l10.291,46.04l1.25,30.523 M367.631,392.205l-5.646,6.593
	l-3.917,17.084l-0.79,18.159l-3.818,27.121l-26.145-49.969l-10.917,45.159l-3.381,30.734l-23.372-38.473 M137.591,428.671
	l14.404-0.956l36.706,5.136l-10.567-34.597l-26.14,29.461l2.879-44.103l23.26,14.642l12.689-17.458l24.423,8.298l44.374-15.917
	l-6.131,16.943l4.034,24.364l-9.665,1.399l-35.032,11.187l9.262,32.974 M70.186,378.552l-0.519,19.702l9.838-9.16l14.405-8.298
	l19.814-11.211l16.781,13.254l-16.166,21.994 M62.017,397.697l8.168,1.453l-2.847,6.176 M176.316,291.734l49.97,7.49l-99.941,41.171
	L91.224,363.08l2.686,17.715l20.429,24.038l23.252,23.838l-7.087-45.832l21.491,44.876l8.064,41.743 M113.724,452.176l0.495-46.85
	l12.127,26.931 M90.061,432.851l6.05,40.755 M94.083,470.814l-36.322-60.042 M90.061,431.587l-32.3-20.815L68,434.893l-29.789-36.64
	l19.549,12.519l1.501-15.484 M36.874,385.637l1.644,11.368l14.258-13.394 M277.4,308.191l-4.547,1.884l4.874,0.634 M276.71,318.676
	l-3.856-8.601l4.547,1.789 M255.15,286.963l-28.864,12.262l51.114,4.729 M102.518,349.913l-15.741,13.603l4.447-0.436l22.5,6.505
	l77.1-10.044v21.255l-35.949,2.816l-25.616-0.812l-35.348-2.004l-13.633-6.61l-10.092,4.367l9.319,10.542l34.834,15.739
	l-10.451,42.849 M269.434,285.189l-14.284,1.773l1.005-7.095 M144.815,300.386l81.471-1.162l46.567,10.851l-146.508,30.32
	 M179.389,286.094l75.761,0.869l20.831,10.417 M135.899,286.963l-17.481,13.126l10.84,0.031 M43.224,385.637l-5.185-9.685
	 M35.274,384.946l2.765-9.85l7.332-0.911 M81.954,366.295l8.107-13.15l12.457-3.233l23.827-9.518l-34.209,4.11l-18.679,6.202
	l-13.986-12.77l-10.716-5.758l-5.531-6.512l-6.913-6.991l-3.923-2.419l-15.435-5.798l-5.373-4.445l26.458,3.474l9.679-5.307
	l-5.013-4.093 M73.456,350.707l-1.888,21.175l4.235-1.376 M66.129,387.275l-6.314-19.529l-0.062-28.599 M38.212,359.886l19.38,9.699
	l2.223-1.839l7.523-1.451 M36.311,352.977l12.444-20.798l34.538,2.822l8.843,9.504 M73.185,294.209l3.924-7.91 M79.505,291.734
	l-2.396-5.436L61.89,293.75v3.629 M70.013,337.937l3.443,12.77l5.513,17.308 M59.815,338.268l3.822,22.007l9.819-9.568l16.605,2.439
	l2.966-7.991l9.491,4.758L91.224,363.08l-10.946,11.105l-3.697-4.793 M120.257,312.531l6.088,27.864l-43.053-5.394l-18.245,2.936
	 M108.869,309.489l-25.577,25.512l-39.345-9.334 M102.518,305.812l-58.571,19.855l-5.908-16.179l-5.651,6.769 M37.456,310.187
	l-1.145,8.489v24.446l12.444-10.943l-10.543,27.707l21.604-21.618l-2.223,31.317l4.015,27.42 M35.525,349.913l-2.442-33.227
	 M16.953,311.706l9.16,44.206l6.97-39.226l1.513,66.114l1.715-22.257 M15,304.913l32.718-0.732 M98.703,302.771l-60.664,6.718
	l-21.086,0.971l-9.506,2.072l3.803,26.616l5.704-27.442l4.493,36.083 M11.25,339.148l-5.876-17.172l4.498,32.586 M16.953,356.603
	l-5.704-17.456l-0.519,19.184 M324.253,307.005l-2.077-16.564l6.839-12.667L324.253,307.005z M316.055,283.138l0.614,1.183
	l5.44,5.802l-1.143,19.472 M319.109,330.29l-4.997-19.91 M323.153,280.043l-1.044,10.081l-9.159,5.646l-5.529,8.985l6.69,5.625
	l6.854-0.784l3.719-1.404 M309.318,283.524l7.351,0.797l-3.718,11.449l1.162,14.61l-1.745,22.477 M303.642,318.676l1.418,5.743
	l-5.269-1.404 M311.644,332.179l-6.584-7.76l-4.649,5.32 M322.771,332.857l-3.662-2.567l-6.741,2.567l-4.945-28.102l-4.504-9.743
	 M299.537,325.092l5.523-0.674l2.424-20.181l0.521-19.916l4.945,11.449l8.016,13.826l-1.858,20.694l-3.022,6.101 M276.433,324.419
	l0.966,5.871l-3.174-0.901l-6.557-0.276 M303.479,288.571l-6.469,7.971 M290.64,311.864l6.083-14.709l-2.479-15.936 M296.339,277.38
	l-2.095,3.84l-9.297,27.499 M304.684,286.339l0.375-7.012l-8.336,17.828l-1.771,15.489l3.317,20.481l-7.629-21.262l-6.699,23.989
	l1.006-27.135l-1.058-28.851l1.165-6.212 M295.029,276.509l-0.786,4.711l-3.604,30.645l2.388,24.804 M274.045,272.622l-1.191,3.296
	 M281.257,273.15l2.632,6.718l3.464-5.607 M290.542,339.542l-6.601-3.688l-6.541-5.563l7.547-21.571l-8.237-27.499 M298.83,311.864
	l-3.878,0.781l-4.312-0.781l-5.693-3.146l-5.062-2.171l-1.502,1.959 M300.836,334.356l-2.567-1.229l-5.242,3.542l-1.389,2.986
	 M277.418,272.282l-0.708,8.937l3.175,25.328L277.4,330.29l-6.307,5.136l3.133-6.037l2.208-4.97l-8.23,4.97 M272.22,277.773
	l4.49,3.447l7.179-1.352l10.355,1.352l9.05-2.459 M337.188,219.339l-1.615,10.85 M268.203,246.933l-8.07,9.988l7.112-0.659
	l-7.661,11.661 M265.468,246.451l-5.335,10.47l-4.983,7.783l4.434,3.218l4.341,3.523l3.321-14.762l4.2-9.034 M261.258,246.624
	l-1.125,10.298l-0.55,11.001l-0.902,3.523 M298.49,229.479l-11.506,25.832 M285.547,273.389l1.438-18.078l2.053-17.203l1.247-6.301
	l-3.742,9.649 M332.534,251.253l-3.91,6.33 M320.244,281.22l8.38-23.638l-3.355-27.175l5.524-19.329l11.99,14.904 M317.599,195.021
	v32.552 M340.042,245.035l3.124,6.218l-7.594,12.507l-1.134-4.725 M333.47,236.459l2.504-6.052 M344.541,230.189l-1.065,4.29
	l-1.696,9.801l-5.806-13.873v16.217l-2.035-10.893 M333.513,235.731l-1.408-6.369 M345.667,234.938l-2.191-0.459l-7.903-4.29
	l-3.468-0.827l5.074-10.347 M345.135,240.418l-1.781-6.374l-6.439-15.355l-9.234-20.429l3.111,12.817l1.741,16.495 M333.939,201.978
	l-6.257-4.25l14.738,25.066 M322.176,194.772l3.093,34.59l-7.67-34.341l-10.116,14.665l10.116,17.888l4.576,20.916l-1.973,33.441
	l-10.673-29.614l-11.039-22.838l0.724,24.771l2.911,23.523l-15.141-22.462l-9.567,16.971l2.561-18.588l-7.553,18.421l1.497-10.649
	 M315.145,281.93l-5.615-29.614l-2.046-42.631 M335.075,252.08l-2.541-0.827l-7.34-21.063l-3.018,18.3l6.449,9.897l0.736,16.469
	l2.933-23.602 M283.371,247.195l3.613,8.116l12.229-1.062l10.316-1.933l12.646-3.4 M328.164,197.727l-2.97,32.462l-7.595-2.616
	l-8.07,24.743l-7.404,25.456 M301.378,199.773l-11.946,21.662 M263.505,227.912l-4.494,17.795 M263.386,226.209l4.514-1.099
	l7.156-8.467l3.628,10.109l-11.112,11.158l-8.561,7.797l8.89-20.597l12.078-20.48 M298.358,229.362l-8.073,2.445l-13.79,17.109
	 M308.862,194.505l-1.378,15.18l-8.993,19.793l-9.059-8.044l0.853,10.372l-16.936,8.402l3.146,8.708l-9.25,7.767l1.911,12.498
	 M304.858,194.505l-3.411,4.991 M272.945,206.841l-5.044,18.27l-0.328,12.8l1.915,9.248l3.862-6.95l5.335-13.457l22.694-26.979
	l-21.399,4.857l-1.295,22.121l10.748-5.317l18.052-11.75l-6.106-9.912l1.379-5.585 M297.536,192.674l-1.621,2.635l5.463,4.465
	l-1.05-5.863 M272.037,207.125l7.942-2.495l15.936-9.322l-1.566-3.328l-14.927,6.689l0.557,5.961l-4.923,12.013l-7.484,21.267
	l-4.384,8.14 M324.068,186.637l0.517,7.552l-5.864-7.063l-3.181,7.646l-4.882-7.304l-8.735,6.159l1.354-6.501l-11.472,4.303v-3.89
	 M300.698,164.004l3.973,22.045l8.373-18.225l-6.215-10.687l-6.131,6.635l0.44,17.094l-6.067-1.156 M306.626,147.711l6.984,10.292
	 M296.73,148.626l-3.481,4.184l5.335,2.812 M290.182,157.93l-1.514-11.667 M290.182,164.514l8.565-8.892 M294.639,176.324
	l-2.668-8.584l6.776-12.118l1.952,8.151 M292.791,184.762l3.39-5.051l8.197,6.315 M315.605,149.012l-1.995,8.991l10.458,9.593
	l-11.036,0.433l-0.65,18.608 M324.585,167.886l-12.202,18.751l-8.005-0.611l-3.239-5.16l-9.168-13.127l8.728-3.967l12.334,4.256
	l0.577-10.026l-6.781-0.865l-0.505-9.774l-7.578,8.259l-2.016-6.996l-8.063-2.363l4.581,6.546l-3.515,12.334 M132.909,266.778
	l-16.215,16.369 M105.309,241.118l5.893,4.286 M124.701,246.005l-6.283,2.41 M133.892,257.639l-0.983,9.716 M130.009,252.496
	l-5.308,9.596l-11.261,16.442 M132.909,266.778l-8.208-4.686l-6.283-1.713 M111.202,258.419l-1.829,14.436 M115.852,239.424
	l2.566,8.991l6.283,13.677l-8.008,21.055l-3.253-4.613l-4.068-5.679l9.046-12.476l-7.216-4.007 M111.775,307.27l-11.646-6.29
	 M93.027,298.073l7.102,2.906l5.719-0.861l10.486,5.423l-4.2,2.16l5.426,6.107l-17.431-12.829l-5.834-9.246l11.553,8.385l3.524-2.74
	l4.068,1.032 M122.831,311.706l4.714-5.461l-11.212-0.703v-3.372l-6.962-4.791 M111.848,238.283l-0.646,7.121l7.216,14.975
	l-4.977,18.154l-7.592,21.586l6.286,7.583l10.698,4.004l-6.497-6.164l-6.962-8.163l1.829-2.242 M109.934,204.95l-1.945-5.871
	l1.063-14.929 M114.803,190.636l-3.665-1.763l-3.149,10.205l-0.45,5.871 M113.905,183.323h-2.727l-2.126,0.826l2.086,4.724
	l2.766-4.345 M138.504,164.601l2.015,4.066l-15.592,1.155l-8.43,8.084l-2.696,4.576l-4.349-8.916l1.726,9.757l-0.089,5.166
	l1.275,9.772l-4.374,0.818l-4.417-1.394l5.48-13.535l-0.089-3.092 M130.818,157.427l-5.89,12.395l-13.264-1.502l10.348-4.023
	l2.916,5.525l6.838-4.966l5.36-3.159l-2.328-5.219L130.818,157.427h-5.256 M136.591,222.599l-3.683-21.287l-6.71,26.253
	l3.355,17.222l20.666,15.592l-5.405,9.596l-5.445,2.039l2.071,9.206l3.69,4.874l6.372,1.785 M126.345,249.003l15.096,10.677
	 M136.587,261.206l4.854-1.526l8.779,0.699 M126.198,227.565l10.393-4.966l9.009,2.31l-2.311,19.878L126.198,227.565z
	 M155.254,240.738l-9.654-15.829l-5.081-18.941 M158.038,320.483l-4.37-9.651l-19.385-3.696l-4.273,1.04 M159.853,269.585
	l-14.723,16.508l-1.834,13.453 M160.444,267.871l-5.57-26.754l-4.655,19.261 M137.007,283.979l4.304-3.334l12.357-10.466
	 M120.828,236.656l8.266,7.94l14.195,0.192l11.586-4.066l-1.207,29.458l6.61-1.69 M162.092,314.301l-4.054,6.182l-23.756-13.347
	l1.679-4.966l5.349-21.525l3.504-10.67l-3.374-10.294l-11.887-14.893l-3.209,2.858 M145.781,317.712l-11.499-10.576l-5.024-7.016
	l6.703,2.051l17.66,8.29 M163.26,314.986l-8.386-4.911 M142.482,195.836l-1.963,10.132l-3.928,16.631l6.697,22.188l6.931,15.592
	l3.448,9.8l-8.537,15.914l-9.168,16.076l7.932-2.836 M125.562,227.565l-8.026-3.406 M116.843,216.593l0.693,7.565l-1.684,11.606
	 M108.525,225.183l8.318-8.59l9.238,3.787l-0.52,7.184l-9.71,8.199l-7.809,2.292l-2.734-6.103 M99.905,230.258l5.404,1.695
	l10.543,3.811l-7.327-10.581l-10.426-3.402l8.581-9.23l11.984-2.194 M97.613,214.053l9.067-1.502l10.163,4.042l1.821-6.236
	l7.417,10.023l-8.546,3.778l-9.011,1.025 M105.309,208.808l1.371,3.743l1.845,12.632l-3.216,6.77l-7.696-10.856 M153.667,181.057
	l-11.186,14.779l-9.573,5.476l7.61,4.656l7.529-1.019l-2.448,19.96l4.254,0.274 M149.654,190.963l-7.172,4.873l7.372-16.776
	l4.823,2.526 M156.611,173.055l2.889,5.744l-9.646,0.261l1.648-11.318l-13.568,8.778l-15.923,16.052l10.898,8.74l5.025-24.792
	l11.92,2.54 M179.419,167.529l-9.104,4.37l-13.704,1.156l-5.108-5.313l-3.004-3.446l-7.979,4.37l10.983-0.925l17.658-3.156
	l7.701-4.305l14.705-7.321l-2.44,6.845 M198.702,152.036l-7.135,0.924l-1.887-10.076l-12.55,16.921l-6.815,12.095l-1.155-7.314
	l-12.55,8.47l-6.757,6.005l-16.945,22.252l-10.898,2.966l-6.191-5.363l6.191-6.343l-5.514-14.667l-7.045-4.34l15.475-3.744
	l13.007,6.699l2.585-7.853l-8.754-3.811l7.153-0.27 M118.225,209.546l3.786-5.268v-12.324l2.916-22.133l0.634-12.395l-3.55-6.898
	 M139.62,153.617l-4.824,2.861l3.137,3.327 M139.62,118.039l-4.299,2.585l-0.693,18.016l2.426,11.549 M115.852,152.036l6.159-1.508
	l15.043-0.339l10.625-7.306 M122.831,125.243l-7.721,7l-5.512,4.781l13.686-4.043 M146.138,137.946l-9.33-4.298l-2.179,4.992
	l-4.967-4.736l-6.576,4.042l-9.35,8.906l7.842,3.336l9.24,7.238l1.27,6.87l2.887-8.334l2.079-5.774L146.138,137.946l-7.121-9.7
	 M139.62,152.96l-2.566-2.771l-7.392-16.285l-3.464-32.798 M127.667,91.258l6.846,7.423l4.504,6.468l-3.696,15.475l-9.123-19.517
	l8.315-2.426l0.808,21.943l-5.659,13.28l-7.651,16.285l1.075-12.243l-13.488-0.922l-2.743-37.868l-9.423-4.319l11.557,40.741
	 M116.277,127.039l-6.501,10.406"/>
<path fill="none" stroke="#ABFF4F" stroke-width="0.25" stroke-miterlimit="10" d="M247.859,415.902l-10.999-12.62 M253.489,390.131
	l-16.628,13.151l-24.026,23.81l2.421-37.987l-19.521,17.167l-17.584-8.003l37.105-9.163L253.489,390.131l25.857,12.459l47.527,8.558
	l31.171,4.754l12.5,9.854l-8.584-26.943l-69.316-7.602l-33.025-18.027l-68.781,7.62l124.015-20.487l-55.233,12.867 M190.131,432.877
	l22.703-5.784l-17.1-20.82l-7.019,26.605 M91.26,363.085l99.577-3.542 M274.346,336.386l-83.509,23.157l-64.464-19.151
	l144.715-4.972l12.846,0.428l9.084,0.815l5.241,1.967v-5.511l0.533-15.712 M429.638,376.314l-89.717-11.133l-25.824-4.864
	l-123.26-0.774l-35.942,24.079"/>
<path fill="none" stroke="#ABFF4F" stroke-width="0.5" stroke-miterlimit="10" d="M313.718,108.191l-1.753,8.85l-6.067,19.093
	l-1.149,2.704h-6.64l-4.017-5.245l-1.558-16.634 M311.165,147.448l4.748-26.591l-2.195-21.949l-5.224-7.909l3.71-2.67l5.093-8.205
	l-4.748-11.864l-9.679-5.056 M293.163,65.492l-2.967,2.076l-1.781,1.879l-3.56,5.932v3.46l4.154,7.316l-1.187,3.065l-6.43,11.171
	l-5.242,23.432v48.444l1.088,8.107l3.561,4.647l2.077,1.146h8.423 M298.208,68.26l-4.155-1.483l-1.781-8.304l2.868-12.557
	l1.879-3.559l1.682-2.373h2.671l2.176,8.898l-0.791,16.708 M232.584,138.191v5.301l-6.12,30.6l-3.061,7.291l-2.701,1.709
	l-8.915,0.361h-9.815l-2.791-2.07l-1.712-7.682v-18.329 M226.014,118.111l2.972,1.531l0.54,13.41 M213.409,43.319l2.971,5.311
	l0.994,5.85l-1.982,9.36l0.808,1.89l4.862-0.63l5.132,0.63V54.119l2.341-5.94l3.962-5.58h1.621l1.26,3.24l0.54,15.751l-4.142,8.73
	l0.99,5.4l0.18,6.3l-3.961,6.39l-0.27,6.031l4.862,8.099l4.232,13.68l-2.882,19.261l-2.882,3.33l-1.891-0.811 M207.015,117.572
	l-3.331,2.16l-2.071,12.108 M211.788,43.319l-1.71,3.6l-3.331,15.66l2.521,7.83l-2.071,6.84l-1.081,5.401l1.891,2.429l1.89,5.94
	l-2.521,5.67l-5.312,5.761l-6.483,13.32v19.531l0.99,1.62"/>
<path fill="none" stroke="#ABFF4F" stroke-width="0.25" stroke-miterlimit="10" d="M195.939,155.687l-1.965,27.264l35.629,1.659
	l3.059-41.141 M197.389,138.172h-4.122l4.266-53.941h13.054l-4.529,43.8 M205.486,133.56l-0.476,4.612h-3.867 M202.125,132.584
	l6.44-89.211l35.801-1.453l-8.051,96.874h-34.639l0.102-1.402"/>
<g>
	<path fill="none" stroke="#ABFF4F" stroke-width="0.2" stroke-miterlimit="10" d="M208.409,124.616
		c-0.288-1.754-1.425-3.236-3.098-3.762c-2.466-0.775-5.164,0.818-6.026,3.559c-0.862,2.741,0.438,5.592,2.904,6.366
		c0.308,0.098,0.621,0.157,0.932,0.182 M212.252,77.471c0.742-2.359-0.377-4.812-2.499-5.48c-2.123-0.668-4.444,0.703-5.186,3.062
		c-0.742,2.358,0.377,4.812,2.499,5.479C209.188,81.2,211.511,79.829,212.252,77.471z M232.268,126.537
		c0.862-2.741-0.439-5.592-2.905-6.366c-2.466-0.776-5.164,0.818-6.026,3.558c-0.863,2.741,0.438,5.592,2.904,6.368
		C228.708,130.871,231.405,129.278,232.268,126.537z M308.026,53.904c1.164-3.703-0.593-7.552-3.923-8.599
		c-3.331-1.047-6.975,1.103-8.139,4.806c-1.164,3.702,0.593,7.551,3.923,8.598C303.219,59.757,306.862,57.606,308.026,53.904z
		 M314.945,125.826c1.678-7.295-2.551-14.493-9.443-16.079c-6.894-1.587-13.842,3.041-15.52,10.335
		c-1.677,7.295,2.551,14.493,9.443,16.08C306.318,137.747,313.267,133.119,314.945,125.826z M307.524,56.285
		c1.288-5.596-1.767-11.075-6.825-12.239c-5.057-1.163-10.2,2.43-11.488,8.026c-1.287,5.596,1.769,11.075,6.826,12.239
		C301.095,65.473,306.237,61.881,307.524,56.285z M232.693,166.21c2.633-11.443-3.617-22.649-13.959-25.028
		c-10.341-2.379-20.859,4.969-23.491,16.412c-2.633,11.444,3.617,22.649,13.959,25.028
		C219.543,185.001,230.06,177.654,232.693,166.21z M215.38,119.21c0.725-1.394,1.29-2.912,1.663-4.532
		c2.138-9.293-2.895-18.384-11.24-20.305c-8.346-1.92-16.844,4.059-18.983,13.352c-2.138,9.294,2.895,18.385,11.24,20.305
		c3.115,0.717,6.25,0.333,9.068-0.912 M322.298,155.199c5.65-5.523,9.851-12.783,11.726-21.194
		c4.958-22.252-8.247-44.128-29.495-48.864c-21.248-4.736-42.493,9.463-47.452,31.715c-4.958,22.251,8.247,44.128,29.495,48.864
		c0.816,0.182,1.633,0.336,2.448,0.463 M214.092,123.871c0.669,0.208,1.351,0.393,2.044,0.552
		c16.502,3.797,33.308-8.023,37.536-26.401c4.228-18.377-5.723-36.354-22.225-40.15c-16.504-3.797-33.308,8.023-37.536,26.4
		c-3.766,16.371,3.718,32.424,17.063,38.418"/>
</g>
<path fill="none" stroke="#ABFF4F" stroke-width="0.25" stroke-miterlimit="10" d="M311.991,138.809l1.647-31.951l-20.409,0.705
	l-2.366,31.247H311.991z M313.638,147.413l6.904-84.83l-39.363,1.473l-10.092,121.537l11.693,0.514"/>
<g>
	<path fill="none" stroke="#ABFF4F" stroke-width="0.1" stroke-miterlimit="10" d="M298.816,40.37l-2.489,8.821 M292.294,58.171
		l7.204-12.364 M295.129,45.903l0.468,14.108l5.471-19.917l-0.625,3.153l0.126,15.668l1.207,8.06l-3.417,1.36l-2.791-8.174
		l-3.341-1.497 M298.816,40.094l1.627,3.153l2.835,5.88l-2.709,9.788 M284.603,79.109l3.749-3.628l10.007-7.146l0.875-3.773
		l0.409-5.899l-4.047,1.347l-1.356,6.935 M302.986,64.18l7.948,3.366l-8.365-1.683l7.588,5.281l-8.38-4.169l-1.083,8.59
		l-2.334-7.229l-4.629,7.563l-5.379-0.417l0.287-6.262 M312.444,68.335l-2.288,2.809l-2.126,5.338l-3.253,5.838l-10.172,3.711
		l-5.88,3.086l0.334-3.211l-1.209-5.13l0.5-5.295l5.608-8.725l-5.321,2.464l-3.838,9.431 M228.094,96.359
		c0,1.281,0.999,2.319,2.228,2.319c1.231,0,2.228-1.038,2.228-2.319c0-1.279-0.997-2.319-2.228-2.319
		C229.092,94.04,228.094,95.079,228.094,96.359z M228.415,92.991h3.253v6.336h-3.253V92.991z M226.068,117.796l4.733-0.208h3.568
		 M229.573,137.739l1.228-20.152l1.825,18.634l1.744-18.634l3.472-1.349 M229.358,127.697l-3.29-9.571 M230.203,137.994
		l-5.749,34.472 M220.767,183.021l3.687-10.555l1.614-40.627l-5.131,44.596 M203.779,137.739l-4.216,34.006 M197.542,174
		l2.021-2.255l2.148,3.698l4.345-0.451l-1.352-38.77 M199.563,141.798v29.947l2.148,10.283v-6.585l2.696-38.876 M213.792,126.223
		l2.455,44.44 M220.757,183.391l0.18-6.956l-9.069,6.956l-10.156-1.363l4.345-7.037l10.191-4.329l4.689,5.773l3.517-3.969
		l2.063,1.576 M229.573,133.573l-4.578-0.524l1.072-14.923l0.28,13.712 M205.232,127.47l1.872-9.882l-4.799,10.777 M202.479,117.796
		l-0.768,14.043 M200.04,133.335l2.877-11.276 M199.367,134.098l3.172-16.511l-4.997,17.27 M233.617,102.575l-1.131,2.717
		l5.355,10.425 M227.559,98.136l1.475,6.503l-7.932,7.701l-0.936,11.532l-1.234,14.931l-2.685,31.86l-4.38,12.728l-5.811-8.399
		l4.544-33.73l1.904-13.565 M219.591,100.413l1.512,11.927l-5.699,6.891 M213.938,119.084l5.652-18.671l-7.085,7.992
		 M213.338,119.084l-0.833-10.679l2.572-8.472 M199.049,117.588l6.981-13.401l-3.491,13.401l9.967-9.183l-5.401,9.183l4.825,3.09
		 M195.689,116.147l1.372-0.43l0.515,20.504 M207.464,96.732l0.972,1.031l-6.276,4.723l3.869,1.702l-8.968,11.531l1.988,1.87
		l-1.472,18.634l-1.888-0.925 M213.938,92.991l1.139,6.943l4.251,0.362l4.121-7.625 M226.248,91.631l1.118,5.95l-3.916-4.911
		l5.584,11.969l-9.705-4.344l-0.396-7.304 M211.301,91.971l-2.865,5.792l5.502-4.772l-7.909,11.196l9.048-4.254l3.855-6.943h-4.994
		l-2.638-1.439v-3.037l-1.321,2.554 M230.074,67.753l5.157-7.125 M231.282,84.258l-6.714,6.13l-1.119,2.283l2.798-1.039l2.516,2.853
		l-1.398,3.097l5.122,7.711l1.883,12.295l-5.336-12.948l1.767,12.948l-9.699-5.248l4.966,5.787l-5.901,5.745l-3.415-1.099
		 M219.111,82.438l5.457,7.949h-8.949 M229.045,72.526l-7.514,9.912 M232.487,75.957l-3.762,6.162l-4.156,8.268l-5.636,2.603
		l-3.314-2.603l-4.318-1.873l-2.398-9.913l9.799,3.987 M229.034,88.462l-2.786,3.17l-1.679-1.244l-3.037-7.949l1.919-11.671
		l-4.517,12.151l-3.475,7.836l-1.519,2.236l-2.638-4.476 M232.824,76.292l-3.779-3.766l-5.595-1.759l-4.517,0.263v11.888l2.598-0.48
		l7.194-0.319l2.943,2.146L232.824,76.292z M231.668,68.947l-2.623,3.579l1.03-4.773l-6.625,3.014l3.544-4.58 M206.948,78.994
		l0.646,5.502l1.308-5.895l-0.467,6.635l2.865,3.278l7.632-5.596l-6.427-9.193 M209.837,69.609l-0.934,8.992l3.603-4.876
		l6.427-2.695l1.16-5.459l3.356,5.196 M210.159,70.01l2.346,3.715l-0.638-5.389l7.065,2.695l-4.304-4.5l2.123-0.343 M232.039,51.538
		l-1.965,16.215l-2.334-15.174 M232.539,42.705l-0.5,8.833l3.375-5.596L232.539,42.705l-4.799,9.874l4.299-1.041l3.192,9.091
		l-2.945,8.78l-2.213-1.656l-3.827-1.945 M226.248,54.211l1.493-1.632l-0.746,13.608 M216.752,53.115l-4.247-1.071 M213.485,43.424
		l-3.325,3.596 M210.159,47.02l2.346,5.024l-0.638,16.292l-3.431-7.016L210.159,47.02z M213.485,43.424l-0.98,8.62l-4.069,9.275
		l0.763,8.691l2.668-1.675l4.885-15.22L213.485,43.424z"/>
</g>
<polygon fill="none" stroke="#ABFF4F" stroke-width="0.2" stroke-miterlimit="10" points="293.43,40.305 304.753,40.055 
	302.471,68.932 291.277,68.932 "/>
<path fill="none" stroke="#ABFF4F" stroke-width="0.1" stroke-miterlimit="10" d="M312.009,117.328l3.162,3.085 M306.658,132.571
	l3.364-1.152l5.719-9.948 M306.355,147.402l3.231-13.382 M307.449,146.82l2.572-15.401l1.018-11.67 M302.423,138.804l-0.556,8.946
	 M285.587,102.893l12.435-0.978l11.775,0.978 M306.823,91.029l-4.348,5.53l-4.453,5.356l7.795,12.717l-6.315,21.472
	 M292.891,117.053l6.61,18.757l-0.602-20.302 M304.231,138.804l-4.729-2.995l-1.458,2.995 M283.936,123.18l4.385,7.723
	 M290.696,186.092l-9.081-3.387l8.565,1.133 M291.805,183.837h-1.626l1.053,1.596 M292.501,175.805l-2.322,8.033l-5.365-9.784
	l-3.199,8.65l-4.312-2.244l2.351-8.827 M277.021,123.849l2.632,47.785l4.284-48.454l0.877,50.873l3.508-43.15l6.553,13.005
	l3.724-4.818 M280.729,184.924l0.886-2.22l-1.961-11.07l0.775-49.381l5.16-19.36l3.611,9.114l-5.262,11.174l5.262-5.613l3.693,3.906
	 M276.078,172.188l3.574-0.553l5.161,2.42l7.688,1.751l0.751-0.206 M276.223,124.105l0.799-0.256l-0.943,31.204 M289.604,144.839
	l-1.283-13.935l0.877-13.336v-5.561l3.693,5.047l6.008-1.545l6.918-0.876l3.98-11.739v13.851l-3.636,18.333 M281.199,100.959
	l-4.178,22.89l3.406-1.596L281.199,100.959z M305.834,136.104l-0.017-21.472l3.98,2.111l2.211-0.245l-2.211-13.605l-7.322-6.334
	l-8.633-0.978l4.18,6.334l0.877,13.593l-13.313-12.615l-1.651,20.287l-3.509-0.927l3.147-20.236l-2.252-1.608 M284.587,94.745
	l4.134-5.645l-5.146,12.917l2.013,0.876l5.648-12.358l2.608,5.045l3.568-5.876l12.387-3.09 M297.411,89.704l5.064,6.854l1.708-6.514
	l5.614-3.43l-2.974,4.415l2.974,11.864l2.69-4.635l1.737,9.321 M308.431,91.029h-1.608l-2.64-0.771l-6.772-0.553l-6.176,0.553
	 M288.345,88.364l0.376,0.736l2.514,1.158l3.499-4.287 M312.141,88.364l-2.12-1.75l-5.216-4.311l-4.094-6.754l-4.873,5.533
	 M293.734,75.884l2.104,5.199l-1.105,4.888l-5.679-0.081 M295.838,81.082l-7.995-0.321l6.89,5.21l2.677,3.734l7.395-7.401
	L295.838,81.082z M284.785,78.902l3.059,1.859l5.89-4.877l6.977-0.334l7.354,0.918l1.956,10.148l7.215-6.446 M301.798,66.96
	l6.268,9.506l9.171,3.702l-7.04-9.038"/>
</svg>
