<?xml version="1.0" encoding="utf-8"?>
<!-- Generator: Adobe Illustrator 17.0.0, SVG Export Plug-In . SVG Version: 6.00 Build 0)  -->
<!DOCTYPE svg PUBLIC "-//W3C//DTD SVG 1.1//EN" "http://www.w3.org/Graphics/SVG/1.1/DTD/svg11.dtd">
<svg version="1.1" id="Layer_1" xmlns="http://www.w3.org/2000/svg" xmlns:xlink="http://www.w3.org/1999/xlink" x="0px" y="0px"
	 width="713.56px" height="436.677px" viewBox="-100.674 62.098 713.56 436.677"
	 enable-background="new -100.674 62.098 713.56 436.677" xml:space="preserve">
<path fill="#212121" d="M594.878,409.73l-20.72-17.08l-21.48-12.25l-0.64-13.22v-17.03l7.45-4.42l-6.79-7.03l2.75-43.95l-6.21,10.97
	v0.01l0.12,3.76l-0.22,0.98l-0.13-4.01l-5.12,23.11l-19.84-20.56l-13.43-5.99l-3.67-18.98l1.48-28.47l-6.05,4.78l-0.12-0.63
	l-17.2,33.93l-21.33-4.22l-2.02-24.16l-19.3-6.03h-6.97l-4.81,4.08l-0.17,0.44l0.93,0.36l-0.01,0.03l-0.38,0.99l0.12-0.86
	l-0.75-0.28l-3.46,9.07l-238.07-100.15v0.01l-0.02,0.13l-0.25-0.05l0.31-1.5l0.15-0.13l0.16-0.14v-0.01l0.38-0.32l0.61-0.52
	l-1.24,2.05l-0.08,0.4l0.82-0.7l1.22-1.05l3.9,3.11l-0.58-1.74l-2.55-2.04l1.45-1.24l-0.19-0.57l0.24-0.08l0.16,0.47l1.25,3.75
	l1.22,0.97l0.14,0.12h0.08l-0.59,0.87l0.14,0.11l6.51,0.33l0.28,0.02l0.48,0.02l10.54-3.43l2.12-6.32l-0.41-6.48l0.42-3.2
	l-0.99-2.92l-4.26-6.5l-0.83-0.08l-0.97-10.98l-1.77-4.64v-6.23l-2.86-3.28v-9.61l-4.85,12.68h-2.06l-2.2,4.38l-1.49-6.46
	l-3.15,1.29l0.57-4.28l-4.61-19.34l-2.75,4.21l-3.51-7.82h-3.05l-6.76-19.75v14.5l-4.2,5.4v10.2l-2.61,7.64l-0.43,5.41l-0.64-2.14
	l-0.25,0.2l-24.73,13.27l-9.28-11.52l-10.25-1.55l-9.18,9.34l-8-4.51l-9.95,2.11l-6.58,9.24l-15.89,7.08l-3.51,24.59l0.07,0.4
	l0.96-0.33l0.04,0.25l0.11,0.6h0.01l0.03,0.2l0.03,0.13l-1.15-0.73l6.15,33.02l1.65-0.61h6.08l-7.72,0.69l0.06,0.31h13.79l9.05,6.62
	l-1.15-2.07l0.48,0.34v0.01l1.15,2.08l9.18,6.72l0.05-0.06l2.8,5.96l2.8,19.77l4.69,8.42l12.01,5.3l3.64,2.7l-3.82,4.08
	l-10.79,29.84l-3.13-4.77l-0.83-0.08l-0.97-10.99l-1.77-4.63v-6.23l-2.86-3.28v-9.61l-4.85,12.68h-2.06l-2.32,4.62l-1.92-2.61
	l-3.23,12.11l0.35,2.34l-2.04-0.75l-1.94,7.53l0.01,0.01l0.52,0.4l0.48-0.32l-0.09,0.36l-0.06,0.23l-0.04,0.17l-0.14,0.22l-0.7-0.99
	l-0.09,0.36l-1.97,3.13v3.26l-1.48,5.99l1.47,5.47l0.06,0.05h-45.75l1.07-7.12l-7.93-2.01l-0.38-1.75l-11.88-3.66l-0.62-3.72
	l-6.3,3.2v-0.02l-10.4-3.04l-4.47,2.11l-3.26,7.54l-11.44,4.35l0.59,8.1l-20.01,1.68l-6.04,3.7l-22.03,3.84l-13.22,7.74h-0.02
	l-2.6,8.97l-8.73,7.47l-6.15,15.63v2.07l7.88,28.39l7.65,1.54l10.58,12.33h12.59l1.34-1.37l0.48,0.17l1.3-0.7l5.52,8.9l20.13,8.12
	l30.71,34.49l16.32,2.84l5.5-4.49l15.19,27.36l14.88-11.73l11.46,9.84l14.47,17.01l8.51-9.26l8.65-24.57l17.27-20.82l17.24,24.74
	l10.87,3.1l11.83-27.32l26.87,2.15l2-6.76l20.54,12.56l35.05-40.5l17.38-13.63l6.91-24.7h1.63l4.45,2.44l0.11,0.06l0.74,0.41
	l10.98-29.39l-0.36-21.02l-6.01-5.04l-34.27-4.23l-25.45-0.46l-17.05-3.05h-17.68v0.02l-1.05-0.57l-2.79-6.14l-3.89-2.71
	l-19.97,6.02l1.05,1.97l-24.98-0.67l13.03-37.46l11.27-13.32l0.31-23.37l-8.34-15.98l-0.32-7.39l0.02,0.02l8.56-8.98l11.48-8.9
	l22.52-3.65l1.47-3.81l-3.21-6.13l-0.89,0.46l3.01,5.73l-0.23,0.59l0.03,0.08l-0.06,0.02h-0.01l0.04-0.1l-0.04-0.16l-19.36,5.43
	l2.2-0.36l-0.06,0.02l-2.14,0.34l-0.03,0.01l-2.18,0.35l-0.74,0.12l-1.1,0.62l-0.31,0.03l0.68-0.53l0.73-0.12l0.02-0.01l0.72-0.11
	l19.25-10.77l-0.1-0.22l-3.58,1.24l5.22-4.47l238.62,100.38l-0.46,1.19l-0.22,0.19l0.24-0.05l0.2,0.97v0.01l-0.21,0.17l-0.23-1.1
	l-13.65,11.23l-21.9,1.02l-29.22,6.1l-38.77,11.82l0.23,0.3h0.01l3.26-0.33l-1.2,0.37h-0.01l-0.6,0.19h-0.02l0.22,0.28l14.17,18.56
	l0.55,0.31l0.42,0.23l17.68,9.89l1.59-0.4v-0.15h0.25v0.09l10.18-2.55l1.5,0.02h0.02l1.11,0.02l-2.53,0.54l0.26,0.42l2.82,0.05
	l0.16-0.42l0.23,0.09l-0.13,0.33l8.06,0.13l-14.18,7.57l-0.49-0.24v4.81l5.58,6.6l0.59-0.84l0.17,0.19v0.01l0.21,0.25l0.44,0.13
	h0.02l0.54,0.17l-1.8,0.29l0.23,0.28l48.93,14.74l-11.34,18.7l4.37,16.57l7.88,11.31l3.77-10.38l8.84-14.8l11.17-10.5l-1.17-0.14
	l0.02-0.15l0.01-0.1l0.08,0.01l1.29,0.16l-0.23,0.22l16.58,1.99l-1.25-0.4l2.26,0.27l-0.03,0.25l-0.97-0.12l5.06,1.62l25.67,2.14
	l29.38-8.18l28.26,12.01l1.27,7.07l5.78,5.21l-3.87-10.93l12.72,5.41l14.53,8.53l0.36,0.34v-1.29l0.25,0.15v1.3h-0.09l8.01,7.72
	l0.01,0.01l0.12,0.12l0.43,0.41l16.2,9.81L594.878,409.73z"/>
<g>
	<path fill="#ABFF4F" d="M-8.495,412.087L-8.495,412.087z M373.038,309.37l1.769-2.703l1.057,3.828L373.038,309.37z
		 M374.995,305.467l-0.482,0.133L374.995,305.467z M374.577,305.194l-3.046,4.651l5.832,2.323l-2.18-7.901L374.577,305.194z
		 M432.281,390.359l-7.7,12.899l-3.147,8.66l-6.446-9.246L432.281,390.359z M552.65,394.525l-1.092-6.085l0.826,0.351l2.864,8.075
		L552.65,394.525z M-34.168,383.569l1.584,8.287l-7.302,0.12L-34.168,383.569z M225.775,368.857l10.476-0.936l-17.089,19.115
		l-6.108-0.449L225.775,368.857z M410.537,386.349L421.8,367.79l15.833,4.77l9.405,3.01l-13.425,12.614l-19.019,13.54
		L410.537,386.349z M-55.225,398.638l5.853-39.717l5.323,23.775l-6.743,14.589l-3.277,1.764L-55.225,398.638z M-94.244,358.389
		L-94.244,358.389h-0.001H-94.244z M542.392,357.439l3.044,10.05l-4.133-4.383L542.392,357.439z M-86.362,357.251l4.615,28.532
		l1.712,1.995l-5.785-1.162l-7.862-28.308L-86.362,357.251z M127.705,370.253l15.761-13.404l7.626,14.598l0.233,2.452l8.635,17.053
		l7.339,4.234l17.5-16.236l12.52,8.185l-15.311,51.603l-26.774-2.139l-11.762,27.167l-9.684-2.754l-17.79-25.53l-18.226,21.97
		l-8.638,24.54l-7.605,8.278l-13.791-16.202l-11.366-9.771l42.539-33.521l-0.619-0.786l-57.305,45.157l-27.019-48.694
		l-21.894-15.186l-0.569,0.821l21.701,15.055l11.803,21.27l-5.294,4.316L4.192,450.03l-30.637-34.408l-20.042-8.09l-5.318-8.566
		l1.781-0.958l6.335-13.706l1.935,8.644l-0.042,0.062l9.403-0.156l1.61,8.422l16.834,2.071l4.112-23.922l7.708-13.453l3.919,10.101
		l31.762,34.364l17.941-49.396l7.608,6.436l6.661,34.976l10.922,8.111l20.362-23.666l11.448,6.14L127.705,370.253z M546.114,353.664
		l1.64,15.757l0.762,8.612l-14.539-8.291l6.75-5.789l6.898,7.314l-4.75-15.682L546.114,353.664z M551.038,350.742v16.471
		l0.607,12.604l-2.072-1.181l-0.823-9.303l-1.688-16.232L551.038,350.742z M249.881,349.766l3.593,17.007h10.106l-6.751,24.11
		l-17.194,13.492l-34.553,39.935l-20.045-12.264l13.155-44.341l9.57,6.256l4.609-6.423l7.209,0.531l22.187-24.82v-2.886
		L249.881,349.766z M490.771,363.441l-2.49-18.036l11.4-3.212l16.073,5.466l11.905,19.707l5.183,2.881l40.749,23.235l20.599,16.984
		l6.32,6.764l-9.923-6.007l-9.087-8.763l-14.689-8.622L522.269,374.9l-0.015,0.005L490.771,363.441z M382.629,333.567l13.411,0.216
		l-25.364,9.471l-3.193-1.599L382.629,333.567z M544.658,330.691L544.658,330.691L544.658,330.691z M-76.266,325.922l6.13-0.13
		l-8.098,6.931L-76.266,325.922z M86.369,305.002l5.106,3.922l5.378,4.116l0.156,0.007l0.025-0.499l-0.025,0.499l7.107,0.365
		l10.545-3.431l0.768-2.291l13.02,1.405l1.284-3.689l25.861,0.685l4.509,8.473l13.093,1.114l12.411,2.326l1.939-1.047l-0.004-0.301
		l-0.081-6.996l-3.957-2.164h15.795l17.045,3.039l25.472,0.469l33.926,4.187l5.434,4.553l0.345,20.371l-10.508,28.131l-4.511-2.473
		h-12.217l-3.603-17.053l7.857-10.261l-0.794-0.608l-16.373,21.382l-16.154-34.765l-27.248-3.922l-0.142,0.99h-0.001l26.713,3.845
		l16.228,34.924v2.562l-3.54,3.96l-11.999,1.073l-17.721,24.701l-22.816-14.918l-17.533,16.267l-6.441-3.716l-8.415-16.62
		l-0.234-2.458l-7.822-14.973l3.266-2.777l-2.119-13.648l-0.988,0.154l2.033,13.094l-19.445,16.538l-18.742,22.228l-11.441-6.136
		l-20.277,23.568l-9.863-7.323l-6.654-34.94l-8.974-7.594l-17.87,49.204l-30.52-33.018l-4.608-11.879l-8.836,15.425l-3.983,23.157
		l-15.164-1.866l-3.7-19.357l-7.345,10.799l-8.591-38.375l-6.761,45.868l0.832,0.296l-0.72,0.741h-11.705l-12.876-14.997
		l-4.728-29.224l-8.003,1.155l6.023-15.295l8.733-7.475l0.027,0.008l0.011-0.04l10.441-8.937l-0.63-0.736v-0.035l-6.017,0.128
		l11.518-6.742l22.038-3.84l5.994-3.671l20.716-1.74l2.713,2.347l32.348-1.763l8.747,0.48l1.941-2.308l7.647-2.655H86.369z
		 M550.071,306.28l4.109-7.26l-2.42,38.706l-7.044-7.297L550.071,306.28z M173.331,314.685l-12.6-1.071l-5.269-9.9l18.337-5.522
		l3.269,2.277l2.815,6.185l6.586,3.602l0.069,6.109l-1.094,0.592L173.331,314.685z M-14.734,307.534l-0.503-6.984l11.137-4.23
		l3.279-7.58l3.785-1.788l9.033,2.636L7.6,291.82l0.453,0.891l10.758-5.46l1.212,7.278l0.986-0.164l-0.632-3.801l10.846,3.34
		l0.393,1.79l7.646,1.932l-0.972,6.465l-7.811,2.713l-1.795,2.135l-8.304-0.456l-31.999,1.745L-14.734,307.534z M338.395,324.931
		l-14.385-18.835l37.344-11.388l29.103-6.069l38.503-1.804l15.037,3.219l3.616,16.047l16.994-2.276l1.844-6.968l-2.405-6.346
		l28.872,5.712l30.541,13.624l34.429,35.668l-16.053,9.525l-1.529,7.957l-7.255,6.222l-4.674-2.598l-11.956-19.792l-16.712-5.683
		l-12.538,3.531l2.692,19.497l30.735,11.192l-27.879,7.768l-25.372-2.116l-29.416-9.413l-65.479-19.727l-5.558-6.574v-2.825
		l3.724,1.864l30.731-11.474l-18.586-0.3l-0.086-0.161l-0.29,0.154l-13.317-0.215l-12.022,3.01L338.395,324.931z M434.161,275.099
		l2.725,1.052l-0.072,3.602l-3.032-0.823l0.178-1.803l1.747,0.734l0.387-0.922l-2.03-0.854L434.161,275.099z M433.728,274.396
		l-0.18,0.466L433.728,274.396z M501.829,262.781l7.671,39.745l-16.278-7.261l-7.143-1.414L501.829,262.781z M431.47,263.915
		l4.336-3.677h6.451l18.509,5.783l2.001,23.936l2.634,6.955l-1.59,6.01l-15.424,2.066l-3.555-15.778l-15.791-3.38l-0.065,0.003
		l-15.079,0.706l13.041-10.73l0.537-1.41l5.52,2.322l-0.293,2.951l5.086,1.383l0.112-5.586l-4.604-1.776l-0.065,0.653l-0.132,1.333
		l-5.267-2.216L431.47,263.915z M507.315,257.721l-1.153,22.235l-3.57-18.5L507.315,257.721z M98.811,263.422h2.132l3.163-8.269
		v4.571l2.86,3.279v6.042l1.785,4.677l1.034,11.663l1.179,0.125l3.93,5.99l0.87,2.581l-0.4,3.068l0.406,6.38l-1.898,5.656
		l-9.89,3.219l-6.768-0.347l-5.131-3.927h0.001l-5.23-4.017v-0.111h-0.145l-0.827-0.635l-1.314-4.897l1.452-5.859v-3.092
		l1.897-3.012l1.813-7.053l2.592,0.945l-0.574-3.799l2.64-9.893l1.643,2.251L98.811,263.422z M116.893,237.182l-2.016-18.44
		l9.93,3.819l5.113-1.28l0.859,7.57l8.428,11.426l-1.299,4.426L116.893,237.182z M129.79,211.275l3.543-7.076l1.653-7.823
		l3.997-0.534l5.992,9.9l0.281,6.447l-4.949-9.478l-0.886,0.462l5.937,11.371l0.001,0.033l0.016-0.001l8.312,15.921l-0.308,22.767
		l-11.153,13.184l-14.46,41.568l-12.012-1.295l1.027-3.06l-0.413-6.477l0.418-3.203l-0.984-2.922l-0.448-0.683l10.971-30.346
		l9.769-10.429l-0.73-0.683l-5.396,5.76l-3.825-2.833l-11.809-5.215l-4.427-7.957l-2.801-19.742l-9.924-21.124l4.09-0.857
		l11.991,16.235l2.704,24.729l22.603,8.088l1.737-5.92l-8.565-11.608l-1.312-11.557l0.208-0.225l-0.261-0.242L129.79,211.275z
		 M117.932,118.904l9.364,1.414l9.558,11.863l20.447-10.969l-21.065,16.576l-14.565-3.131l-12.368-6.965L117.932,118.904z
		 M197.532,125.203h2.132l3.163-8.27v4.571l2.859,3.28v6.043l1.786,4.677l1.034,11.663l1.179,0.122l3.93,5.991l0.871,2.581
		l-0.403,3.069l0.408,6.379l-1.899,5.658l-9.889,3.218l-6.763-0.346l-4.269-3.413l7.451-6.403l2.111-8.805l-0.281-1.269v0.001
		l-1.893-8.547v-5.302l-2.872-5.104l-1.32-5.745l0.504,0.253L197.532,125.203z M164.141,114.379l2.622-7.684V96.681l4.207-5.4
		v-8.837l5.042,14.739h3.118l3.996,8.902l2.48-3.8l4.03,16.896l-0.785,5.816l3.667-1.499l2.727,11.866l2.814,5v5.15l1.917,8.653
		l0.489-0.108l0.487-0.108l-0.487,0.108l-0.489,0.108l0.231,1.043l-1.982,8.266l-9.203,7.908h0.001l-1.27,1.087l-10.929-4.598
		l-0.388,0.922l10.467,4.403l-5.485,4.694l-10.053,0.578l-14.702-5.352l-2.86-9.536l0.6-10.536l-0.595-5.103l1.316-4.373
		l5.873-10.012l1.638-0.194l0.878-11.074l0.015-0.004l-0.011-0.038L164.141,114.379z M169.97,90.936l-4.207,5.4v10.192l-2.61,7.646
		l-0.429,5.412l-0.637-2.141l-0.253,0.2l-24.722,13.263l-9.282-11.521l-10.254-1.548l-9.175,9.344l-8.006-4.509l-9.951,2.107
		l-6.573,9.245l-15.893,7.072l-3.514,24.596l6.319,33.927h13.798l18.709,13.7l0.046-0.063l2.801,5.961l2.805,19.777l4.681,8.412
		l12.014,5.307l3.643,2.697l-3.825,4.083l-10.787,29.835l-3.128-4.765l-0.831-0.088l-0.974-10.981l-1.769-4.635v-6.232l-2.86-3.281
		v-9.609l-4.851,12.683h-2.062l-2.32,4.622l-1.912-2.617l-3.233,12.116l0.353,2.338l-2.043-0.746l-2.051,7.97l-1.967,3.126v3.257
		l-1.484,5.992l1.468,5.473l0.063,0.049H39.315l1.071-7.123l-7.926-2.003l-0.385-1.756l-11.881-3.658l-0.619-3.719l-6.3,3.197
		l0.005-0.018l-10.4-3.036l-4.469,2.11l-3.261,7.54l-11.439,4.344l0.585,8.104l-20.013,1.681l-6.034,3.694l-22.027,3.839
		l-13.223,7.739l-0.021,0.001l-2.597,8.97l-8.733,7.475l-6.152,15.625v2.077l7.885,28.39l7.643,1.535l10.588,12.331h12.587
		l1.334-1.372l0.481,0.171l1.299-0.699l5.522,8.896l20.129,8.124l30.712,34.494l16.317,2.836l5.509-4.491l15.181,27.359
		l14.889-11.732l11.455,9.848L81.5,491.779l8.509-9.261l8.646-24.565l17.274-20.821l17.243,24.744l10.87,3.092l11.826-27.315
		l26.868,2.146l2.006-6.76l20.54,12.568l35.046-40.503l17.376-13.635l6.914-24.695h1.628l5.3,2.906l10.979-29.392l-0.357-21.017
		l-6.011-5.035l-34.271-4.23l-25.445-0.468l-17.054-3.041H181.71v0.018l-1.055-0.577l-2.789-6.132l-3.893-2.711l-19.966,6.014
		l1.047,1.969l-24.977-0.661l13.032-37.464l11.266-13.317l0.316-23.377l-8.343-15.977l-0.321-7.39l0.019,0.019l8.557-8.976
		l11.489-8.901l22.52-3.65l1.47-3.812l-3.216-6.13l-0.886,0.465l3.006,5.728l-1.101,2.853l-22.204,3.6l-11.75,9.103l-7.963,8.354
		l-0.005-0.103l-6.463-10.678l-5.346,0.714l-1.773,8.388l-3.618,7.227l0.49,4.316l-3.813-3.532l-7.087-1.245l-2.456-26.979
		l-0.995,0.092h-0.001l2.526,27.74l7.549,1.326l4.45,4.121l0.38,3.348l-4.935,1.234l-10.117-3.889l-0.526-4.817l-12.534-16.969
		l-5.954,1.248l6.779,14.431l-17.612-12.896H71.613l-6.137-32.948l3.414-23.886l15.638-6.959l6.506-9.149l9.2-1.948l21.078,11.871
		l15.174,3.262l25.063-19.723l0.956,3.212l-0.802,10.113l-1.07,0.127l-0.247,0.03l-6.185,10.544l-1.411,4.685l0.609,5.221
		l-0.605,10.627l3.055,10.185l15.367,5.594l10.596-0.609l6.122-5.239l238.619,100.38l-0.455,1.194l-13.871,11.413l-21.897,1.026
		l-29.223,6.094l-38.765,11.822l15.384,20.142l19.18,10.721l12.28-3.073l11.382,0.184l-14.182,7.572l-0.492-0.246v4.81l5.986,7.08
		l48.932,14.743l-11.349,18.701l4.371,16.57l7.881,11.308l3.773-10.383l8.836-14.802l13.804-12.969l19.023,6.087l25.663,2.141
		l29.385-8.188l28.259,12.014l1.268,7.067l5.783,5.21l-3.876-10.927l12.726,5.411l14.533,8.529l9.081,8.758l16.207,9.812
		l-11.304-12.097l-20.714-17.079l-21.487-12.252l-0.637-13.218V350.15l7.448-4.419l-6.785-7.029l2.749-43.953l-6.323,11.17
		l-5.243,23.649l-19.84-20.554l-13.429-5.99l-3.663-18.977l1.476-28.479l-6.05,4.782l-0.121-0.626L485.06,293.65l-21.334-4.221
		l-2.02-24.162l-19.297-6.028h-6.97l-4.812,4.08l-3.717,9.757L188.783,172.904l0.89-0.761l1.225-1.053l4.67,3.731l7.269,0.373
		l10.543-3.432l2.121-6.319l-0.413-6.479l0.419-3.203l-0.985-2.92l-4.261-6.496l-0.831-0.087l-0.974-10.98l-1.77-4.636v-6.231
		l-2.859-3.281v-9.61l-4.851,12.684h-2.061l-2.202,4.383l-1.484-6.46l-3.156,1.29l0.579-4.288l-4.613-19.338l-2.751,4.214
		l-3.511-7.822h-3.051l-6.756-19.751V90.936z"/>
	<g>
		<path fill="#ABFF4F" d="M117.589,119.253l-0.139,0.141l-5.902,9.562l0.218,0.123l5.863-9.497l18.496,12.607l-16.721,1.191
			l0.395,0.223l16.62-1.185l-8.67,3.545l0.433,0.093l8.284-3.386l-0.462,5.067l0.233,0.05l0.014-0.011l0.501-5.494l-0.176,0.072
			l-0.01-0.133l0.016-0.023l-0.018-0.013l-0.002-0.027l-0.035,0.002L117.589,119.253z M202.611,121.943l-2.347,4.494l-1.196-1.148
			l-0.173,0.18l1.266,1.215l-0.241,1.113l-2.651-2.072l-0.114,0.228l2.66,2.079l-3.82,4.072l-0.644-0.746l0.12,0.522l0.324,0.376
			l-0.212,0.116l0.059,0.253l0.211-0.116l-0.047,0.833l0.353,1.532l-0.038-2.239l3.311,3.849l1.727,10.434l-1.852-0.396l0.059,0.268
			l1.769,0.379l-0.093,0.205l0.001-0.001l-0.792,1.762l-0.446-0.366l0.087,0.395l0.264,0.216l-0.12,0.435l0.116,0.524l0.263-0.96
			l0.589-1.31l-0.305,1.672l5.898,4.42l-5.473,0.564l0.055,0.246l5.597-0.578l-1.183,6.739l-1.518,1.579l-3.434-5.022l-0.079,0.328
			l3.267,4.777l-4.464,0.215l-0.061,0.253l4.479-0.216l-4.259,5.185l-2.286-2.589l-0.19,0.163l2.322,2.629l-3.575,5.288l0.146,0.116
			l0.074,0.004l3.614-5.345l4.348-5.293l1.039,6.807l-2.385,4.17l0.072,0.004l0.262-0.085l2.262-3.952l2.217-0.405l3.949,1.614
			l0.368-0.12l-4.166-1.702l0.917-6.235l3.401,7.887l0.433-0.14l0.268-9.241l1.645,4.193l0.124-0.369l-1.716-4.372l0.283-0.123
			l-0.199-0.032l1.335-1.505l0.027-0.206l-0.029-0.462l0.357-2.727l-0.797-2.498l-0.075,0.024l-4.152-6.429l-1.891,0.432
			l-0.156-0.32l-0.002,0.032l-1.543-2.877l-1.352-4.124l3.078-3.491l-0.187-0.166l-3.046,3.454l-2.499-2.082l4.013-6.951
			l-0.018-0.047l-4.795,2.033l0.413-4.653l4.221-3.167l-0.15-0.2l-4.15,3.114l-0.913-1.646l2.392-4.582L202.611,121.943z
			 M200.145,127.936l0.204-0.943l0.696,1.255L200.145,127.936z M200.839,132.387l-0.682-4.182l1.023,0.354L200.839,132.387z
			 M196.159,132.295l3.758-4.006l0.833,5.104l-0.017,0.192l0.045-0.019l0.703,4.31l-1.844-1.537L196.159,132.295z M201.015,133.466
			l4.268-1.809l-3.557,6.164L201.015,133.466z M201.369,146.653l-1.641-9.913l1.814,1.512l0.049,0.301l0.102-0.175l2.486,2.071
			L201.369,146.653z M201.583,146.784l2.73-6.026l1.246,3.799L201.583,146.784z M201.425,147.16l4.235-2.372l1.613,3.009
			l-6.279,1.717L201.425,147.16z M207.638,147.963l1.664-0.381l4.021,6.227l-2.559,0.581L207.638,147.963z M201.115,149.74
			l6.203-1.696l-0.496,5.973L201.115,149.74z M207.062,154.137l0.482-5.797l2.943,6.053L207.062,154.137z M210.767,154.646
			l2.718-0.617l0.72,2.258l-4.621-0.061L210.767,154.646z M205.923,160.697l1.108-6.312l3.427,0.257l-1.183,1.579l-0.092-0.001
			l0.019,0.098L205.923,160.697z M211.513,160.905l-1.181-0.189l-0.844-4.242l4.747,0.063l-0.386,2.952l-1.301,1.467l-0.149-0.38
			l-0.014,0.469L211.513,160.905z M205.909,161.133l3.359-4.485l0.827,4.16l-0.819,1.6L205.909,161.133z M209.606,162.311
			l0.691-1.347l1.767,0.283L209.606,162.311z M205.496,161.685l0.257-0.344l3.203,1.214l-0.541,0.172l-0.132,0.042l0.041,0.094
			l-0.977,6.644l-2.096,0.382l-1.059-6.939l1.323-1.376L205.496,161.685z M209.805,162.498l2.571-1.114l-0.266,9.183
			L209.805,162.498z M209.378,162.683l0.202-0.064l2.137,7.482l-3.095-7.178l0.466-0.148l-0.022,0.043L209.378,162.683z
			 M100.227,124.166l-0.179,0.174l11.778,12.168l-20.873-10.717l-0.146,0.206v0.001l20.438,10.493l-8.915-2.554l-11.539-7.917
			l-0.255,0.359l1.96,20.068l-8.632-11.323l-0.235,0.104l8.931,11.716l-19.147,4.567l-0.108-0.251l-4.557-8.477l-0.06,0.417
			l4.391,8.168l0.109,0.253l-7.433,12.104l-0.089,0.623l7.644-12.447l4.204,9.72l-12.02,4.144l0.046,0.249l12.102-4.173
			l21.961,26.238L65.651,166.61l0.063,0.335l33.935,21.459l-29.876,0.335l0.047,0.25l29.593-0.332l-27.049,9.964h0.723l27.003-9.947
			l13.56,6.532l-11.649,1.048l0.174,0.235l11.794-1.06l-3.407,12.415l0.189,0.256l3.363-12.258l1.929,9.997l-4.873,2.828
			l0.149,0.202l4.774-2.77l0.761,3.943l-4.886-0.294l0.193,0.262l4.741,0.285l0.279,1.444l0.245-0.048l-1.104-5.725l0.325-0.189
			l-0.125-0.216l-0.25,0.145l-2.011-10.426l0.821-9.549l-0.159-1.742l-13.479-6.486l9.046-16.822l15.236,15.809l-10.111,7.188
			l0.282-0.025l0.011,0.124l9.976-7.092l6.539,9.77l-16.476-2.256l0.023,0.255l16.507,2.261l-14.152,23.605l0.029,0.311l0.069,0.012
			l14.185-23.66l1.311,9.139l0.102-0.015l0.089-0.419l-1.279-8.908l15.082,3.486l-6.856,7.07l0.134,0.222l6.696-6.907l-3.626,11.979
			l0.175,0.288l3.816-12.607l16.374-1.407l0.364-0.282l-15.843,1.362l31.873-11.035l-0.019-0.032l-0.784,0.045l-31.944,11.06
			l-0.607-11.318l13.596-1.999l-0.036-0.248l-13.075,1.923l7.097-4.436l-0.132-0.212l-7.206,4.504l6.301-9.815l-0.003-0.009
			l-0.204-0.131l-6.532,10.174l-9.593-8.554l14.299-5.285l-0.086-0.234h-0.001l-14.375,5.313l1.552-17.532l13.483,7.123l0.116-0.221
			l-13.227-6.988l13.388-2.19l-0.029-0.249l-13.355,2.186l16.135-11.348l0.305-0.52l-16.849,11.85l-3.009-12.786l-0.142-0.032
			l23.087-4.295l0.168-0.286l-22.514,4.189l-0.339,0.267l-0.574-0.123l-0.019,0.206l-15.385-3.436l12.593,19.006l-20.567-17.635
			L100.227,124.166z M92.775,146.739l-1.994-20.423l11.317,7.765L92.775,146.739z M110.39,159.819l-7.926-25.584l9.847,2.822
			L110.39,159.819z M92.884,147.012l9.345-12.688l7.997,25.812L92.884,147.012z M121.063,135.894l-0.004-0.005l0.007,0.001
			L121.063,135.894z M133.77,155.073l-12.665-19.116l17.788,15.989l-0.027,0.005l0.078,0.041l0.002,0.002L133.77,155.073z
			 M138.943,151.655l-17.427-15.664l14.503,3.239L138.943,151.655z M110.595,160.363l1.937-22.956l17.9,25.873L110.595,160.363z
			 M130.665,163.176l-17.722-25.615l20.641,17.698L130.665,163.176z M77.866,161.513l14.854-14.312l0.085,0.064l0.025,0.033
			l-0.002-0.015l17.278,13.075l-32.343,1.209l-4.249-9.823l18.78-4.479l-14.601,14.068L77.866,161.513 M133.824,155.332l4.862-2.893
			l-7.567,10.228L133.824,155.332z M130.866,163.429l8.126-10.983l-1.513,17.092L130.866,163.429z M78.073,161.806l32.174-1.203
			l-9.013,16.763L78.073,161.806z M125.868,176.277l-15.063-15.63l19.724,2.899L125.868,176.277z M100.026,188.196l-21.683-25.907
			l22.822,15.332L100.026,188.196z M126.153,176.227l4.599-12.563l6.653,6.146l-0.461,0.17L126.153,176.227z M126.095,176.55
			l10.956-6.343l0.563-0.208l9.667,8.62l-14.559,7.834L126.095,176.55z M100.26,188.357l1.141-10.597l13.337,6.418L100.26,188.357z
			 M133.033,186.57l14.389-7.743l0.601,11.208L133.033,186.57z M100.441,188.566l14.506-4.188l-0.922,10.731L100.441,188.566z
			 M193.675,129.419l-0.189,0.163l0.586,0.679l-0.12-0.522L193.675,129.419z M194.673,132.872l-0.113,0.062l0.12,0.219l0.051-0.028
			L194.673,132.872z M194.68,133.153L194.68,133.153z M117.749,133.595l0.011,0.153l0.23-0.016L117.749,133.595z M195.652,136.086
			l-0.042,0.753l0.25,0.014l0.02-0.362L195.652,136.086z M195.938,136.593l0.014,0.862l0.25-0.004l-0.007-0.4L195.938,136.593z
			 M126.399,136.695l0.031,0.077l0.112-0.046L126.399,136.695z M198.561,147.779l-0.143,0.175l0.222,0.183L198.561,147.779z
			 M199.47,151.882l-0.107,0.39l0.206,0.057L199.47,151.882z M199.363,152.272l-0.128,0.467l0.241,0.066l0.11-0.4l-0.017-0.076
			L199.363,152.272z M200.123,154.828l-0.064,0.007l0.026,0.249l0.092-0.01L200.123,154.828z M77.866,161.513L77.866,161.513
			L77.866,161.513 M64.538,166.095l-0.109,0.038l0.132,0.083L64.538,166.095z M193.327,169.003l-0.205,0.175l1.094,3.282
			l0.359,0.287L193.327,169.003z M194.797,174.205l0.321,0.963l0.311-0.459l-0.196-0.156l-0.038,0.055l-0.038-0.116L194.797,174.205
			z M202.074,175.154l-0.018,0.031l0.217,0.124l0.081-0.14L202.074,175.154z M186.299,176.857l-3.583,1.24l-0.52,0.445l2.85-0.987
			l-3.633,2.032l-0.002,0.008l-0.003-0.005l-14.977,8.376l0.72-0.117l19.25-10.765L186.299,176.857z M188.716,182.065l-19.36,5.426
			l2.198-0.356l17.167-4.812l0.039-0.102L188.716,182.065z M138.84,195.86l-0.251,0.034l-0.119,4.727l-3.599-3.7l-0.062,0.295
			l3.652,3.755l-0.518,20.522l-4.836-16.842l-0.166,0.331l4.974,17.319l-6.211,5.826l0.035,0.31l6.276-5.888l5.643,13.042
			l-11.281-6.259l0.357,0.484l10.919,6.059l-3.775,3.626l0.15,0.203l3.801-3.651l1.583,7.255l-5.269-2.667l-0.072,0.244l5.204,2.633
			l-6.431,1.548l-0.081,0.277l6.079-1.463l-8.97,5.512l0.189,0.178l8.953-5.503l-10.888,13.796l-0.027,0.078l-0.227-0.151
			l-7.146,1.811l-0.316,0.338l7.416-1.88l0.188,0.125L120.4,297.178l-3.802-1.755l-0.034,0.26l3.793,1.75l1.174,9.91l0.255,0.027
			l-1.186-10.007l13.628-39.036l5.769,3.846l-16.129,45.422l0.256,0.028l16.037-45.165l1.95,4.317l0.114-0.328l0.008-0.009
			l-1.943-4.303l12.209-18.022l-9.874,21.861l0.589-0.695l10.107-22.379l0.029-0.044l-0.004-0.012l0.068-0.151l-0.117,0.011
			l-13.358-38.066l-0.082-0.631l-0.197-0.376l-0.103,0.013l0.007,0.054l-0.195,0.068l0.325,0.928l3.97,30.281l-5.491-12.689
			L138.84,195.86z M144.026,235.812l-3.929-29.97l12.944,36.887l-7.343,0.712l-1.66-7.6L144.026,235.812z M145.623,243.7
			l7.336-0.712l-12.845,18.962l-5.801-3.866l0.035-0.099L145.623,243.7z M97.995,196.614l-22.331,2.007h2.787l17.45-1.568
			L97.995,196.614z M101.296,197.364l-0.217,0.125l6.283,10.934l-0.7,9.563l0.217,0.462l0.684-9.356l3.339,11.322l-3.738-1.072
			l0.039,0.271l3.721,1.067l-1.352,15.638l0.156,1.1l1.338-15.466l1.567,17.604l-0.016-0.005l0.002,0.014l-2.54-0.583l0.163,0.294
			l2.423,0.556l0.924,5.459l0.364,0.655l-1.009-5.964l9.92,6.209l2.491,5.305l0.348,0.154l-2.107-4.489l4.688,6.269l0.7,0.519
			l-5.909-7.901l-0.996-3.342l12.629,6.912l0.176-0.189l-12.188-6.671l14.709,3.222l-1.984,2.989l0.185,0.174l2.254-3.395
			l-0.243-0.087l-0.064,0.096l-15.629-3.424l-6.127-4.306l-2.915,1.505l-1.581-17.749l4.645,15.935l-0.156-1.428l-4.603-15.791
			v-0.001l-0.024-0.08l-0.167-0.574v0.005l-3.236-10.975l5.241,4.742l0.168-0.186l-5.545-5.016l-0.021-0.073L101.296,197.364z
			 M113.106,239.697l2.672-1.378l5.393,3.791L113.106,239.697z M122.747,245.823l-9.123-5.71l8.148,2.437L122.747,245.823z
			 M95.686,197.467l-10.271,1.526l0.287,0.21l3.73-0.554l3.05,5.519l0.48,0.351l-3.234-5.853l8.908,5.206l0.126-0.216l-8.723-5.097
			l5.684-0.844L95.686,197.467z M98.452,197.54l-0.249,0.052l5.426,13.938l1.566,3.334L98.452,197.54z M70.71,199.231l-0.311,0.114
			l0.327-0.029L70.71,199.231z M132.065,204.497l-13.205,6.223l0.427,0.075l12.56-5.919l-0.243,0.541L132.065,204.497z
			 M93.632,206.249l0.486,0.879l0.219-0.12l-0.225-0.408L93.632,206.249z M129.995,208.631l-4.504,3.293l0.187,0.173l4.072-2.978
			L129.995,208.631z M110.226,209.071l-0.141,0.514l0.364-0.211L110.226,209.071z M110.604,209.665l-0.005,0.08l-0.097-0.049
			l0.093,0.119l-0.006,0.1l0.088,0.005l2.417,3.096l0.052,0.009l-2.479-3.356L110.604,209.665z M112.789,210.859l0.331,0.449
			l4.362,2.218l-3.238-0.563l0.029,0.258l3.952,0.689l5.217,7.054l0.435,0.167l-5.404-7.307l2.949-1.434l-0.108-0.223l-0.002-0.001
			l-3.044,1.48L112.789,210.859z M117.608,211.515l-0.059,0.099l0.168-0.079L117.608,211.515z M126.745,214.815l-2.154,6.591
			l0.233,0.09l2.159-6.603L126.745,214.815z M139.151,240.199l-0.15,0.144l0.163,0.083l0.044-0.15L139.151,240.199z
			 M435.571,260.437l-0.225,0.191l19.267,6.128l-4.14,4.733l-19.082-7.364l-0.388,1.017l-1.195,9.153l0.238,0.1l1.309-10.016
			l18.994,7.33l-6.532,17.284l0.247,0.053l6.321-16.726v15.87l-6.007,0.923l0.454,0.097l0.019,0.083l5.572-0.856l2.725,8.6
			l-4.941,7.149l0.074,0.332l5.07-7.335h11.869v-0.25h-11.842l-2.689-8.484l12.124,1.752l-12.147-18.553l4.223-4.828h5.714v-0.25
			h-5.75L435.571,260.437z M462.3,289.874l-11.665-1.685v-16.133L462.3,289.874z M430.427,263.752l-0.09,0.234l0.032,0.012
			l0.089-0.233L430.427,263.752z M436.4,271.975l-4.145,1.104l0.065,0.242l4.088-1.09l4.684,0.931l-3.371,2.1l0.113,0.182
			l0.042,0.016l3.885-2.42L436.4,271.975z M441.748,273.185l-1.396,11.096l-3.271-3.084l-0.172,0.182l3.028,2.854l-5.289-1.824
			l-3.06-2.124l-0.142,0.206h-0.001l3.089,2.143l5.845,2.016l0.16,0.151l1.457-11.585L441.748,273.185z M432.32,273.321
			L432.32,273.321z M429.674,275.323l-1.367,10.462l-1.985-9.469l-0.218,0.179l1.966,9.38l0.48-0.022l1.362-10.429L429.674,275.323z
			 M120.597,275.873l-0.956,2.645l-3.541,13.425l0.134,0.399l0.018,0.005L120.597,275.873z M98.017,283.542l-0.125,0.332
			l0.147-0.102l-0.004-0.215L98.017,283.542z M98.192,283.971l-0.025,0.017l3.843,3.154l-1.506,5.491l-4.158-3.71l-0.018,0.196
			l-0.156-0.016l4.172,3.721h0.22l0.04-0.185l0.031,0.045l0.382-0.976l1.239-4.519l-0.125-0.056l0.017-0.038l-0.117-0.032
			l0.117,0.032l0.054-0.119l-3.54-2.904L98.192,283.971z M98.098,284.035l-0.362,0.25l-1.275,3.366l-0.084,0.929L98.098,284.035z
			 M86.921,285.512l0.161,0.228l0.021-0.083L86.921,285.512z M87.96,286.338l-0.043,0.169l-0.14,0.221l2.455,3.487l-4.212,2.304
			v0.091l-0.056,0.224l4.633-2.535l-2.471-3.511l2.01,1.599l1.872,3.567l-0.447,3.942l-1.954,4.586h-1.576l1.763-3.646l-0.348,0.146
			l-1.717,3.55l-0.601,0.566l-0.022-0.032l-0.095,0.142l-0.125,0.117l0.035,0.016l-1.13,1.685l0.086,0.32l1.23-1.833l3.925,5.81
			l0.627,0.482l-4.199-6.216l3.119,1.434l1.096,4.794l0.311,0.239l-1.121-4.902l0.666,0.306l-0.632-0.514l2.307-1.495l-0.062-0.188
			l0.577-0.029l5.28-2.009l0.228-0.204l0.04-0.185l-5.703-5.762h-0.351l5.813,5.874l-5.815,2.212l-3.348-0.646l1.941-4.553
			l0.459-4.055l-0.774-1.476l-1.345-2.079l-0.023,0.012l0.023-0.012l-0.07-0.108l0.192,0.019l0.044-0.054L87.96,286.338z
			 M88.182,300.732h1.495l3.219,0.621l-2.201,1.427L88.182,300.732z M89.846,302.41l-2.519-1.157l0.511-0.48L89.846,302.41z
			 M428.418,286.86l-0.14,0.007l0.086,0.408L428.418,286.86z M18.812,287.251l-0.184,0.094l-0.046,0.132l-0.088-0.064l-0.173,0.087
			L5.856,304.666l-7.24,4.935L7.945,292.5l-0.154-0.304l-0.028,0.021l-8.502-3.516l-0.082,0.039l-0.318,0.735l-0.52,9.488
			l-2.492-2.622l-0.254,0.096l2.69,2.83l-13.405,1.239l-0.117,0.044l0.038,0.526l12.918,8.643l1.269-0.069l6.89-4.697l1.416,4.244
			l0.259-0.014l-1.425-4.272l13.575,2.119l1.295,1.487l0.348,0.019l-1.222-1.404l6.123,1.673l1.187,0.066l-7.446-2.035l2.604-3.31
			l0.022,0.015l0.009-0.019l7.574,3.616l0.282-0.335l0.509-0.177l8.238-8.757l0.036-0.242l-0.122-0.031l-8.376,8.904l4.108-9.802
			l-0.23-0.097l-4.258,10.159l-4.141-10.242l5.44-0.756l-0.007-0.053l-0.06-0.015l-0.037-0.17l-5.499,0.764l-5.3-1.885l-0.394,0.066
			l-0.019,0.053l5.524,1.964l-3.335,6.614l-5.694-9.301l3.029,0.895l0.071-0.24l-3.212-0.949l2.099-6.033L18.812,287.251z
			 M6.408,304.331l12.114-16.681l-2.043,5.872l-3.13,3.449L6.408,304.331z M-1.416,299.098l0.558-10.176l8.388,3.47L-1.416,299.098z
			 M-1.618,309.508l0.221-10.112l8.959-6.715L-1.618,309.508z M13.628,297.036l2.94-3.24l5.584,9.122L13.628,297.036z
			 M22.736,303.298l3.318-6.58l4.092,10.118L22.736,303.298z M6.402,304.701l7.019-7.442l6.141,9.496L6.402,304.701z
			 M19.802,306.667l-5.916-9.15l8.5,5.867L19.802,306.667z M-1.872,309.691l-13.342-8.926l13.565-1.253L-1.872,309.691z
			 M90.312,288.208l-0.044,0.054l0.089,0.009l-0.025-0.047L90.312,288.208z M96.131,288.522l-0.119,0.314l0.09,0.009L96.131,288.522
			z M391.02,288.613l-0.313,0.014l27.072,32.52l-42.311-15.845l0.083,0.298l42.551,15.935l0.417,0.501l-44.395-7.492l-8.343-12.603
			l8.774,3.286l0.022-0.034l0.118-0.18l-8.932-3.345l23.117-12.7l-0.836,0.174l-22.539,12.382l-4.452-6.724l-0.249,0.076l4.442,6.71
			l-39.389,3.947l-1.222,0.373l40.767-4.085l8.385,12.666l-49.757-8.397l-0.02,0.006l0.214,0.28l93.395,15.762l-78.668,3.103
			l0.418,0.233l78.006-3.077l-46.787,9.976l1.116,0.018l46.607-9.937l-13.037,9.924l-4.143,0.573l-1.073,0.4l5.236-0.723
			l16.958,11.282l-23.534-10.058l-0.339,0.126l24.986,10.68l13.921,26.754l0.335,0.1l-13.959-26.825l62.024,0.528l-47.106,26.598
			l0.324,0.104l46.937-26.501l-19.086,35.412l0.242,0.077l19.261-35.737l11.272-12.39l1.247,8.631l0.243-0.069l-1.272-8.802
			l0.123-0.134l-0.145-0.019l-5.235-36.246l-0.734-0.145l-72.628,25.982l19.936-31.706l-0.212-0.133v-0.001l-20.036,31.866
			L391.02,288.613z M419.36,322.158l72.872-26.068l5.237,36.262L419.36,322.158z M423.553,344.417l-4.563-22.048l0.154,0.026
			l-0.013-0.015l77.624,10.131L423.553,344.417z M423.271,344.288l-17.732-11.798l13.21-10.056L423.271,344.288z M424.925,344.448
			l72.358-11.77l-11.182,12.291L424.925,344.448z M93.107,292.931l-0.017,0.017l0.082,0.083L93.107,292.931z M85.937,292.945
			l-0.068,0.275l3.757,3.389l-0.015,0.032l0.209-0.087l0.051,0.123l0.062-0.128L85.937,292.945z M166.614,300.355l-0.357,0.108
			l12.309,5.818l-17.464-4.265l-0.472,0.142l18.782,4.587l-7.762,7.797l0.325,0.028l6.925-6.956l-5.045,7.17l0.27,0.05l5.633-8.004
			l0.806,0.197l-0.681-0.373l-0.111-0.245l-0.014-0.011l-0.115,0.115L166.614,300.355z M160.227,302.279l-0.482,0.145l0.772,7.679
			l-3.732-3.903l0.435,0.817l3.327,3.479l-0.271,2.263l0.205,0.387l0.298-2.485l5.59,3.432l0.554,0.048l-6.127-3.763l-0.804-7.998
			l8.749,11.915l0.33,0.028L160.227,302.279z M43.044,305.002h-2.425l1.288,0.134l-7.869,12.182l-12.376-7.763l-0.515-0.028
			l12.529,7.859l-90.667,5.123l45.138-11.158l-0.026-0.107l-0.088,0.004l-0.115-0.098l-44.944,11.11l5.261-6.14l-0.883,0.154
			l-15.81,9.078l0.159,0.185l-0.416,0.356l8.675,2.338l-17.192,4.952l-0.458,0.392l16.756-4.827l-12.398,5.912l-4.476-0.984
			l-0.239,0.204l4.358,0.957l-13.166,6.582l-0.657,0.562l-0.023,0.057l13.947-6.972l-12.099,20.812l-1.889-13.734l-0.187,0.475
			l1.864,13.555l0.359-0.052l11.918-20.5l-7.376,48.526l0.13,0.807l7.589-49.922l0.063-0.109l25.859,1.842l-33.496,48.277
			l0.049,0.302l0.025,0.03l33.269-47.95l-20.56,62.646l0.238,0.078l20.578-62.702v8.406l-2.298,7.685l0.112,0.5l2.387-7.986
			l13.877,7.125l-16.23,1.01l0.055,0.247l16.433-1.022l-8.213,37.738l0.129,0.579l8.033-36.909l-1.066,26.776l0.397-0.583
			l0.022,0.115l14.925-35.343l-7.502,26.581l-0.008,0.016l-0.025,0.009l-0.01,0.067l-0.004,0.011l0.003,0.001l-3.873,27.002
			l0.145,0.755l3.925-27.372l11.09,29.359l0.089,0.011l0.095-0.036l0.023-0.133l-11.107-29.405l14.961,6.997l0.044-0.256
			l-14.81-6.925l22.95-7.504l0.143-0.249l-11.121-16.697l10.846,11.703l0.607,4.413l0.204-0.355l-0.548-3.982l23.579,5.271
			L5.034,378.109l0.17,0.183l16.013-13.076l11.668,43.024l0.287,0.311l0.032-0.088l-11.762-43.374l30.065-7.752l-0.75,2.274
			l0.17,0.056l0.116-0.319l0.05,0.042l0.68-2.063l6.332,7.996l0.966,0.817l-7.172-9.057l8.701-8.745l1.084,19.125l-1.646-0.411
			l0.052,0.27l1.616,0.404l3.506,26.493l1.186,6.23l-5.378-50.638l14.994,59.007l0.52,0.386l0.074-0.085l16.817-51.567l2.949,28.593
			l0.437-0.509l0.024,0.013l15.417-44.692l-4.352,50.627l0.291,0.156l11.861-35.607l6.602,13.814l0.34-0.403l0.02-0.017
			l11.91-27.473l7.209,11.212l0.192-0.163l-7.229-11.245l5.347-1.711l-0.037-0.235l0.671-0.104l8.498-5.158l2.374,22.162
			l-10.297-15.394l0.091,0.585l10.047,15.02l-8.342-3.562l-0.213,0.181l8.731,3.728l-4.815,12.028l0.152,0.292l4.831-12.065
			l8.944,20.152l-13.394-7.358l0.209,0.399l13.331,7.325l1.237,15.404l0.263,0.152l-1.246-15.515l19.571-0.988l-0.781,0.781
			l0.053,0.052l0.372-0.345l0.134,0.088l0.553-0.554l11.784,8.619l3.991,2.61l-15.628-11.431l19.027-37.202l20.1,28.292l0.204-0.144
			l-19.98-28.123l32.135,12.386l-0.152-0.327l-31.843-12.273l24.338-3.879l-0.07-0.151l-32.426-3.419l27.42-6.75l-0.021-0.086
			l-0.427-0.061l-27.267,6.712l11.529-8.977l-0.344-0.05l-11.717,9.125l-0.274-0.029l0.031,0.027l-25.343-0.943l36.645-8.274
			l-0.693-0.1l-34.933,7.888l26.258-9.387l0.146-0.031l0.038-0.263l-0.197,0.041l-0.047-0.004l-7.74-13.518h-0.141l-0.111,0.063
			l7.686,13.423l-88.38-9.152l-0.586,0.191l86.225,8.929l-160.113-3.576l0.062-0.038l-0.252,0.014l7.872-12.185l51.321,5.314
			l-0.38-0.291L43.044,305.002z M-68.026,325.392l15.721-9.027l-5.323,6.213L-68.026,325.392z M34.114,317.661l0.019-0.03
			l67.954,15.911l-115.776,13.261l47.763-29.167L34.114,317.661z M169.47,331.106L37.242,317.685l159.787,3.569L169.47,331.106z
			 M-68.338,325.736l10.905-2.952l90.104-5.09l-34.731,8.233l-57.512,2.169l-0.003,0.001L-68.338,325.736z M-1.925,326.152
			l35.265-8.36l-47.17,28.804L-1.925,326.152z M102.83,333.459l-66.841-15.65l131.146,13.311l-31.333,0.163l-0.036-0.006
			l-0.014,0.009L102.83,333.459z M-59.19,328.331l55.95-2.109l-44.007,10.249L-59.19,328.331z M-46.513,336.557l43.372-10.101
			l-24.962,10.84l-0.027-0.018l-0.006,0.02L-46.513,336.557z M-27.85,337.458l25.285-10.979l-15.494,17.26L-27.85,337.458z
			 M-17.77,343.791l15.042-16.756l-11.55,19.835h-0.001l-0.147,0.017l-0.024-0.022l-0.03-0.044l-0.005,0.012L-17.77,343.791z
			 M-72.836,334.7l13.266-6.325l11.913,8.119L-72.836,334.7z M155.355,334.228l14.14-2.869l23.84,0.887L155.355,334.228z
			 M137.231,331.526l30.976-0.161l-14.531,2.949L137.231,331.526z M131.04,334.597l4.78-3.058l16.474,2.794L131.04,334.597z
			 M103.198,333.685l32.118-2.12l-4.864,3.111l-17.969,5.15L103.198,333.685z M153.817,334.559l41.846-2.184l-39.432,24.716
			L153.817,334.559z M157.205,356.776l38.92-24.395l8.171,7.147L157.205,356.776z M204.576,339.442l-8.059-7.051l31.475,3.32
			L204.576,339.442z M61.774,347.854l41.028-14.131l9.336,6.174l-30.909,5.966L61.774,347.854z M-12.053,346.867l113.756-13.03
			l-40.986,14.117L-12.053,346.867z M131.139,334.846l20.444-0.254l-14.654,1.938L131.139,334.846z M137.287,336.735l15.818-2.092
			l-8.579,5.207L137.287,336.735z M130.715,334.851L130.715,334.851L130.715,334.851L130.715,334.851z M127.01,368.515l3.603-33.562
			l6.212,1.807l0.021,0.053L127.01,368.515z M126.665,369.39l-14.026-29.348l17.722-5.08L126.665,369.39z M-47.004,345.681v-8.894
			l18.499,0.746L-47.004,345.681z M138.977,341.634l-1.808-4.678l7.005,3.014L138.977,341.634z M127.505,367.766l9.486-30.577
			l1.777,4.598L127.505,367.766z M-32.567,352.992l4.581-15.324l9.713,6.23L-32.567,352.992z M-46.839,345.881l18.584-8.184
			l-4.594,15.367L-46.839,345.881z M156.4,357.336l47.881-17.536l-18.96,37.071L156.4,357.336z M93.488,356.785l-11.976-10.722
			l30.531-5.892L93.488,356.785z M93.62,357.004l18.568-16.628L96.573,385.64L93.62,357.004z M108.211,390.89l4.337-50.46
			l7.349,15.378L108.211,390.89z M-25.517,370.892l7.593-26.904l3.324,3.079l-0.02,0.012h0.022L-25.517,370.892z M-32.647,353.34
			l14.349-9.13l-15.455,36.599l1.09-27.395L-32.647,353.34z M76.305,408.946l-15.437-60.748l20.237-2.07L76.305,408.946z
			 M76.604,408.325l4.742-62.075l11.998,10.742L76.604,408.325z M-14.182,347.111l0.199-0.023l73.386,1.096L-2.7,359.5
			L-14.182,347.111z M-25.552,371.567l11.113-24.234l11.597,17.412l-22.94,7.5l15.318-18.829l-0.194-0.158L-25.552,371.567z
			 M-0.872,359.421l61.183-11.148l-8.643,8.688L-0.872,359.421z M61.943,367.611l-0.82-14.457l4.449,41.879L61.943,367.611z
			 M-1.796,359.714l52.639-2.464l-29.561,7.623L-1.796,359.714z M165.422,377.936l-9.004-20.286l28.57,19.298L165.422,377.936z
			 M447.434,305.305l-0.223,0.322l0.206,0.142l0.091-0.132L447.434,305.305z M549.236,305.694l-0.249,0.008l0.024,0.742l0.116-0.526
			l0.11-0.194L549.236,305.694z M322.573,305.862l-0.875,0.088l1.082,0.183L322.573,305.862z M194.01,307.496h-0.702l-0.02,0.086
			l31.909,7.568l-26.06,5.564l0.715,0.103l25.654-5.477l-5.206,8.42l0.27,0.039l5.255-8.5l0.615,0.146l-0.171-0.112l29.957,3.071
			l-22.034,2.546l-0.004-0.011l-0.103,0.023l-0.311,0.036l0.034,0.024l-12.917,2.823l0.705,0.102l12.429-2.716l2.952,8.52
			l-11.447-4.612l0.154,0.332l11.386,4.588l-0.876,18.03l0.227,0.487l0.894-18.418l20.115,8.105l0.284-0.37l-0.192-17.895
			l3.579,21.33l-2.764-2.605l-0.153,0.2l2.702,2.546l-4.051-0.785l-0.169,0.222l4.513,0.874l4.72,23.993h0.337l-1.006-33.482
			l5.288,35.684l0.275,0.15l-5.612-37.868l16.19,10.068l-10.428,27.882l0.07,0.039l10.508-28.131l-0.345-20.371l-0.314-0.263
			l-4.533-0.309l0.006-0.006l-0.164-0.008l0.133-3.496l-0.243-0.203l-0.131,3.462l-3.07-4.086l-0.345-0.042l3.267,4.347
			l-17.577-0.83l13.735-3.588l-2.256-0.279l-43.881,0.588l-6.836-4.447l-0.472-0.009l6.6,4.294L194.01,307.496z M227.928,315.252
			l43.206-0.578l-13.764,3.595L227.928,315.252z M265.039,329.813l-7.42-11.28l18.129,0.855L265.039,329.813z M257.464,337.945
			l-23.025-16.773l22.817-2.636L257.464,337.945z M261.324,341.145l-3.723-22.184l7.279,11.066L261.324,341.145z M281.381,339.232
			l-5.174-19.818l4.844,0.33L281.381,339.232z M265.219,329.986l10.756-10.47l5.348,20.485L265.219,329.986z M237.284,329.875
			l-2.929-8.454l22.347,16.279L237.284,329.875z M261.415,341.681l3.517-10.993l1.024,34.082L261.415,341.681z M-14.55,307.693
			l0.366,0.316l10.428,1.79l1.124-0.061L-14.55,307.693z M549.359,309.49l-0.218,0.984l0.821,25.39l0.259,0.268L549.359,309.49z
			 M522.831,309.567l-23.72,31.747l0.395-0.111l23.442-31.375l18.326,45.363l-24.564-7.884l0.197,0.326l24.053,7.72l-17.635,2.905
			l0.139,0.23l16.105-2.653l-11.505,10.267l0.131,0.218l11.835-10.56l1.382-0.228l0.163,0.403l0.033-0.435l0.143-0.024l0.024-0.124
			l-0.152-0.049l1.877-24.615l-0.25-0.02l-1.844,24.182l-18.232-45.13L522.831,309.567z M186.355,310.194l-11.877,4.706l0.461,0.087
			l10.902-4.32l-5.25,5.379l0.295,0.056l5.584-5.722l-0.001-0.123L186.355,310.194z M95.031,310.386l0.38,0.29l0.901,0.094
			l-0.087-0.261L95.031,310.386z M96.498,310.538l0.087,0.26l1.572,0.163l0.159-0.235L96.498,310.538z M98.598,310.755l-0.159,0.235
			l6.362,0.659l0.136-0.238L98.598,310.755z M105.209,311.44l-0.136,0.237l0.868,0.09l0.586-0.191L105.209,311.44z M337.498,325.403
			l0.006,0.145l0.102-0.004L337.498,325.403z M369.186,333.35l-0.044,0.011l2.081,3.363l1.287-3.32l-0.267-0.004l-1.071,2.766
			l-1.74-2.812L369.186,333.35z M388.958,333.669l0.305,2.117l-2.664-1.593v3.116l0.25-0.094v-2.581l2.657,1.589l0.069-0.026
			l-0.348-2.409l2.67,1.542l0.191-0.071l0.046-0.08l-2.597-1.501L388.958,333.669z M367.328,333.815l-0.276,0.069l-0.808,3.182
			l-2.007-2.477l-0.268,0.067l2.395,2.955L367.328,333.815z M398.241,334.03l-0.247,0.092l9.752,12.184l-31.632-0.535l-4.902-1.65
			l-0.372,0.139l5.053,1.7l-3.826,5.464l0.167,0.197l3.922-5.6l30.45,0.515l-33.703,5.478l0.545,0.165l34.57-5.619l0.255,0.005
			L398.241,334.03z M358.884,334.814h-0.25v0.146l0.25-0.062V334.814z M362.682,334.978l-0.261,0.065l-0.379,2.716l-1.655-2.207
			l-0.264,0.066l2.083,2.777L362.682,334.978z M378.901,335.558l-0.131,0.07l0.391,4.458l0.243-0.091l-0.346-3.944l3.081,2.923
			l0.217-0.081l0.029-0.031L378.901,335.558z M358.884,335.928l-0.25,0.063v1.808l-1.586-1.411l-0.142,0.035l-0.524-0.293
			l2.502,2.226V335.928z M550.01,337.354l0.011,0.333l0.25-0.008l-0.002-0.057L550.01,337.354z M258.407,338.632l-0.015,0.019
			l0.092,0.037L258.407,338.632z M372.398,339.081v3.53l0.25-0.093v-2.812l1.974,2.075l0.144-0.054l0.079-0.075h-0.001
			L372.398,339.081z M369.679,340.482l-0.384,0.205l0.241,1.996l0.268,0.134l-0.256-2.12l2.521,2.037l0.273-0.102L369.679,340.482z
			 M499.389,342.275l-0.247,0.069l8.726,15.867l-19.532-12.406l0.045,0.324l19.528,12.405l-17.149,4.829l0.011,0.078l0.277,0.1
			l17.12-4.821l13.232,15.874l0.468,0.17l-13.217-15.855l18.412,8.15l-4.679,7.891l0.231,0.098l4.666-7.866l34.971,24.717
			l1.087,0.463l-34.205-24.176l-1.475-0.821l-0.354-0.586l-0.086,0.076l-18.823-8.332l6.94-11.007l-0.244-0.082l-6.872,10.898
			L499.389,342.275z M487.063,344.996l-0.134,0.211l0.346,0.219l-0.045-0.324L487.063,344.996z M252.741,346.031l-0.161,0.211
			l12.828,19.531h0.299L252.741,346.031z M371.474,352.271l-0.181,0.258l0.351-0.057L371.474,352.271z M237.698,353.699
			l-12.841,14.31l0.179,0.161l0.193-0.269l0.066-0.006l12.251-13.652l-0.809,12.629l0.252-0.023l0.826-12.899L237.698,353.699z
			 M-49.625,353.785l-0.204,0.679l0.104-0.006L-49.625,353.785z M-93.586,358.294l-0.096,0.014l0.444,1.596l11.346,25.653
			l-3.696,1.105l0.523,0.105l3.317-0.992l-0.396-2.446l-3.813-15.51l1.019-1.763l-0.063-0.39l-1.099,1.901L-93.586,358.294z
			 M-82.147,384.363l-11.251-25.439l7.185,8.901L-82.147,384.363z M522.263,358.433l-0.136,0.022l0.04,0.246l0.235-0.038
			L522.263,358.433z M139.824,359.945l-0.218,0.185l15.213,75.607l-20.687-49.9l2.249-22.964l-0.274,0.233l-2.09,21.339
			l-1.048-18.67l-0.239,0.204l1.109,19.767l-8.031,46.673l3.445-63.483l-0.263,0.223l-3.469,63.928l-2.002-57.871l-0.24,0.285
			l1.994,57.647l-7.51-34.009l1.322-18.664l-0.273,0.324l-1.281,18.077l-7.929-7.153l-0.162,0.191l8.048,7.261l-18.874,29.706
			l5.028-38.447l-0.236-0.126l-5.11,39.073l-0.403,0.635l-43.565-36.661l9.716,0.074l-0.048-0.25l-9.718-0.074l8.116-8.336
			l-0.057-0.3l-8.47,8.7l-13.558,80.755l0.194,0.35l13.568-80.809l43.798,36.858l0.249-0.196l0.101-0.159l-0.011,0.088l0.085-0.066
			l0.408,0.518l16.433,5.6l-28.792,4.572l-0.403,0.317l29.349-4.661l0.512-0.616l1.912-35.652l7.609,34.453v0.006l-9.156,1.194
			l0.161,0.23l9.033-1.177l6.973,24.147l0.444,0.638l-7.142-24.735l7.621,2.353l-0.36,22.552l0.244,0.35l0.366-22.87l21.514-0.114
			l0.215-0.497l0.225,0.018l17.14-46.348l-0.406,0.376l-16.963,45.868L139.824,359.945z M133.508,436.959l0.606-50.512
			l20.894,50.398L133.508,436.959z M125.69,434.579l8.166-47.455l-0.597,49.792L125.69,434.579z M98.537,429.468l18.948-29.822
			l-1.949,36.335l-17.089-5.824L98.537,429.468z M489.789,363.636l-0.24,0.068l0.068,0.241l0.206-0.059L489.789,363.636z
			 M489.305,363.894l-0.246,0.041l3.224,19.163l0.257,0.021L489.305,363.894z M-2.274,366.224l-0.288,0.502l-1.707,23.103
			l-0.047,0.24l-5.712-9.531l-0.065,0.378l5.644,9.418l0.059,0.119l-4.044,20.946l-4.553-13.654l-0.09,0.521l4.157,12.467
			l-4.843-8.474l-0.067,0.387l5.136,8.986l-39.864-16.796l-0.118,0.254l36.596,21.252l-32.474-8.03l1.646,0.664l30.649,7.579
			l-10.611,0.071l-3.518-0.94l0.302,0.339l3.125,0.835l11.162,15.21l1.764,1.982l-12.3-16.761l24.121,16.945l-9.242,2.712
			l0.184,0.207l8.915-2.617l-0.076,0.076l0.463-0.177l7.719,10.813l-16.971-8.039l0.426,0.479l16.508,7.819l-5.648,4.378
			l0.128,0.143l0.078,0.013l5.695-4.414l0.049,0.023l0.025-0.059l8.905,7.001l0.525,0.091l4.27-6.562l-0.137-0.247l-4.332,6.656
			l-9.051-7.115l8.897-7.625l-0.124-0.224l-8.721,7.475l5.558-13.175l-0.154-0.277l-5.709,13.532l-7.693-10.776l12.407-4.55
			l-0.142-0.256c-1.601,0.489-8.338,3.041-11.206,4.132l10.09-6.143l-0.215-0.388l-0.206-0.143L7.19,424.49l-0.325-0.14
			l-12.087-9.992l-2.44-1.693l13.707,11.331l-17.125-7.381l2.671-4.468l-0.087-0.06l0.254-0.365l4.035-20.9l17.433,35.116
			l0.69,0.479l-8.984-46.945l-0.321-0.347l9,47.026l-17.739-35.734l0.107-0.556L-2.274,366.224z M-11.304,416.503l-35.759-20.765
			l38.48,16.212L-11.304,416.503z M-22.495,416.874l11.173-0.076l12.816,16.927L-22.495,416.874z M2.089,434.097l-12.964-17.122
			l17.966,7.745l3.11,1.343L2.089,434.097z M2.905,433.641l7.543-7.472l2.766,1.194L2.905,433.641z M258.173,366.773h-0.274
			l-10.775,23.794l-8.758-23.513l-0.188,0.21l8.79,23.601l-21.385,22.193l0.296-32.036l-0.252,0.282l-0.295,31.85l-29.261-18.298
			l-0.074,0.248l28.949,18.103l-34.384,0.215l-0.074,0.251l34.238-0.214l-26.496,9.518l-8.575-6.499l-0.075,0.256l8.288,6.281
			l-10.364,0.714l-0.076,0.256l10.078-0.694l-11.359,5.011l-0.093,0.314l12.076-5.327l6.232,20.581l0.321,0.197l-6.32-20.872
			l26.849-9.645l-20.237,30.695l0.107,0.066l0.628-0.727l19.865-30.131h0.004v-0.006l0.052-0.078l0.009-0.01l13.721-8.844
			l7.822-13.492l9.081,0.304l0.305-0.239l-9.265-0.311L258.173,366.773z M226.396,412.574l20.091-20.849l-7.312,12.612
			L226.396,412.574z M233.94,368.126l-0.472,0.042l-15.669,11.804l-0.489,0.682L233.94,368.126z M270.702,369.216l0.037,0.249
			l0.071-0.19L270.702,369.216z M152.135,371.843l0.05,0.53l13.771,20.882l0.483,0.279L152.135,371.843z M444.359,378.005
			l-0.012,0.093l0.09-0.083L444.359,378.005z M445.731,378.17l-0.237,0.223l16.595,1.992l-1.259-0.403L445.731,378.17z
			 M225.642,379.697l-0.001,0.091l0.081-0.09L225.642,379.697z M186.213,379.873l-4.508,58.758l0.247,0.034l10.946-54.421
			l-0.204-0.134l-0.023-0.005l-10.56,52.504l4.341-56.58L186.213,379.873z M213.926,385.372l-0.151,0.209l3.242,1.296l0.825,0.061
			L213.926,385.372z M10.469,385.462l28.271,85.635l0.651,1.172l-28.512-86.364L10.469,385.462z M-33.119,389.127l-6.608,2.616
			l-0.158,0.233l0.259-0.004l6.568-2.6l-0.034-0.177L-33.119,389.127z M94.887,389.406l-0.21,0.243l7.973,0.253l-0.496-0.266
			L94.887,389.406z M572.664,392.954l-5.732,0.955l0.336,0.197l5.74-0.956L572.664,392.954z M-49.923,397.79l-0.101,0.218
			l-0.074,0.04l2.875,8.299l0.599,0.965L-49.923,397.79z M23.238,399.276l-0.112,0.026l16.634,73.632l0.432,0.78l-16.771-74.24
			L23.238,399.276z M581.339,399.87h-0.092v2.441l0.25,0.147V400L581.339,399.87z M581.247,403.605v0.155h0.161L581.247,403.605z
			 M593.269,409.706l-2.924,1.283l0.195,0.188l2.918-1.28l-0.024-0.055L593.269,409.706z M76.208,410.208l-0.013,0.177l0.049-0.15
			L76.208,410.208z M589.414,411.481l0.07,0.159l0.065-0.029L589.414,411.481z M189.517,413.429h-0.043l-0.089,0.446
			L189.517,413.429z M84.318,441.002l-0.129,0.02l-0.002,0.082L84.318,441.002z M83.685,441.49l-0.003,0.013l0.013-0.01
			L83.685,441.49z M85.256,441.536l-0.197,0.155l12.233,15.563l-13.624,17.712l0.744-32.765l-0.254,0.2l-0.746,32.85l-7.795,2.398
			l8.02-34.838l-0.313,0.247l-7.95,34.531l-16.153-15.538l-0.139,0.109l-0.052,0.054l15.774,15.173l-7.197-3.433l0.132,0.113
			l0.324,0.381l7.239,3.454l-0.026,0.113l0.102-0.031l4.804,10.702l0.579,0.681l-5.089-11.337l13.4,4.028l0.062-0.067l0.092-0.263
			l-5.53-6.388l13.755-17.883l0.139,0.176l0.163-0.128l0.017-0.047L85.256,441.536z M75.876,477.831l7.618-2.343l5.418,6.261
			L75.876,477.831z M59.03,462.214L59.03,462.214z"/>
		<path fill="#ABFF4F" d="M117.553,119.229l-0.102,0.166l0.138-0.141L117.553,119.229z M196.701,125.282l-0.154,0.197l0.608,0.475
			l0.115-0.228L196.701,125.282z M90.921,125.776l-0.114,0.222l0.147-0.206L90.921,125.776z M90.48,125.807l0.056,0.572l0.255-0.358
			L90.48,125.807z M111.548,128.957l-0.512,0.83l0.212,0.132l0.518-0.84L111.548,128.957z M193.953,129.74l0.12,0.522l1.398,1.619
			l-0.12-0.522L193.953,129.74z M205.873,131.136l-0.059,0.025l0.018,0.047L205.873,131.136z M195.584,132.373l-0.911,0.5
			l0.058,0.253l0.911-0.5L195.584,132.373z M195.807,133.343l-0.154,2.744l0.227,0.405l0.043-0.765l0.015,0.867l0.257,0.457
			l-0.036-2.176L195.807,133.343z M119.405,133.381l-1.663,0.119l0.007,0.096l0.242,0.136l1.808-0.128L119.405,133.381z
			 M160.232,134.242l-0.893,0.166l-0.167,0.286l0.895-0.167L160.232,134.242z M160.415,134.425l-0.024,0.042l0.031-0.006
			L160.415,134.425z M83.789,135.026l-0.198,0.152l0.039,0.051l0.234-0.104L83.789,135.026z M127.749,135.964l-1.413,0.577
			l0.063,0.155l0.143,0.031l1.64-0.67L127.749,135.964z M136.004,137.738l-0.092,1.003l0.574,0.123l0.339-0.267l-0.659,0.123
			l0.085-0.944l-0.014,0.012L136.004,137.738z M156.352,139.769l-0.268,0.188l-0.305,0.52l0.717-0.504L156.352,139.769z
			 M68.286,141.925l-0.22,0.118l0.622,1.158l0.06-0.417L68.286,141.925z M198.481,146.346l-0.052,0.244l0.937,0.201l-0.059-0.268
			L198.481,146.346z M198.576,147.761l-0.015,0.019l0.079,0.357l1.252,1.028l-0.087-0.396L198.576,147.761z M153.039,149.633
			l-0.04,0.006l0.029,0.249l0.04-0.007L153.039,149.633z M200.037,149.816l-0.567,2.067l0.099,0.447l0.035,0.009l0.549-1.999
			L200.037,149.816z M199.569,152.33l0.017,0.076l0.018-0.067L199.569,152.33z M201.124,154.726l-1.001,0.103l0.054,0.246
			l1.002-0.103L201.124,154.726z M214.441,156.204l-0.357,2.727l0.03,0.462l0.373-2.851l0.062,0.001L214.441,156.204z
			 M200.193,157.035l-0.079,0.054l-0.117,0.102l0.565,0.827l0.079-0.328L200.193,157.035z M199.365,163.01l-0.737,0.035l0.012,0.25
			l0.665-0.032L199.365,163.01z M65.755,163.726l-1.185,1.929l0.214,0.131l0.882-1.437L65.755,163.726z M196.875,165.232
			l-0.187,0.166l0.361,0.408l0.189-0.163L196.875,165.232z M214.383,165.631L214.26,166v0.002l0.234-0.092h-0.001L214.383,165.631z
			 M65.494,165.766l-0.956,0.33l0.023,0.121l1.153,0.729l-0.063-0.335l-0.648-0.411l0.537-0.185L65.494,165.766z M154.208,168.413
			l0.003,0.009l0.003-0.005L154.208,168.413z M193.17,168.534l-0.237,0.079l0.189,0.566l0.205-0.175L193.17,168.534z
			 M212.347,171.047l-0.434,0.141l0.059,0.136l-0.211-0.086l-0.368,0.12l0.721,0.294l0.141,0.329l0.235-0.084l-0.153-0.534
			L212.347,171.047z M194.216,172.461l0.581,1.745l0.36,0.287l-0.582-1.745L194.216,172.461z M195.795,173.723l-0.562,0.831
			l0.196,0.156l0.586-0.867l-0.074-0.004L195.795,173.723z M202.965,174.101l-0.261,0.085l-0.073-0.004l-0.557,0.973l0.28,0.015
			L202.965,174.101z M182.716,178.098l-0.958,0.332l-0.088,0.295l0.526-0.182L182.716,178.098z M181.468,178.53l-0.338,0.117
			l0.133,0.219l0.117-0.04L181.468,178.53z M180.888,178.731l-0.671,0.232l0.784-0.045L180.888,178.731z M188.76,182.222
			l-0.039,0.102l0.063-0.018L188.76,182.222z M115.897,183.654l-0.281,0.025l-0.54,0.384l-0.152-0.073l0.158,1.742l0.119-1.382
			l0.769,0.105l-0.023-0.255l-0.529-0.073l0.491-0.349L115.897,183.654z M171.554,187.136l-2.198,0.356l-3.139,0.88l0.934-0.522
			l-0.72,0.116l-1.125,0.63l-0.316,0.027l-0.364,0.282l0.754-0.065l0.154-0.086l0.018,0.065L171.554,187.136z M69.773,188.74
			l-0.704,0.008l0.003,0.25l0.748-0.008L69.773,188.74z M69.071,188.998L69.071,188.998h0.001 M134.11,195.688l-0.089,0.42
			l0.146-0.021L134.11,195.688z M138.594,195.694l-0.005,0.201l0.251-0.034l0.004-0.161L138.594,195.694z M102.002,196.254
			l-4.007,0.361l-2.093,0.439l6.273-0.564L102.002,196.254z M134.522,196.563l-0.18,0.174l0.467,0.48l0.062-0.295L134.522,196.563z
			 M141.057,197.337l-0.474,0.489l0.18,0.174l0.428-0.441L141.057,197.337z M98.431,197.489l-0.233,0.09l0.005,0.014l0.249-0.052
			L98.431,197.489z M78.451,198.622h-2.787l-3.409,0.307l0.832-0.307h-0.723l-1.654,0.609l0.016,0.086L78.451,198.622z
			 M85.415,198.994l-0.926,0.137l0.036,0.248l1.177-0.175L85.415,198.994z M144.261,202.631l-0.326,1.078l0.239,0.072l0.262-0.863
			L144.261,202.631z M139.805,203.613l-0.144,0.019l0.196,0.376L139.805,203.613z M144.174,203.781L144.174,203.781h0.001H144.174
			 M132.941,204.075l-0.24,0.07l0.24,0.837l0.166-0.33L132.941,204.075z M92.482,204.169l1.151,2.081l0.479,0.351l-1.15-2.081
			L92.482,204.169z M132.351,204.363l-0.285,0.134l-0.462,0.921l-1.356,3.029l-0.253,0.185l-0.244,0.488l0.698-0.511
			L132.351,204.363z M110.562,207.845l-0.336,1.227l0.223,0.303l0.87-0.505l-0.149-0.202l-0.683,0.396l0.264-0.963L110.562,207.845z
			 M110.667,209.67l2.479,3.356l1.127,0.196l-0.028-0.259l-1.013-0.176l-1.841-2.358l1.729,0.88l-0.331-0.449l-1.81-0.921
			l1.182,0.071l-0.193-0.261L110.667,209.67z M118.325,210.321l-0.717,1.195l0.11,0.02l1.569-0.74l-0.427-0.075l-0.673,0.318
			l0.236-0.395l-0.069-0.012L118.325,210.321z M103.63,211.531l2.923,7.511l0.033-0.013l-0.029,0.399l0.646,0.186l-0.039-0.271
			l-0.343-0.099l0.058-0.795l-0.217-0.462l-0.04,0.543l-1.427-3.666L103.63,211.531z M125.491,211.924l-0.64,0.468l0.148,0.202
			l0.679-0.496L125.491,211.924z M121.313,212.166l-0.001,0.001l0.002,0.001L121.313,212.166z M123.442,220.965l1.079,1.459
			l0.303-0.927l-0.233-0.09l-0.157,0.479l-0.557-0.754L123.442,220.965z M131.704,228.128l-0.749,0.702l1.779,0.987l-0.357-0.484
			l-1.001-0.555l0.363-0.34L131.704,228.128z M115.79,236.291l0.156,1.428l0.052,0.179l0.24-0.07L115.79,236.291z M109.573,236.319
			l-0.238,2.75l0.907,0.208l-0.163-0.294l-0.476-0.109l0.126-1.455L109.573,236.319z M139.878,239.502l-0.727,0.698l0.057,0.077
			l-0.044,0.149l0.907,0.46l0.072-0.244l-0.715-0.362l0.6-0.576L139.878,239.502z M138.844,245.067l-0.99,0.238l-0.237,0.357
			l0.243,0.087l0.148-0.224l0.755-0.182L138.844,245.067z M113.589,245.292l0.336,1.981l0.246-0.042l-0.217-1.284L113.589,245.292z
			 M135.421,248.97l-0.367,0.553l-0.17-0.093l-0.176,0.188l0.207,0.114l-0.609,0.917l1.755-1.079l-0.189-0.177l-0.73,0.449
			l0.464-0.698L135.421,248.97z M125.355,251.497l0.565,1.203l0.226-0.106l-0.443-0.943L125.355,251.497z M128.284,253.431
			l1.367,1.828l0.2-0.15l-0.867-1.159L128.284,253.431z M126.726,259.602l-1.19,0.302l0.062,0.242l0.812-0.206L126.726,259.602z
			 M434.67,260.151l-0.076,0.238l0.752,0.24l0.225-0.191L434.67,260.151z M430.458,263.764l-0.089,0.234l0.746,0.288l-0.112,0.856
			l0.388-1.017L430.458,263.764z M143.214,265.28l-0.589,0.695l-0.3,0.666l-0.092-0.202l-0.007,0.009l-0.115,0.328l0.214,0.473
			L143.214,265.28z M120.897,273.755l-1.256,4.763l0.956-2.645l0.542-2.054L120.897,273.755z M429.808,274.296l-0.134,1.028
			l0.238,0.101l0.135-1.029L429.808,274.296z M426.118,275.342l-0.244,0.052l0.23,1.101l0.219-0.179L426.118,275.342z
			 M437.834,275.444l0.019,0.03l0.023-0.014L437.834,275.444z M87.103,285.658l-0.021,0.083l0.696,0.988l0.139-0.221l0.043-0.169
			l-0.125-0.1l-0.156,0.103l-0.138-0.208l0.088-0.059L87.103,285.658z M428.55,285.854l-0.48,0.022l0.208,0.991l0.14-0.006
			L428.55,285.854z M18.804,286.84l-0.176,0.506l0.184-0.094l0.037,0.221l0.191-0.551L18.804,286.84z M18.423,287.362
			L18.423,287.362l-0.102,0.139l0.173-0.087L18.423,287.362z M-0.798,287.831l-0.342,0.705l-0.119-0.05l-0.096,0.231l0.106,0.044
			l-3.527,7.285l0.371,0.392l0.254-0.097L-4.476,296l3.36-6.939l-0.023,0.415l0.318-0.735l0.083-0.039l-0.106-0.044L-0.798,287.831z
			 M390.691,288.217l-0.192,0.16l0.208,0.25l0.313-0.014L390.691,288.217z M389.712,288.227l-1.668,0.916l0.836-0.175l0.952-0.522
			L389.712,288.227z M443.818,288.993l-0.109,0.287l0.117,0.044l0.019,0.124l1.006-0.155l-0.019-0.083l-0.454-0.097l-0.36,0.055
			l0.047-0.122L443.818,288.993z M8.333,291.79l-0.542,0.406l0.154,0.304L8.333,291.79z M116.1,291.944l-0.09,0.34l0.224,0.059
			L116.1,291.944z M86.02,292.52l-0.578,0.316l0.427,0.385l0.068-0.275l-0.066-0.06l0.094-0.051l0.055-0.224V292.52z
			 M20.451,294.286l-0.065,0.183l0.394-0.066L20.451,294.286z M360.746,294.336l-0.208,0.138l0.266,0.403l0.249-0.076
			L360.746,294.336z M116.322,295.296l-0.034,0.26l0.276,0.127l0.034-0.259L116.322,295.296z M116.061,295.359l-0.034,0.075
			l0.023,0.011L116.061,295.359z M31.649,295.514l-0.07,0.01l0.037,0.17l0.06,0.015L31.649,295.514z M492.435,295.753l-0.677,0.242
			l0.733,0.145L492.435,295.753z M39.215,297.517l-0.075,0.08l0.122,0.031l-0.036,0.242l0.171-0.181L39.215,297.517z
			 M166.019,300.074l-0.106,0.226l0.344,0.163l0.358-0.108L166.019,300.074z M-15.12,300.507l-0.818,0.075l0.739,0.495l-0.038-0.526
			L-15.12,300.507z M159.652,301.495l0.093,0.93l0.483-0.145L159.652,301.495z M160.124,301.776l-0.06,0.244l0.566,0.138
			l0.472-0.143L160.124,301.776z M85.791,303.026l-0.461,0.686l0.208,0.14l0.339-0.506L85.791,303.026z M448.207,304.186
			l-0.773,1.119l0.074,0.332l0.773-1.119L448.207,304.186z M38.522,304.535l-0.026,0.248l2.123,0.22h2.425L38.522,304.535z
			 M374.695,305.013l-0.118,0.18l-0.022,0.034l0.996,0.373l-0.083-0.298L374.695,305.013z M155.674,305.039l-0.181,0.173
			l1.727,1.805l-0.435-0.817L155.674,305.039z M325.858,305.534l-3.285,0.329l0.207,0.271l1.444,0.243l-0.214-0.28l0.02-0.006
			l-0.461-0.077l1.066-0.107L325.858,305.534z M549.238,305.724l-0.11,0.194l-0.117,0.526l0.13,4.03l0.218-0.984L549.238,305.724z
			 M179.772,306.41l0.111,0.245l0.681,0.373l0.343,0.083l-1.011-0.477l0.053-0.075L179.772,306.41z M30.988,306.626l-0.509,0.177
			l-0.281,0.335l0.087,0.042l0.095,0.237l0.109-0.26L30.988,306.626z M91.032,307.323l0.802,1.186l0.084,0.369l0.244-0.056
			l-0.175-0.766l-0.312-0.239l0.004,0.017l-0.02-0.029L91.032,307.323z M193.346,307.339l-0.038,0.158h0.702L193.346,307.339z
			 M121.531,307.344l0.062,0.519l0.248-0.03l-0.055-0.462L121.531,307.344z M189.889,307.435l-0.106,0.061h0.141L189.889,307.435z
			 M123.868,307.595l-0.15,0.423l0.236,0.084l0.17-0.48L123.868,307.595z M-15.05,307.608l-0.042,0.246l0.908,0.156l-0.366-0.317
			L-15.05,307.608z M20.998,308.517l0.502,0.578l0.189-0.164l-0.343-0.395L20.998,308.517z M26.247,308.806l2.197,0.601l0.066-0.242
			l-1.076-0.293L26.247,308.806z M21,309.141l-0.133,0.212l0.28,0.175l0.515,0.028L21,309.141z M7.553,309.184l-0.259,0.014
			l0.146,0.439l0.238-0.08L7.553,309.184z M523.014,309.323l-0.183,0.245l0.343,0.153L523.014,309.323z M-1.012,309.651
			l-1.269,0.069l0.159,0.107l-0.51-0.088l-1.124,0.061l1.874,0.322l-0.002,0.123l0.144-0.099l0.735,0.126l-0.464-0.31
			L-1.012,309.651z M186.84,310.003l-0.485,0.192l0.114,0.063l0.001,0.123L186.84,310.003z M93.128,310.189l0.379,0.291l1.904,0.197
			l-0.38-0.291L93.128,310.189z M218.544,310.309l-0.136,0.21l0.087,0.057l0.472,0.009L218.544,310.309z M-11.912,311.108
			l-0.169,0.042l0.114,0.098l0.088-0.004L-11.912,311.108z M106.527,311.577l-0.586,0.191l2.451,0.254l0.586-0.191L106.527,311.577z
			 M160.276,312.759l-0.15,1.255l0.248,0.03l0.108-0.898L160.276,312.759z M166.369,314.094l0.914,0.562l4.093,0.517l0.599-0.602
			l-0.325-0.028l-0.364,0.366l-1.968-0.248l-0.247-0.337l-0.33-0.028l0.236,0.322l-1.609-0.204l-0.445-0.273L166.369,314.094z
			 M272.475,314.324l-1.105,0.289l-0.003-0.192l-1.683,0.022l2.256,0.279l0.436-0.114l0.139,0.185l0.345,0.042L272.475,314.324z
			 M173.855,314.785l-0.4,0.568l6.625,1.575l0.806-0.825l-0.295-0.056l-0.59,0.605l-5.789-1.376l0.727-0.288l-0.461-0.087
			l-0.549,0.218l0.039,0.099l-0.096-0.023l0.253-0.36L173.855,314.785z M-51.17,315.426l-1.477,0.849l0.882-0.154L-51.17,315.426z
			 M276.062,315.453v0.007l0.242,0.203l0.008-0.2L276.062,315.453L276.062,315.453z M280.862,319.482l0.314,0.263l0.345,20.371
			l-10.508,28.131l-0.07-0.039l-0.098,0.263l-0.051-0.345l-0.276-0.15l0.184,1.241l0.108,0.059l10.692-28.588l0.164,0.626
			l-0.018-1.016l0.029-0.076l-0.03-0.019l-0.35-20.692L280.862,319.482z M199.137,320.715l-1.229,0.262l-0.038,0.264l1.982-0.423
			L199.137,320.715z M207.426,322.539l-1.027,0.232l0.694,0.1l0.388-0.088L207.426,322.539z M208.193,322.62l-0.443,0.345
			l0.344,0.05l0.253-0.197L208.193,322.62z M220.3,323.76l-0.336,0.543l1.633-0.357l-0.706-0.101l-0.404,0.088l0.083-0.134
			L220.3,323.76z M224.88,324.878l-0.093,0.232l0.898,0.362l-0.154-0.332L224.88,324.878z M224.22,325.184l-0.388,0.095l0.427,0.062
			L224.22,325.184z M338.951,325.241l-1.457,0.057l0.004,0.105l0.108,0.141l1.763-0.07L338.951,325.241z M-68.458,325.353
			l-0.417,0.239l-0.076-0.021l-0.02,0.076l-0.859,0.493l1.013-0.274l0.102,0.028l0.416-0.356L-68.458,325.353z M370.588,332.372
			l-2.083,0.445l0.052,0.244l0.353-0.075l0.232,0.375l0.044-0.011l0.246,0.004l-0.262-0.423l2.534-0.541L370.588,332.372z
			 M401.131,332.951l-3.417,0.473l-0.424-0.182l0.704,0.881l0.247-0.092l-0.134-0.168l0.272,0.116l0.339-0.126l-0.557-0.239
			l1.897-0.262L401.131,332.951z M372.406,332.979l-0.162,0.421l0.266,0.004l0.13-0.335L372.406,332.979z M-77.232,333.184
			l-1.725,0.497l0.911,0.2l0.238-0.204l-0.133-0.029l0.251-0.073L-77.232,333.184z M367.225,333.204l-0.173,0.68l0.276-0.069
			l0.139-0.549L367.225,333.204z M388.907,333.315l0.051,0.355l0.579,0.009L388.907,333.315z M363.812,334.065l-0.194,0.158
			l0.351,0.434l0.268-0.067L363.812,334.065z M362.511,334.397l-0.09,0.647l0.261-0.065l0.077-0.548L362.511,334.397z
			 M359.777,334.74l-0.2,0.15l0.547,0.729l0.263-0.066L359.777,334.74z M358.884,334.898l-0.25,0.062v1.031l0.25-0.063V334.898z
			 M392.088,335.259l-0.191,0.071l0.112,0.065L392.088,335.259z M378.751,335.417l0.019,0.212l0.131-0.07L378.751,335.417z
			 M229.286,335.595l0.071,0.151l0.542-0.086L229.286,335.595z M549.962,335.865l0.048,1.49l0.259,0.268l-0.048-1.49
			L549.962,335.865z M356.477,335.88l-0.166,0.186l0.072,0.064l0.523,0.293l0.142-0.035L356.477,335.88z M389.575,336.198
			l-0.069,0.026l0.079,0.047L389.575,336.198z M386.849,337.216l-0.25,0.093v0.335h0.25V337.216z M257.714,337.893l-0.284,0.37
			l0.095,0.038l0.659,0.622l0.153-0.2l-0.176-0.165l0.231,0.093l0.015-0.019l-0.691-0.503L257.714,337.893z M382.356,338.893
			l-0.217,0.081l0.074,0.07L382.356,338.893z M145.077,339.809l-0.67,0.104h-0.001l0.037,0.235l0.048-0.016l1.252,1.872
			l-0.091-0.585l-0.932-1.393L145.077,339.809z M379.405,339.996l-0.244,0.091l0.029,0.331l0.25-0.022L379.405,339.996z
			 M369.226,340.116l0.069,0.572l0.384-0.205L369.226,340.116z M255.885,340.5l-0.047,0.246l0.828,0.16l0.17-0.222L255.885,340.5z
			 M499.506,341.203l-0.395,0.111l-0.08,0.107l-0.011-0.081l-0.243,0.069l0.021,0.149l-0.108-0.034l0.14,0.254l0.04,0.277
			l0.065-0.087l0.207,0.376l0.247-0.069l-0.177-0.322l17.695,5.68l-0.197-0.326l-17.555-5.634L499.506,341.203z M-86.855,341.419
			l-1.004,0.502l0.096,0.698l0.187-0.475l-0.011-0.079l0.053-0.027l0.022-0.057L-86.855,341.419z M374.766,341.728l-0.144,0.053
			l0.041,0.044L374.766,341.728z M372.648,342.517l-0.25,0.094v0.066l-0.056-0.045l-0.273,0.102l0.579,0.467V342.517z
			 M369.536,342.684l0.129,1.064l0.248-0.03l-0.109-0.9L369.536,342.684z M370.089,343.743l-0.08,0.238l0.831,0.279l0.372-0.139
			L370.089,343.743z M487.23,345.103l0.045,0.324l1.106,0.703l-0.045-0.325L487.23,345.103z M252.234,345.259l-0.21,0.138
			l0.556,0.846l0.161-0.211L252.234,345.259z M515.219,347.233l-0.127,0.201l0.244,0.082l0.095-0.15L515.219,347.233z
			 M236.194,348.09l-0.083,1.713l0.25,0.012l0.06-1.238L236.194,348.09z M236.361,349.815L236.361,349.815z M372.067,351.423
			l-0.593,0.847l0.171,0.202l1.803-0.293l-0.545-0.165l-1.065,0.173l0.397-0.566L372.067,351.423z M236.861,351.898l0.152,0.327
			l0.315,0.121l0.09-0.234L236.861,351.898z M146.325,353.104l-0.192,0.163l0.014,0.022l0.21-0.135L146.325,353.104z
			 M146.679,353.134l-0.098,0.23l0.654,0.279l0.213-0.181L146.679,353.134z M-49.552,353.539l-0.073,0.247l-0.099,0.672l0.373-0.023
			l-0.055-0.247l-0.08,0.005l0.046-0.154L-49.552,353.539z M237.841,353.539l-0.143,0.16l0.117,0.251L237.841,353.539z
			 M541.775,355.352l-0.024,0.125l0.272-0.045L541.775,355.352z M-85.54,356.122l-0.359,0.052l0.008,0.055l-0.248,0.427l0.216,0.126
			l0.149-0.257l0.173-0.024l-0.031-0.221L-85.54,356.122z M-94.392,357.296l1.154,2.609l-0.444-1.596l0.096-0.014L-94.392,357.296z
			 M523.325,358.258l-1.062,0.175l0.139,0.231l1.062-0.175L523.325,358.258z M139.604,358.849l-3.387,3.139l-0.11,1.119l0.275-0.233
			l0.075-0.767l2.989-2.772l0.16,0.796l0.218-0.185L139.604,358.849z M51.043,359.349l-0.116,0.319l0.068,0.022l0.098-0.299
			L51.043,359.349z M490.76,363.363l-0.971,0.273l0.034,0.25l1.225-0.345l-0.277-0.1L490.76,363.363z M-2.026,363.779l-0.203,0.355
			l0.045,0.331l0.248-0.034L-2.026,363.779z M-2.562,364.715l-0.143,0.249l0.174-0.057l-0.018-0.055l0.054-0.036L-2.562,364.715z
			 M132.91,364.72l-3.849,3.135l-0.071,1.304l0.263-0.223l0.052-0.957l3.383-2.755l0.042,0.754l0.239-0.203L132.91,364.72z
			 M-84.681,365.113l-0.32,0.553l0.064,0.39l0.472-0.817L-84.681,365.113z M58.105,365.324l1.484,1.874l0.501,0.125l-0.052-0.27
			l-0.306-0.077l-0.661-0.835L58.105,365.324z M266.236,365.773h-0.337l0.082,0.418l-0.274-0.418h-0.299l0.38,0.58l0.199-0.131
			l0.017,0.086l0.248-0.028L266.236,365.773z M528.064,366.103l-0.759,0.677l0.354,0.586l1.476,0.821l-1.692-1.195l0.752-0.672
			L528.064,366.103z M258.197,366.117L258.197,366.117l-0.298,0.657h0.274l0.252-0.554L258.197,366.117z M-2.52,366.159
			l-0.042,0.568l0.288-0.502l0.003-0.048L-2.52,366.159z M238.161,366.503l-0.234,0.088l0.251,0.674l0.188-0.21L238.161,366.503z
			 M236.989,366.85l-0.252,0.022l-0.014,0.221l0.25,0.016L236.989,366.85z M234.089,367.701l-0.621,0.468l0.472-0.042l0.3-0.226
			L234.089,367.701z M225.295,367.896l-0.066,0.006l-0.193,0.269l0.007,0.006L225.295,367.896z M151.151,369.398l-0.333,0.83
			l1.075,0.59l-0.209-0.4l-0.551-0.302l0.17-0.426L151.151,369.398z M127.014,369.527l-0.02,0.017l-0.339,0.403l0.165,0.345
			l0.045-0.422L127.014,369.527z M126.848,369.911L126.848,369.911z M151.683,371.159l-0.208,0.138l0.71,1.077l-0.05-0.53
			L151.683,371.159z M437.287,371.413l0.57,1.096l1.047-0.591l-0.324-0.104l-0.62,0.351l-0.339-0.652L437.287,371.413z
			 M521.401,374.595l0.867,1.04l0.347-0.586l-0.231-0.098l-0.15,0.252l-0.366-0.438L521.401,374.595z M123.505,374.796l-0.25,0.009
			l0.024,0.697l0.241-0.285L123.505,374.796z M184.693,377.685l-0.372,0.345l0.125,0.125l0.381-0.382L184.693,377.685z
			 M444.437,378.014l-0.089,0.084l-0.019,0.155l1.165,0.14l0.238-0.223L444.437,378.014z M5.034,378.109l-0.44,0.359l-0.136-0.145
			l0.042,0.221l-0.15,0.123l0.158,0.194l0.046-0.038l0.058,0.302l0.321,0.347l-0.068-0.353l5.403,5.733l0.201,0.61l0.41,0.443
			l-0.391-1.184l-5.722-6.071l0.438-0.358L5.034,378.109z M119.186,379.059l-10.475,12.198l0.73,0.658l0.161-0.191l-0.542-0.489
			l9.823-11.44l-0.071,1.005l0.273-0.324L119.186,379.059z M-10.845,379.393l-0.044,0.256l0.1,0.046l0.106-0.226L-10.845,379.393z
			 M225.722,379.699l-0.081,0.09l-0.014,1.516l0.253-0.282l0.012-1.323L225.722,379.699z M186.216,379.845l-0.003,0.029l0.239,0.155
			l0.012-0.165L186.216,379.845z M217.8,379.973l-1.052,0.792l0.151,0.2l0.411-0.31L217.8,379.973z M460.83,379.983l1.259,0.403
			l0.966,0.116l0.03-0.248L460.83,379.983z M-10.22,380.217l-0.214,0.128l0.341,0.57l0.065-0.377L-10.22,380.217z M466.755,380.828
			l-0.323,0.599l0.22,0.119l0.345-0.641L466.755,380.828z M-33.638,381.014l-0.396,0.583l-0.024,0.577l0.442-1.045L-33.638,381.014z
			 M492.283,383.099l0.085,0.505l0.246-0.042l-0.074-0.442L492.283,383.099z M-82.144,383.329l0.396,2.446l0.419-0.125l-0.072-0.24
			l-0.215,0.065L-82.144,383.329z M192.694,384.111l0.205,0.134l0.017-0.089L192.694,384.111z M-80.998,384.148l-0.3,1.974
			l0.519-0.747l-0.025-0.03l-0.049-0.302l-0.035,0.051l0.021-0.139L-80.998,384.148z M62.616,384.182l-0.279,0.287l0.058,0.3
			l0.066-0.069l1.636,8.48l-0.101-0.001l0.048,0.25l0.356,0.003L62.616,384.182z M213.06,385.026l-0.093,0.232l0.809,0.324
			l0.15-0.209L213.06,385.026z M96.811,385.637l-0.437,0.508l0.066,0.646l0.185-0.534l0.21-0.607L96.811,385.637z M96.507,386.216
			L96.507,386.216l0.124-0.013L96.507,386.216z M197.164,385.837l9.71,7.103l0.148-0.202l-5.867-4.291L197.164,385.837z
			 M-85.587,386.663l-0.753,0.225l0.072,0.24l1.203-0.36L-85.587,386.663z M217.017,386.878l1.879,0.752l0.093-0.232l-1.147-0.459
			L217.017,386.878z M-33.092,389.195l0.034,0.177l0.031-0.013L-33.092,389.195z M93.804,389.371l-0.008,0.25l0.881,0.028
			l0.21-0.244L93.804,389.371z M172.634,389.453l-0.441,1.191l0.406-0.376l0.269-0.728L172.634,389.453z M93.796,389.621
			L93.796,389.621z M102.154,389.637l0.496,0.266l0.806,0.026l-0.05,0.38l0.236,0.126l0.098-0.748L102.154,389.637z
			 M256.569,391.089l-0.305,0.239l0.41,0.014l0.008-0.25L256.569,391.089z M-41.131,391.151l-0.338,1.552l1.843-0.73l-0.259,0.004
			l0.158-0.233l-1.398,0.554l0.124-0.568L-41.131,391.151z M107.901,391.585l-0.034,0.389l0.249,0.022l0.007-0.071l0.006,0.003
			l0.063-0.187L107.901,391.585z M562.252,391.9l3.483,2.463l1.533-0.256l-0.336-0.197l-1.136,0.189l-2.457-1.736L562.252,391.9z
			 M573.028,392.893l-0.363,0.06l0.343,0.197l0.061-0.011L573.028,392.893z M165.956,393.255l0.835,1.266l-0.067-0.822l-0.263-0.152
			l0.002,0.023l-0.023-0.036L165.956,393.255z M65.212,394.22l1.013,7.656l0.072-0.009l0.045,0.415l0.248-0.026l-0.192-1.806
			L65.212,394.22z M195.66,394.6l-0.132,0.212l0.469,0.293l0.074-0.248L195.66,394.6z M-48.773,394.746l-0.111,0.223l0.209,0.121
			l0.117-0.254L-48.773,394.746z M-13.183,397.156l-0.237,0.078h-0.001l0.345,1.033l0.089-0.521L-13.183,397.156z M-50.103,397.271
			l-0.236,0.082l0.241,0.696l0.074-0.04l0.101-0.218L-50.103,397.271z M23.37,399.247l-0.132,0.029l0.183,0.198L23.37,399.247z
			 M-30.11,399.471l-0.171,1.194l0.248,0.036l0.068-0.474L-30.11,399.471z M581.497,399.871h-0.158l0.158,0.13V399.871z
			 M-14.126,401.624l-0.217,0.124l0.513,0.899l0.067-0.387L-14.126,401.624z M-14.743,402.057l-0.023,0.133l0.065-0.024
			L-14.743,402.057z M-14.95,402.215l0.015,0.039l0.075-0.028L-14.95,402.215z M581.247,402.311v1.294l0.161,0.155h0.089v-1.302
			L581.247,402.311z M-47.222,406.348l0.494,1.427l-0.196-0.048l-0.06,0.243l4.076,1.007l-1.646-0.664l-2.143-0.53l0.211-0.073
			l-0.137-0.397L-47.222,406.348z M32.885,408.241l0.176,0.651l0.242-0.065l-0.098-0.363l-0.032,0.088L32.885,408.241z
			 M76.015,408.819l0.162,0.64l0.09-0.023l-0.059,0.773l0.036,0.027l0.364-1.116l-0.074,0.085L76.015,408.819z M593.358,409.669
			l-0.088,0.038l0.164,0.136L593.358,409.669z M590.345,410.99l-0.961,0.422l0.031,0.07l0.134,0.13l0.991-0.434L590.345,410.99z
			 M-8.242,411.723l-0.253,0.365l0.086,0.06l0.039-0.067l0.708,0.585l2.44,1.693l-3.043-2.516L-8.242,411.723z M-8.496,412.087
			L-8.496,412.087L-8.496,412.087L-8.496,412.087z M190.562,413.423l-1.044,0.006l-0.133,0.447l-0.471,2.354l0.666,0.505
			l0.076-0.256l-0.466-0.353l0.49-2.447l0.808-0.005L190.562,413.423z M-26.782,415.581l-0.064,0.242l0.76,0.203l-0.302-0.339
			L-26.782,415.581z M187.504,423.729l-0.745,0.051l0.017,0.25l0.652-0.045L187.504,423.729z M13.226,425.939l0.974,1.962
			l-0.284-1.483L13.226,425.939z M13.001,427l0.206,0.143l0.215,0.388l0.074-0.045l0.041,0.018l1.172,1.988
			c-0.023,0.007-0.049,0.014-0.077,0.022c-0.029,0.008-0.061,0.018-0.094,0.028l0.142,0.256l0.411-0.15l-1.38-2.341L13.001,427z
			 M186.148,428.302l-0.792,0.349l0.102,0.228l0.596-0.263L186.148,428.302z M185.457,428.88L185.457,428.88h0.001 M98.293,429.99
			l-0.085,0.067l-0.036,0.271l0.529,0.181L98.293,429.99z M98.118,430.128l-0.248,0.196l0.081,0.068L98.118,430.128z M15.92,431.012
			l-0.245,0.58l0.154,0.277l0.321-0.76L15.92,431.012z M-11.799,432.07l3.715,5.062l-0.018,0.006l11.815,13.337l0.558-0.432
			l-0.079-0.013l-0.127-0.143l-0.32,0.248l-11.399-12.868l0.223-0.066l-0.072,0.153h-0.001l0.708,0.335l-0.426-0.479l-0.092-0.043
			l0.042-0.012l-0.184-0.207l-0.373,0.109l-2.206-3.005L-11.799,432.07z M115.8,435.72l-0.511,0.616l0.352-0.056l0.127,0.044
			L115.8,435.72z M116.165,435.72l-0.121,0.016l0.032,0.248l0.25-0.033L116.165,435.72z M155.235,436.599l-0.215,0.497h0.072
			l0.067,0.332l0.123-0.333l0.099-0.001l-0.052-0.126l0.13-0.351L155.235,436.599z M19.236,437.359l-0.244,0.209l0.124,0.224
			l0.056-0.048l4.599,7.872l-0.169,0.26l0.137,0.247l0.326-0.5L19.236,437.359z M86.342,440.681l-1.564,0.248l-0.056-0.071
			l-0.128,0.101l-0.276,0.043l-0.13,0.103l-0.03,1.297l0.254-0.2l0.022-0.965l0.238-0.038l0.387,0.493l0.197-0.155l-0.301-0.382
			l0.984-0.157L86.342,440.681z M83.695,441.493l-0.013,0.009l-0.358,1.556l0.313-0.247l0.292-1.265L83.695,441.493z
			 M205.71,443.585l-0.628,0.727l-0.107-0.066l-0.163,0.248l-0.129-0.426l-0.321-0.197l0.365,1.206L205.71,443.585z M18.944,452.595
			l0.387,0.304l0.138-0.213L18.944,452.595z M97.77,457.458l-0.017,0.047l0.033-0.026L97.77,457.458z M132.332,458.922l0.782,2.708
			l0.025-1.55l-0.244-0.35l-0.004,0.227l-0.114-0.397L132.332,458.922z M59.203,462.035l-0.121,0.126l0.139-0.109L59.203,462.035z
			 M38.74,471.098l1.011,3.061l0.238-0.078l-0.598-1.811L38.74,471.098z M39.76,472.935l0.555,2.459l0.188-1.119l-0.194-0.35
			l-0.029,0.175l-0.087-0.385L39.76,472.935z M67.472,473.889l-0.108,0.226l0.699,0.333l-0.324-0.381l-0.132-0.113L67.472,473.889z
			 M89.226,481.729l-0.092,0.263l-0.061,0.067l0.593,0.178L89.226,481.729z M80.182,488.686l0.945,2.105l0.228-0.102l-0.593-1.322
			L80.182,488.686z"/>
	</g>
	<path fill="#ABFF4F" d="M170.349,92.145l-0.082,0.039l-0.11,0.141l3.509,7.516l-1.397,2.817l-5.505-4.619v0.327l5.425,4.552
		l0.622,7.828l-6.395-3.032l-0.081,0.238l6.481,3.073l-1.084,7.424l-5.404-10.477l-0.112,0.329l5.429,10.525l-3.766,3.509
		l-3.969-5.034l-0.03,0.367l3.847,4.878l-2.007,6.849l-2.367,4.937l-0.003-0.038l-0.159,0.367l-2.47-0.632l-0.132,0.225l2.501,0.639
		l-4.665,10.731l-3.64-0.925l-0.072,0.24l3.707,0.942l1.845,2.756l-6.364,0.093l0.029,0.25l6.417-0.094l-1.269,7.139l-3.128,0.56
		l-0.014-0.535l-0.15,0.428l-1.472-1.857l-0.022,0.375l1.309,1.651l-0.173,0.031l0.246,0.119l-1.771,5.046l-0.051,0.902l1.869-5.328
		l0.355,13.741l0.274,0.913l-0.391-15.136l3.923,1.902l-3.45,13.507l0.232,0.774h0.002l5.072-13.157l1.389,10.568l-6.02,2.75
		l0.335,0.122l5.836-2.666l3.304,0.673l3.344,6.537l0.345,0.126l-3.476-6.796l1.554-11.392l6.488,8.833l5.58,9.234l0.283-0.017
		l-5.61-9.28l6.513-8.25l5.181,0.294l-3.01,10.099l0.231,0.097l3.013-10.107l3.469,2.515l-0.579,0.528l0.602-0.309l-1.634,7.99
		l0.148-0.127h-0.001l0.162-0.139l1.611-7.871l4.825-2.479l-6.052,10.02l0.607-0.522l5.779-9.568l1.822,3.037l0.193-0.166
		l-1.838-3.064l0.029-0.015l-0.025-0.027l3.526-3.102l0.101-0.422l-3.777,3.323l-0.03-0.049l-0.023,0.037l-0.938-0.987l-2.582-6.241
		l7.449,3.504l0.059-0.249l-7.689-3.616l5.987-5.997l-0.176-0.177l-5.504,5.513l5.521-10.191v-0.736l-10.733,5.212l4.123-7.13
		l3.998-3.559l-0.145-0.258l-8.13-6.053l1.769-3.541l0.202-0.993l-0.278,0.114l-0.163,0.797l-1.701,3.407l-6.219-9.859l-0.5-9.961
		l3.367,2.064l5.75,9.501l0.053-0.395l-5.58-9.22l1.768-8.896l-0.035-0.145l-0.275,0.422l-1.678,8.442l-3.323-2.037l2.627-3.404
		l-0.116-0.259l-2.7,3.497l-5.723-6.824l4.878-4.266l-0.165-0.188l-4.806,4.203l-0.385-1.989l1.893-2.035l-0.183-0.17l-1.81,1.946
		L170.349,92.145z M172.565,102.623l1.187-2.394l0.349,1.8L172.565,102.623z M172.442,102.939l1.647-0.638l-1.099,7.533
		L172.442,102.939z M173.079,110.955l1.248-8.554l5.658,6.747l-5.173,6.727l-2.837,2.643l1.077-7.381l0.043,0.02L173.079,110.955z
		 M172.461,133.331l2.564-17.323l4.99-6.489l-0.329,22.08L172.461,133.331z M182.134,133.335l-2.199-1.697l0.278-18.647l0.323,6.424
		l6.315,10.008L182.134,133.335z M171.917,118.914l2.813-2.621l-2.477,16.731l-4.24-10.472l3.751-3.495l0.103,0.2L171.917,118.914z
		 M172.049,133.184l-6.065-3.801l1.9-6.484L172.049,133.184z M182.793,140.031l-0.526-6.481l4.752-3.942l8.126,6.05l-3.847,3.423
		L182.793,140.031z M172.856,137.612l-9.418-2.881l2.451-5.111l6.306,3.952L172.856,137.612z M173.944,137.251l5.809-5.331
		l2.783,8.215l-6.328,6.312l-0.017-0.086l-0.011,0.019L173.944,137.251z M172.48,133.583l6.889-1.651l-5.515,5.063l-1.284-3.189
		v0.001l-0.081-0.202L172.48,133.583z M182.472,139.171l-2.411-7.121l1.956,1.51L182.472,139.171z M173.133,137.759l-0.518-3.172
		l1.07,2.658l1.707,6.969L173.133,137.759z M164.149,145.054l-0.748-10.073l9.354,2.862L164.149,145.054z M158.694,145.629
		l4.482-10.307l0.733,9.87L158.694,145.629z M173.804,137.21l0.001-0.001L173.804,137.21z M175.946,146.554l-11.6-1.339l8.607-7.213
		L175.946,146.554z M182.736,140.288l8.384-0.936l-4.177,7.224h-10.511L182.736,140.288z M187.076,160.159l0.063-13.379
		l10.872-5.279l-6.099,11.258L187.076,160.159z M158.719,145.878l5.218-0.437l1.688,10.752l-4.996-7.462l0.017-0.1l-0.083,0.001
		L158.719,145.878z M165.954,156.678l-1.762-11.229l11.729,1.354l-7.671,12.545L165.954,156.678z M176.281,146.826h10.456
		l-8.587,9.706L176.281,146.826z M186.825,160.393l-8.542-3.635l8.605-9.725L186.825,160.393z M168.483,159.447l7.585-12.405
		l1.872,9.726l-0.074,0.085l0.138,0.058l3.222,3.221L168.483,159.447z M159.316,156.116l1.25-7.03l5.082,7.591l-5.088,2.157
		L159.316,156.116z M187.204,160.419l4.86-7.435l0.013,0.006l2.633,6.367L187.204,160.419z M157.393,156.58l1.72-0.308l1.126,2.46
		l-4.01-1.943L157.393,156.58z M161.926,159.474l0.035-0.091l-1.12-0.397l4.949-2.097l0.257,0.384l-0.019-0.126l2.107,2.452
		l-1.575,11.549l-3.185-0.649L161.926,159.474z M181.615,160.153l-0.016-0.001l-2.979-2.979l7.621,3.243l-4.449-0.253l0.001-0.001
		L181.615,160.153z M156.676,172.396l3.435-13.448l0.084,0.041l-0.043,0.018l0.296,0.105l0.307,0.149l-0.022-0.048l0.902,0.32
		L156.676,172.396z M191.463,162.75l3.419-3.117l0.868,0.913L191.463,162.75z M190.676,163.129l-3.403-2.467l7.231-1.023
		L190.676,163.129z M174.942,168.437l-6.418-8.738l12.773,0.687L174.942,168.437z M155.707,142.578l-0.582,0.991l-0.01,0.032
		L155.707,142.578z M152.92,148.957l-0.011,0.038h0.015L152.92,148.957z M153.006,164.401l-0.048,0.136l0.099,0.035L153.006,164.401
		z M198.492,164.565l-0.193,0.166l0.012,0.02l0.215-0.129L198.492,164.565z M183.486,171.76l-1.745,5.856l0.349-0.299l1.628-5.46
		L183.486,171.76z M188.859,172.84l-0.074,0.064l0.056,0.023L188.859,172.84z M156.022,173.948l-0.112,0.439l0.237,0.076
		l0.159-0.412L156.022,173.948z M181.624,178.882l-0.265,0.015l-0.025,0.085l-0.049-0.081l-0.15,0.009l-0.114,0.039l0.388,0.641
		l0.004-0.002L181.624,178.882z M170.595,179.253l0.35,0.683l0.222-0.114l-0.227-0.444L170.595,179.253z M104.41,260.072
		l-2.198,4.209l-1.168-1.122l-0.096,0.254l1.161,1.115l-0.241,1.113l-2.838-2.219h-0.218l-0.053,0.106l3.004,2.349l-3.822,4.074
		l-1.522-1.763l-0.122,0.242l1.444,1.672l-2.161,1.184l-0.943-4.239l-0.248-0.34l-0.045,0.172l1.016,4.571l-3.588,5.3l0.055,0.365
		l3.753-5.545l2.219-1.215l-0.334,5.953l-4.184,5.928l-1.043-1.868l-0.331-0.121l0.016,0.07l1.18,2.113l-4.992,3.324l-0.093,0.362
		l5.247-3.493l3.188,2.364l-0.321,3.535l0.33-0.871l0.241-2.653l1.034-0.713l0.155-0.411l-1.306,0.9l-3.145-2.331l4.27-6.049
		l0.158-2.825l0.167,9.988l0.627,0.515l4.42,0.946l-0.092,0.205l0.002-0.001l-0.79,1.754l0.029,0.024l0.062,0.051l-0.037,0.138
		l0.103,0.046l0.594-1.319l-0.29,1.588l-1.646,4.204l-0.378,1.38l-0.296-0.264h-7.007l-2.768-4.281l5.604,0.561l-0.195-0.174
		l0.035-0.094l-5.655-0.565l1.133,2.159l1.617,2.501l0.16-0.159l0.299,0.302h6.944l-1.241,5.762l0.206,0.209l-0.475,0.181
		l-2.065,1.845l-0.002,0.001l-0.213,0.01l-2.999,0.152l-0.439,0.167l-0.076,0.05l3.019,9.058l0.273,0.029l-3.014-9.041l3.448-0.175
		l4.384,4.967l-3.001,4.437l0.282,0.029l2.978-4.403l4.351-5.296l1.04,6.81l-2.029,3.546l0.272,0.028l1.966-3.437l2.219-0.404
		l4.15,1.694l0.328-0.107l0.009-0.026l-4.335-1.77l0.916-6.237l3.434,7.962l0.435-1.296l0.235-8.16l1.143,2.911l-0.052-0.816
		l-1.038-2.644l0.283-0.123l-0.198-0.032l0.723-0.815l-0.022-0.351l-0.905,1.019l-0.149-0.38l-0.013,0.469l-2.055-0.329
		l-0.843-4.242l4.285,0.057l0.032-0.25l-4.223-0.055l1.184-1.582l2.334-0.53l-0.081-0.238l-2.256,0.512l-3.126-6.428l1.339-0.306
		l-0.767-0.081l-0.685,0.156l-0.155-0.32l-0.003,0.032l-1.544-2.88l-1.352-4.123l2.484-2.817l-0.03-0.344l-2.609,2.959l-2.5-2.084
		l3.525-6.106l-0.115-0.301l-3.503,6.07l-0.711-4.356l4.19-1.776l-0.089-0.234l-4.097,1.737l0.413-4.654l3.586-2.69v-0.312
		l-3.665,2.749l-0.914-1.647l2.199-4.21L104.41,260.072z M102.093,265.781l0.205-0.944l0.696,1.255L102.093,265.781z
		 M102.788,270.235l-0.683-4.186l1.024,0.355L102.788,270.235z M98.105,270.141l3.76-4.008l0.834,5.108l-0.017,0.189l0.044-0.018
		l0.704,4.31l-1.845-1.537L98.105,270.141z M98.289,283.736l-0.222-13.256l3.313,3.85l1.728,10.438L98.289,283.736z
		 M103.318,284.501l-1.642-9.915l1.815,1.513l0.049,0.3l0.101-0.175l2.488,2.073L103.318,284.501z M103.533,284.633l2.73-6.028
		l1.247,3.8L103.533,284.633z M103.374,285.008l4.237-2.373l1.614,3.011l-6.282,1.718L103.374,285.008z M103.064,287.59l6.206-1.697
		l-0.497,5.975L103.064,287.59z M109.014,291.988l0.482-5.799l2.943,6.054L109.014,291.988z M100.857,292.804l1.984-5.068
		l5.707,4.276L100.857,292.804z M107.874,298.55l1.108-6.313l3.428,0.255l-1.184,1.581l-0.09-0.001l0.019,0.096L107.874,298.55z
		 M100.887,293.052l7.84-0.807l-1.183,6.739l-1.519,1.579L100.887,293.052z M97.333,301.053l2.124-1.9l1.27-5.893l5.052,7.386
		L97.333,301.053z M107.86,298.985l3.36-4.487l0.827,4.162l-0.819,1.601L107.86,298.985z M111.558,300.165l0.691-1.349l1.768,0.283
		L111.558,300.165z M107.447,299.537l0.257-0.344l3.204,1.215l-0.542,0.172l-0.132,0.042l0.041,0.094l-0.977,6.646l-2.097,0.382
		l-1.059-6.942l1.324-1.376L107.447,299.537z M111.757,300.351l2.572-1.115l-0.265,9.19L111.757,300.351z M111.332,300.535
		l0.2-0.063l2.139,7.487l-3.098-7.182l0.468-0.149l-0.022,0.043L111.332,300.535z M97.253,301.307l8.48-0.408l-4.262,5.186
		L97.253,301.307z M98.129,283.956l-0.03,0.079l0.068-0.047L98.129,283.956z M96.378,288.58l-0.105,0.277l0.074,0.066L96.378,288.58
		z M93.173,293.031l0.028,0.043h0.015L93.173,293.031z M89.611,296.642l-4.971,2.09l0.065,0.244l4.742-1.994L89.611,296.642z
		 M89.872,296.677l-0.077,0.159l0.122-0.052L89.872,296.677z M96.313,310.77l0.266,0.8l0.354,0.271l-0.347-1.043L96.313,310.77z
		 M98.158,310.961l-0.748,1.106l0.291,0.015l0.738-1.092L98.158,310.961z M104.802,311.649l-0.344,0.601l0.354-0.116l0.262-0.457
		L104.802,311.649z"/>
	<path fill="#ABFF4F" d="M170.266,92.184l-0.144,0.068l0.034,0.073L170.266,92.184z M166.111,97.492l-0.161,0.192l0.813,0.682V98.04
		L166.111,97.492z M185.803,101.61l-2.962,3.838l0.116,0.259l2.394-3.101l-0.02,0.1l0.275-0.421l0.034,0.145L185.803,101.61z
		 M165.75,107.399l0.465,0.902l0.112-0.328l-0.016-0.032l0.023,0.011l0.082-0.238L165.75,107.399z M163.361,116.606l-0.197,0.154
		l0.716,0.908l0.029-0.367L163.361,116.606z M189.453,120.545l-0.054,0.396l0.217,0.358l-0.751,3.692l0.279-0.113l0.737-3.625
		L189.453,120.545z M160.401,133.948l-0.169,0.294l0.144-0.027l0.039,0.209l0.108-0.187l0.066,0.017l0.131-0.224L160.401,133.948z
		 M160.391,134.467l-0.324,0.06l-5.741,9.942l-0.117-0.033l-1.289,4.522l0.004,0.037l0.04-0.001l0.075,0.639l0.011-0.002l0.04,0.246
		l-0.022,0.004l0.489,4.188l0.735,0.928l0.021-0.376l-0.516-0.651l-0.581-4.979l0.713-0.011l-0.029-0.249l-0.658,0.01l1.11-3.894
		l0.361,0.092l0.072-0.239l-0.265-0.068l0.595-1.03l0.01-0.032l0.581-0.991L160.391,134.467z M195.302,135.464l0.146,0.259
		l0.092-0.082L195.302,135.464z M198.6,140.937l-0.54,0.263v0.736L198.6,140.937z M199.921,156.404l-0.06,0.248l0.242,0.114
		l-0.341,0.3l-0.101,0.421l0.337-0.296l-0.011-0.016l0.127-0.087l0.44-0.386L199.921,156.404z M153.903,161.844l-0.898,2.557
		l0.052,0.171l0.136,0.048l0.658-1.874L153.903,161.844z M197.97,163.696l-0.193,0.165l0.522,0.87l0.193-0.165L197.97,163.696z
		 M190.176,170.393l-0.607,0.522l-0.479,0.792l0.095-0.462l-0.162,0.139l0.001-0.001l-0.149,0.127l-0.306,1.498l0.245,0.05
		l0.026-0.13l-0.056-0.024l0.074-0.063l0.083-0.403L190.176,170.393z M183.773,170.796l-0.287,0.964l0.232,0.098l0.287-0.964
		L183.773,170.796z M156.076,171.159l0.06,2.34l-0.114,0.45l0.284,0.103l0.062-0.161l1.073-0.49l-0.335-0.122l-0.61,0.279
		l0.17-0.439l-0.003-0.001l-0.232-0.774l-0.067,0.266l-0.014-0.539L156.076,171.159z M188.814,173.058L188.814,173.058
		 M182.09,177.318l-0.35,0.299l-0.272,0.913l0.291-0.1L182.09,177.318z M180.7,177.934l-0.283,0.016l0.471,0.781l0.243-0.084
		L180.7,177.934z M169.926,177.946l0.669,1.307l0.345,0.126l-0.669-1.308L169.926,177.946z M181.67,178.725l-0.29,0.101
		l-0.021,0.072l0.265-0.016L181.67,178.725z M181.263,178.866l-0.128,0.045l0.15-0.009L181.263,178.866z M104.56,259.786
		l-0.15,0.286l0.176,0.203l0.195-0.373L104.56,259.786z M107.453,263.018l-0.486,0.364v0.312l0.635-0.476L107.453,263.018z
		 M98.647,263.124l-0.153,0.197h-0.001l0.265,0.207l0.053-0.105h0.218L98.647,263.124z M101.016,263.133l-0.173,0.18l0.104,0.1
		l0.097-0.253L101.016,263.133z M94.015,265.406l0.328,1.473l0.046-0.171l0.248,0.34l-0.162-0.728l1.822,2.111l0.121-0.242
		L94.015,265.406z M107.822,268.981l-0.757,0.321l0.089,0.234l0.078-0.033l-0.055,0.095l0.115,0.301L107.822,268.981z
		 M109.315,274.633l-0.438,0.497l0.03,0.343l0.595-0.674L109.315,274.633z M91.771,276.751l-0.494,0.73l0.629,2.767l0.332,0.121
		l-0.08-0.143l-0.613-2.695l0.281-0.415L91.771,276.751z M111.369,285.149l-1.208,0.276l0.768,0.082l0.325-0.075l4.022,6.228
		l-0.304,0.069l0.08,0.238l0.386-0.088l0.72,2.26l-0.4-0.005l-0.033,0.25l0.463,0.006l-0.127,0.97l0.07-0.152l0.191,0.088
		l0.118-0.903l0.062,0.001l-0.904-2.837l-0.075,0.023L111.369,285.149z M88.111,285.754l-0.482,0.321l0.206,0.164l0.183-0.122
		L88.111,285.754z M116.05,295.446l-0.248,1.895l-0.397,0.448l0.022,0.352l0.614-0.691l0.247-1.894L116.05,295.446z M84.639,298.733
		l-0.465,0.196l0.097,0.23l0.434-0.182L84.639,298.733z M115.658,301.754l0.051,0.816l0.505,1.286l0.233-0.092L115.658,301.754z
		 M114.331,307.819l-0.434,1.296l0.027,0.063l-0.043-0.017l-0.008,0.025l-0.329,0.107l0.521,0.213l0.143,0.33l0.235-0.083
		l-0.152-0.532L114.331,307.819z M96.579,311.571l0.438,1.315l0.018-0.337l-0.018,0.337l0.047,0.139l0.637-0.942l-0.292-0.015
		l-0.268,0.397l-0.208-0.624L96.579,311.571z M104.812,312.135l-0.354,0.115l-0.453,0.792l0.217,0.124L104.812,312.135z"/>
	<path fill="#BAFF6B" d="M181.134,178.91l-0.133,0.008l0.019,0.032L181.134,178.91z M181.413,179.588l-0.005,0.003l0.003,0.004
		L181.413,179.588z M98.035,283.557l0.004,0.216l-0.147,0.101l-0.156,0.411l0.362-0.249l0.03-0.079l0.039,0.031l0.025-0.017
		l0.47,0.101L98.035,283.557z M102.202,286.976l-0.054,0.12l0.004,0.001l0.079-0.097l-0.079,0.097l-0.004-0.001l-0.017,0.037
		l0.125,0.056l0.037-0.137L102.231,287L102.202,286.976z M96.461,287.651l-0.33,0.872l-0.029,0.323l-0.09-0.009l-0.035,0.093
		l0.195,0.174l0.156,0.015l0.018-0.196l-0.074-0.065l0.105-0.277L96.461,287.651z M90.076,288.244l0.07,0.108l0.088-0.046
		l0.034-0.043L90.076,288.244z M90.268,288.263l-0.034,0.043l-0.088,0.046l1.344,2.079l-1.133-2.159L90.268,288.263z
		 M101.017,291.708l-0.382,0.977l-0.031-0.046l-0.04,0.186h-0.221l0.296,0.263L101.017,291.708z M93.267,292.773l-0.16,0.158
		l0.065,0.1l0.043,0.044h0.351L93.267,292.773z M89.82,296.554l-0.209,0.088l-0.165,0.341l0.348-0.147l0.077-0.159L89.82,296.554z
		 M99.269,298.836l-0.04,0.185l-0.228,0.205l0.475-0.181L99.269,298.836z M93.721,301.235l-0.578,0.029l0.063,0.187l0.076-0.049
		L93.721,301.235z M96.225,310.51l0.087,0.26l0.273,0.028l-0.087-0.26L96.225,310.51z M98.316,310.726l-0.159,0.235l0.282,0.029
		l0.159-0.235L98.316,310.726z M104.937,311.412l-0.136,0.237l0.272,0.028l0.136-0.237L104.937,311.412z"/>
	<path fill="#ABFF4F" d="M160.376,134.215L160.376,134.215l-0.145,0.027l-0.164,0.285l0.324-0.061l0.024-0.042L160.376,134.215z
		 M153.05,149.63l-0.011,0.002l0.029,0.248l0.022-0.003L153.05,149.63z M200.114,157.088l-0.127,0.087h-0.001l0.011,0.016
		L200.114,157.088z M181.758,178.429l-0.29,0.101l-0.088,0.295l0.29-0.1L181.758,178.429z M181.13,178.647l-0.242,0.083l0.113,0.188
		l0.134-0.008l0.128-0.044L181.13,178.647z M87.629,286.075l-0.088,0.058l0.138,0.209l0.155-0.104L87.629,286.075z M116.131,295.208
		l-0.07,0.152l-0.011,0.086l0.238,0.11l0.034-0.26L116.131,295.208z"/>
</g>
</svg>
