<?xml version="1.0" encoding="utf-8"?>
<!-- Generator: Adobe Illustrator 17.0.0, SVG Export Plug-In . SVG Version: 6.00 Build 0)  -->
<!DOCTYPE svg PUBLIC "-//W3C//DTD SVG 1.1//EN" "http://www.w3.org/Graphics/SVG/1.1/DTD/svg11.dtd">
<svg version="1.1" id="Layer_1" xmlns="http://www.w3.org/2000/svg" xmlns:xlink="http://www.w3.org/1999/xlink" x="0px" y="0px"
	 width="960px" height="519.179px" viewBox="0 0 960 519.179" enable-background="new 0 0 960 519.179" xml:space="preserve">
<g>
	<polyline fill="none" stroke-width="5" stroke="#ABFF4F" stroke-miterlimit="10" points="16.246,504.484 85.864,504.484 
		85.864,430.617 155.483,430.617 156.557,454.463 202.509,454.463 204.233,504.484 357.401,504.484 357.401,344.427 
		336.497,344.427 336.497,323.904 350.422,323.904 350.422,239.651 336.497,239.651 336.497,194.371 350.422,194.371 
		350.512,174.366 340.962,174.366 340.962,141.625 350.512,141.625 350.512,132.265 340.962,122.911 340.962,112.853 
		350.512,112.853 350.512,94.843 362.507,94.843 362.507,39.314 365.047,9.304 369.359,9.304 372.718,39.314 372.718,94.335 
		383.142,112.853 393.141,112.853 393.141,123.408 388.036,123.408 388.036,159.36 382.93,169.36 382.93,174.366 395.697,186.868 
		398.247,194.371 408.459,194.371 408.459,234.386 403.353,239.386 403.353,324.417 413.564,324.417 413.564,344.427 
		403.353,344.427 403.353,504.484 423.776,504.484 423.776,424.453 433.988,419.453 469.728,419.453 479.939,429.458 
		479.939,474.473 500.362,474.473 500.362,399.448 546.314,399.448 556.526,404.448 556.526,439.458 561.632,439.458 
		561.632,434.458 587.16,434.458 597.367,444.463 622.896,444.463 622.896,474.473 663.742,474.473 663.742,464.468 
		679.059,464.468 679.059,439.458 709.694,439.458 730.117,444.463 730.117,504.484 750.54,494.478 750.54,404.448 765.857,399.448 
		801.597,399.448 801.597,444.463 816.915,444.463 816.915,479.473 822.02,479.473 822.02,474.473 862.866,474.473 862.866,504.484 
		944.559,504.484 	"/>
</g>
</svg>
