<?xml version="1.0" encoding="utf-8"?>
<!-- Generator: Adobe Illustrator 17.0.0, SVG Export Plug-In . SVG Version: 6.00 Build 0)  -->
<!DOCTYPE svg PUBLIC "-//W3C//DTD SVG 1.1//EN" "http://www.w3.org/Graphics/SVG/1.1/DTD/svg11.dtd">
<svg version="1.1" xmlns="http://www.w3.org/2000/svg" xmlns:xlink="http://www.w3.org/1999/xlink" x="0px" y="0px"
	 width="569.846px" height="276.937px" viewBox="0 0 569.846 276.937" enable-background="new 0 0 569.846 276.937"
	 xml:space="preserve">
<g id="Layer_2">
</g>
<g id="Layer_1">
	<g>
		<g opacity="0.17">
			<g>
				<path fill="#FFFFFF" d="M115.628,214.409l-3.427-2.127l5.709-5.908l2.356,5.367L115.628,214.409z M108.162,215.593l-0.734,3.676
					l-4.591,0.574l-0.656-4.02l5.933-2.605l2.377-0.297L108.162,215.593z M104.131,208.358l3.527-0.168l-0.102,0.164l0.414-0.091
					l-0.37,4.258l-5.248,2.304L104.131,208.358z M105.559,200.59l2.836-3.946l2.124,6.94l-2.318,3.734l-4.194,0.201l-3.218-4.187
					L105.559,200.59z M109.326,207.102l1.844-2.965l5.132,1.44L109.326,207.102z M111.451,211.816l-0.13,0.148l-2.854,0.36
					l0.316-3.664l0.052-0.586l7.934-1.736l-5.305,5.488L111.451,211.816z M118.544,205.717l0.774-0.802l-1.263,0.277l-6.741-1.893
					l-2.616-8.55l-3.64,5.155l-5.526,3.176l3.811,4.962l-1.984,7.221l-0.115,0.051l0.892,5.471l6.002-0.755l0.809-4.051l2.669-3.068
					l3.995,2.481l5.733-3.297L118.544,205.717z"/>
			</g>
		</g>
		<g opacity="0.17">
			<g>
				<path fill="#FFFFFF" d="M241.9,144.666l-3.777-1.415l4.442-6.911l3.361,4.802L241.9,144.666z M234.81,147.289v3.749l-4.39,1.461
					l-1.431-3.814l5.308-3.716l2.272-0.757L234.81,147.289z M229.441,140.982l3.426-0.855l-0.068,0.181l0.388-0.17l0.471,4.248
					l-4.695,3.286L229.441,140.982z M229.321,133.086l2.009-4.425l3.441,6.39l-1.542,4.115l-4.074,1.018l-3.976-3.476
					L229.321,133.086z M234.289,138.734l1.228-3.269l5.315,0.408L234.289,138.734z M237.296,142.941l-0.098,0.17l-2.728,0.912
					l-0.408-3.655l-0.063-0.584l7.441-3.256l-4.128,6.42L237.296,142.941z M243.058,135.572l0.602-0.938l-1.184,0.519l-6.981-0.536
					l-4.239-7.873l-2.56,5.768l-4.798,4.196l4.708,4.12l-0.532,7.469l-0.103,0.072l1.945,5.19l5.738-1.915v-4.13l2.017-3.531
					l4.403,1.651l4.977-4.355L243.058,135.572z"/>
			</g>
		</g>
		<g opacity="0.17">
			<g>
				<path fill="#FFFFFF" d="M387.453,77.993l-3.777-1.415l4.442-6.911l3.361,4.802L387.453,77.993z M380.363,80.617v3.749
					l-4.39,1.461l-1.431-3.814l5.308-3.716l2.272-0.757L380.363,80.617z M374.994,74.31l3.426-0.855l-0.068,0.181l0.388-0.17
					l0.471,4.248l-4.695,3.286L374.994,74.31z M374.874,66.413l2.009-4.425l3.441,6.39l-1.542,4.115l-4.074,1.018l-3.976-3.476
					L374.874,66.413z M379.842,72.062l1.228-3.269l5.315,0.408L379.842,72.062z M382.849,76.268l-0.098,0.17l-2.728,0.912
					l-0.408-3.655l-0.063-0.584l7.441-3.256l-4.128,6.42L382.849,76.268z M388.611,68.899l0.602-0.938l-1.184,0.519l-6.981-0.536
					l-4.239-7.873l-2.56,5.768l-4.798,4.196l4.708,4.12l-0.532,7.469l-0.103,0.072l1.945,5.19l5.738-1.915v-4.13l2.017-3.531
					l4.403,1.651l4.977-4.355L388.611,68.899z"/>
			</g>
		</g>
		<g opacity="0.17">
			<g>
				<path fill="#FFFFFF" d="M218.975,212.507l-8.435-3.723l10.007-3.206l4.149,8.071L218.975,212.507z M200.441,212.541l8.517-3.219
					l0.382,7.948L200.441,212.541z M211.946,216.301l-1.759,0.99l-0.381-7.908l8.098,3.573L211.946,216.301z M218.337,201.309
					l1.489,3.613l-9.919,3.177l1.752-8.777L218.337,201.309z M225.616,213.595l-6.142-11.954l15.884,4.592l-3.195,2.416
					L225.616,213.595z M233.358,208.802l3.855-2.913l-0.745-0.213l-24.899-7.261l-0.556-0.167l-0.001,0.004l-1.97,9.87l-0.143-0.062
					l0.016,0.375l-10.516,3.976l10.99,5.841l0.021,0.442l2.482-1.395l7.027-3.943l6.27,1.252l0.136,0.265l0.249-0.188
					L233.358,208.802z"/>
			</g>
		</g>
		<g opacity="0.17">
			<g>
				<path fill="#FFFFFF" d="M342.875,122.571l-9-2l9.186-5.103l5.648,7.103H342.875z M324.706,126.233l7.722-4.824l1.93,7.72
					L324.706,126.233z M336.725,127.668l-1.531,1.315l-1.921-7.681l8.64,1.919L336.725,127.668z M340.057,111.715l2.168,3.252
					l-9.105,5.057v-8.95L340.057,111.715z M349.6,122.338l-8.363-10.52l16.476,1.394l-2.661,2.994L349.6,122.338z M356.254,116.123
					l3.21-3.611l-0.772-0.063l-25.838-2.246l-0.578-0.055v0.004v10.064l-0.153-0.033l0.089,0.364l-9.535,5.958l11.92,3.577
					l0.107,0.43l2.161-1.854l6.119-5.243h6.394l0.185,0.233l0.207-0.233L356.254,116.123z"/>
			</g>
		</g>
		<g opacity="0.17">
			<g>
				<path fill="#FFFFFF" d="M488.428,55.899l-9-2l9.186-5.103l5.648,7.103H488.428z M470.26,59.561l7.722-4.824l1.93,7.72
					L470.26,59.561z M482.278,60.996l-1.531,1.315l-1.921-7.681l8.64,1.919L482.278,60.996z M485.61,45.043l2.168,3.252
					l-9.105,5.057v-8.95L485.61,45.043z M495.154,55.666l-8.363-10.52l16.476,1.394l-2.661,2.994L495.154,55.666z M501.807,49.451
					l3.21-3.611l-0.772-0.063l-25.838-2.246l-0.578-0.055v0.004v10.064l-0.153-0.033l0.089,0.364l-9.534,5.958l11.92,3.577
					l0.107,0.43l2.161-1.854l6.119-5.243h6.394l0.185,0.233l0.207-0.233L501.807,49.451z"/>
			</g>
		</g>
		<g opacity="0.17">
			<g>
				<path fill="#FFFFFF" d="M55.735,220.11l8.245,0.661l-4.072,8.058L55.735,220.11z M61.094,212.527L64,219.925l-8.151-0.653
					L61.094,212.527z M74.345,218.915l-9.43,1.031l-2.897-7.377L74.345,218.915z M65.656,228.286l-4.998,0.928l4.231-8.371
					l0.392,0.032l-0.046-0.116l9.362-1.022L65.656,228.286z M76.978,218.626l-1.109,0.121l-14.318-7.368l-0.212-0.543l-0.446,0.574
					l-6.349,8.168l-0.32,0.412l0.536,0.043l4.668,9.747l-0.29,0.574l0.52-0.096l6.401-1.186l10.45-9.994L76.978,218.626z"/>
			</g>
		</g>
		<g opacity="0.17">
			<g>
				<path fill="#FFFFFF" d="M251.6,165.755l8.245,0.661l-4.072,8.058L251.6,165.755z M256.959,158.172l2.906,7.398l-8.151-0.653
					L256.959,158.172z M270.21,164.559l-9.43,1.031l-2.897-7.377L270.21,164.559z M261.521,173.931l-4.998,0.928l4.231-8.371
					l0.392,0.031l-0.046-0.116l9.362-1.022L261.521,173.931z M272.843,164.271l-1.109,0.121l-14.318-7.368l-0.212-0.543
					l-0.446,0.574l-6.349,8.168l-0.32,0.412l0.536,0.043l4.668,9.747l-0.29,0.574l0.52-0.096l6.401-1.186l10.45-9.994
					L272.843,164.271z"/>
			</g>
		</g>
		<g opacity="0.17">
			<g>
				<path fill="#FFFFFF" d="M188.361,175.444l3.428-2.287l-2.678,4.011l-2.249,1.873L188.361,175.444z M193.388,181.564l3.885-0.356
					l-4.121,4.125L193.388,181.564z M193.284,172.437l4.424,7.882l-4.556,0.42l-3.187-3.331L193.284,172.437z M188.696,182.411
					l-2.232-1.942l2.93-2.437l3.161,3.304l-0.264,4.206L188.696,182.411z M193.071,186.607l5.85-5.855l-5.461-9.727l-5.781,3.861
					l-2.214,5.32l-0.301,0.251l2.886,2.511l4.63,4.031l0.349,0.303L193.071,186.607z"/>
			</g>
		</g>
		<g opacity="0.17">
			<g>
				<path fill="#FFFFFF" d="M305.598,92.217l2.914-2.914l-1.841,4.458l-1.838,2.277L305.598,92.217z M311.726,97.235l3.74-1.11
					l-3.234,4.852L311.726,97.235z M309.837,88.305l5.882,6.863l-4.386,1.304l-3.777-2.643L309.837,88.305z M307.29,98.984
					l-2.569-1.468l2.397-2.964l3.747,2.621l0.565,4.176L307.29,98.984z M312.402,102.242l4.591-6.887l-7.26-8.47l-4.913,4.918
					l-1.13,5.65l-0.246,0.305l3.321,1.897l5.33,3.047l0.401,0.229L312.402,102.242z"/>
			</g>
		</g>
		<g opacity="0.17">
			<g>
				<path fill="#FFFFFF" d="M451.151,25.545l2.914-2.914l-1.841,4.458l-1.838,2.277L451.151,25.545z M457.279,30.563l3.74-1.11
					l-3.234,4.852L457.279,30.563z M455.391,21.633l5.882,6.863l-4.386,1.304l-3.777-2.643L455.391,21.633z M452.843,32.312
					l-2.569-1.468l2.397-2.964l3.747,2.621l0.565,4.176L452.843,32.312z M457.955,35.57l4.591-6.887l-7.26-8.47l-4.913,4.918
					l-1.13,5.65l-0.246,0.305l3.321,1.897l5.33,3.047l0.401,0.229L457.955,35.57z"/>
			</g>
		</g>
		<g opacity="0.17">
			<g>
				<path fill="#FFFFFF" d="M173.922,209.301l2.765-7.303l3.836-2.608l-1.09,5.462L173.922,209.301z M176.383,201.24l-5.508-6.385
					l9.373,3.71L176.383,201.24z M171.571,201.907l-1.384-6.559l5.28,6.124L171.571,201.907z M173.089,209.108l-1.343-6.373
					l3.923-0.436L173.089,209.108z M168.86,193.149l3.842,18.219l7.499-6.051l1.421-7.117L168.86,193.149z"/>
			</g>
		</g>
		<g opacity="0.17">
			<g>
				<path fill="#FFFFFF" d="M298.065,128.247l1.282-7.703l3.252-3.308v5.57L298.065,128.247z M298.901,119.859l-6.651-5.184
					l9.918,1.804L298.901,119.859z M294.312,121.456l-2.641-6.161l6.377,4.972L294.312,121.456z M297.21,128.221l-2.565-5.986
					l3.762-1.195L297.21,128.221z M289.94,113.398l7.334,17.115l6.169-7.402v-7.258L289.94,113.398z"/>
			</g>
		</g>
		<g opacity="0.17">
			<g>
				<path fill="#FFFFFF" d="M443.619,61.575l1.282-7.703l3.252-3.308v5.57L443.619,61.575z M444.454,53.187l-6.651-5.184
					l9.918,1.804L444.454,53.187z M439.865,54.784l-2.641-6.161l6.377,4.972L439.865,54.784z M442.764,61.549l-2.565-5.986
					l3.762-1.195L442.764,61.549z M435.493,46.726l7.334,17.115l6.169-7.402v-7.258L435.493,46.726z"/>
			</g>
		</g>
	</g>
</g>
</svg>
