<?xml version="1.0" encoding="utf-8"?>
<!-- Generator: Adobe Illustrator 17.0.0, SVG Export Plug-In . SVG Version: 6.00 Build 0)  -->
<!DOCTYPE svg PUBLIC "-//W3C//DTD SVG 1.1//EN" "http://www.w3.org/Graphics/SVG/1.1/DTD/svg11.dtd">
<svg version="1.1" id="Layer_1" xmlns="http://www.w3.org/2000/svg" xmlns:xlink="http://www.w3.org/1999/xlink" x="0px" y="0px"
	 width="524.347px" height="519.179px" viewBox="0 0 524.347 519.179" enable-background="new 0 0 524.347 519.179"
	 xml:space="preserve">
<g>
	<path fill="#B3B3B3" d="M496.673,259.711c0-50.477,0.243-100.941-0.205-151.418c-0.09-10.499-1.305-21.472-4.476-31.396
		c-11.343-35.373-41.729-56.615-79.917-56.667c-99.854-0.128-199.721-0.166-299.587,0.153c-9.783,0.026-20.001,1.445-29.273,4.553
		c-34.619,11.65-55.452,42.625-55.49,81.605c-0.128,101.964-0.166,203.915,0.141,305.867c0.038,9.988,1.42,20.424,4.476,29.887
		c11.292,35.015,41.18,56.5,78.932,56.603c100.519,0.269,201.051,0.141,301.583,0.064c28.583-0.013,51.769-11.497,68.701-35.233
		c11.049-15.487,15.18-33.135,15.142-52.114C496.609,360.984,496.673,310.341,496.673,259.711 M7.327,426.27V92.908
		c0.371-1.432,0.831-2.839,1.087-4.284c6.842-40.041,28.698-67.793,65.734-82.628c7.891-3.159,16.498-4.438,24.759-6.586H425.44
		c1.394,0.371,2.775,0.844,4.195,1.1c39.223,6.995,66.399,29.299,80.927,67.128c3.095,8.044,4.361,16.83,6.458,25.27V426.27
		c-0.371,1.432-0.831,2.839-1.087,4.297c-6.842,40.041-28.698,67.78-65.734,82.615c-7.89,3.159-16.497,4.438-24.759,6.586H98.907
		c-1.394-0.371-2.775-0.844-4.195-1.1c-39.223-6.995-66.399-29.299-80.927-67.128C10.69,443.497,9.424,434.711,7.327,426.27"/>
	<path fill="#B3B3B3" d="M229.032,497.922h54.761V311.015h62.588l6.765-53.533h-69.353v-56.168c0-19.362,4.642-45.106,44.811-45.106
		l28.327-0.013v-46.794c-10.244-0.908-27.061-1.931-45.592-1.931c-24.784,0-45.425,7.609-59.672,21.984
		c-14.809,14.95-22.636,37.305-22.636,64.66v63.368h-61.616v53.533h61.616V497.922z M302.707,517.232h-92.603V330.326h-61.603
		v-92.155h61.603v-44.057c0-32.637,9.783-59.736,28.276-78.395c17.853-18.032,43.085-27.56,72.959-27.56
		c26.063,0,49.185,1.995,56.296,2.954l8.21,1.113v83.267l-47.229,0.026c-22.316,0-25.91,7.596-25.91,25.795v36.857h71.949
		l-11.638,92.155h-60.311V517.232z"/>
</g>
</svg>
