<?xml version="1.0" encoding="utf-8"?>
<!-- Generator: Adobe Illustrator 17.0.0, SVG Export Plug-In . SVG Version: 6.00 Build 0)  -->
<!DOCTYPE svg PUBLIC "-//W3C//DTD SVG 1.1//EN" "http://www.w3.org/Graphics/SVG/1.1/DTD/svg11.dtd">
<svg version="1.1" id="Layer_1" xmlns="http://www.w3.org/2000/svg" xmlns:xlink="http://www.w3.org/1999/xlink" x="0px" y="0px"
	 width="524.347px" height="519.179px" viewBox="0 0 524.347 519.179" enable-background="new 0 0 524.347 519.179"
	 xml:space="preserve">
<path fill="#ABFF4F" d="M322.732,383.664c4.934,8.809,9.114,21.748,9.114,40.316v70.362c0,4.118,2.973,4.118,4.398,4.118
	c0.755,0,1.608-0.073,2.51-0.231c97.629-33.847,163.191-127.188,163.191-232.469c0.231-65.269-24.514-126.688-69.704-172.987
	c-45.348-46.469-105.647-72.055-169.807-72.055S137.988,46.195,92.676,92.457C47.365,138.707,22.412,200.26,22.412,265.76
	c0,52.476,15.961,102.54,46.153,144.793c29.497,41.255,69.887,71.544,116.843,87.614c0.694,0.085,1.365,0.134,1.974,0.134
	c1.267,0,5.117,0,5.117-3.96v-33.225c-5.873,0.853-11.538,1.292-16.936,1.292c-27.645,0-44.362-11.307-53.524-20.798
	c-9.321-9.65-12.866-19.263-13.561-21.371c-9.248-24.295-22.077-31.434-23.223-32.031l-0.755-0.317l-0.499-0.414
	c-4.74-3.326-15.851-11.124-12.757-21.285c1.962-6.445,8.833-10.003,19.348-10.003l0.78,0.024
	c28.413,1.767,43.448,27.925,44.63,30.045c8.894,15.668,20.847,23.283,36.552,23.271c7.968,0,15.583-2.023,21.456-4.216
	c1.681-8.017,4.362-15.376,7.822-21.614c-38.221-6.689-56.667-18.983-67.474-28.059c-26.183-21.992-39.464-56.728-39.464-103.234
	c0-26.744,8.078-50.185,24.039-69.765c-3.655-12.537-7.347-36.942,4.74-68.035l1.474-3.801l3.814-1.267
	c0.902-0.305,3.497-0.999,7.993-0.999c11.636,0,32.08,4.496,64.026,25.513c20.603-5.568,41.766-8.517,61.455-8.517
	c19.177,0,40.329,2.949,61.382,8.529c31.617-21.029,51.964-25.525,63.576-25.525c4.484,0,7.079,0.694,7.98,0.999l3.814,1.255
	l1.474,3.814c12.111,31.105,8.407,55.51,4.752,68.035c15.961,19.592,24.039,43.046,24.039,69.765
	c0,46.506-13.28,81.242-39.464,103.234C379.193,364.706,360.807,376.963,322.732,383.664 M336.244,515.896
	c-8.492,0-13.561-3.838-16.326-7.054c-3.314-3.862-5.142-9.016-5.142-14.499V423.98c0-25.745-9.479-36.6-13.548-40.073
	l-15.205-12.964l19.677-2.376c33.932-4.094,56.582-12.233,73.444-26.39c22.37-18.775,33.238-48.151,33.238-89.771
	c0-24.051-7.712-44.898-22.93-61.943l-3.546-3.984l1.888-5.02c2.875-7.603,8.188-27.682-1.206-55.485
	c-7.006,0.207-25.123,3.277-56.521,24.758l-3.241,2.23l-3.765-1.06c-20.847-5.848-41.815-8.931-60.627-8.931
	c-19.08,0-40.597,3.168-60.59,8.919l-3.777,1.084l-3.253-2.217c-31.788-21.505-50.039-24.575-57.069-24.782
	c-9.382,27.791-4.057,47.87-1.194,55.485l1.901,5.032l-3.558,3.972c-15.218,17.033-22.93,37.88-22.93,61.943
	c0,41.62,10.868,70.995,33.238,89.771c16.862,14.158,39.512,22.297,73.444,26.39l19.299,2.327l-14.742,12.939
	c-6.336,5.556-11.282,16.46-13.22,29.156l-0.731,4.764l-4.35,1.901c-7.627,3.338-19.433,7.31-32.348,7.31
	c-21.724,0-39.476-11.075-51.355-32.019l-0.073-0.146c-0.085-0.146-9.077-16.095-25.013-20.262
	c6.36,4.24,19.165,15.291,28.364,39.61l0.171,0.524c0.39,1.17,10.356,30.301,50.916,30.301c7.298,0,15.254-0.938,23.661-2.802
	l10.344-2.303v54.474c0,10.624-7.615,21.383-22.187,21.383c-1.694,0-3.485-0.146-5.3-0.451l-0.682-0.11l-0.658-0.219
	c-50.661-17.155-94.218-49.698-125.969-94.121C22.436,375.574,5.33,321.953,5.33,265.76c0-70.155,26.731-136.082,75.272-185.634
	S193.717,3.283,262.434,3.283c68.729,0,133.328,27.414,181.905,77.197c48.407,49.601,74.931,115.406,74.675,185.317
	c0,112.932-70.472,213.072-175.375,249.136l-0.512,0.183l-0.536,0.11C340.399,515.664,338.267,515.896,336.244,515.896"/>
</svg>
