<?xml version="1.0" encoding="utf-8"?>
<!-- Generator: Adobe Illustrator 17.0.0, SVG Export Plug-In . SVG Version: 6.00 Build 0)  -->
<!DOCTYPE svg PUBLIC "-//W3C//DTD SVG 1.1//EN" "http://www.w3.org/Graphics/SVG/1.1/DTD/svg11.dtd">
<svg version="1.1" xmlns="http://www.w3.org/2000/svg" xmlns:xlink="http://www.w3.org/1999/xlink" x="0px" y="0px"
	 width="474.365px" height="638.021px" viewBox="0 0 474.365 638.021" enable-background="new 0 0 474.365 638.021"
	 xml:space="preserve">
<g id="Layer_2">
	<g>
		<polygon fill="#212121" stroke="#ABFF4F" stroke-width="0.25" stroke-miterlimit="10" points="88.502,232.222 188.284,214.019 
			194.686,220.513 197.146,230.831 88.502,243.452 		"/>
		<polygon fill="#212121" stroke="#ABFF4F" stroke-width="0.25" stroke-miterlimit="10" points="136.173,272.993 132.386,285.491 
			148.911,291.089 200.6,268.263 195.065,243.452 		"/>
		<polygon fill="#212121" stroke="#ABFF4F" stroke-width="0.25" stroke-miterlimit="10" points="134.09,373.924 157.76,365.402 
			240.405,380.16 251.496,388.126 239.291,416.479 173.667,430.165 161.169,419.371 		"/>
		<polygon fill="#212121" stroke="#ABFF4F" stroke-width="0.25" stroke-miterlimit="10" points="274.598,382.445 251.496,380.551 
			222.712,425.81 220.629,461.031 251.496,466.333 248.845,436.035 247.344,505.716 304.707,503.259 288.8,455.35 337.278,438.686 
			348.261,417.856 363.978,397.784 361.232,395.177 354.32,394.375 314.743,397.784 		"/>
		<polygon fill="#212121" stroke="#ABFF4F" stroke-width="0.25" stroke-miterlimit="10" points="326.601,363.485 311.335,370.894 
			319.216,376.517 327.585,372.868 332.354,369 330.082,366.349 		"/>
		<polygon fill="#212121" stroke="#ABFF4F" stroke-width="0.25" stroke-miterlimit="10" points="365.358,394.039 366.997,397.41 
			361.467,400.99 358.676,392.671 		"/>
		<polygon fill="#212121" stroke="#ABFF4F" stroke-width="0.25" stroke-miterlimit="10" points="396.844,485.872 309.082,484.251 
			314.919,525.527 371.754,528.599 		"/>
		<polygon fill="#212121" stroke="#ABFF4F" stroke-width="0.25" stroke-miterlimit="10" points="208.93,484.053 177.595,505.716 
			208.93,508.63 		"/>
		<polygon fill="#212121" stroke="#ABFF4F" stroke-width="0.25" stroke-miterlimit="10" points="70.149,503.254 64.54,516.311 
			79.722,523.465 76.828,507.401 		"/>
		<polygon fill="#212121" stroke="#ABFF4F" stroke-width="0.25" stroke-miterlimit="10" points="153.632,389.124 145.644,416.159 
			125.658,446.589 79.722,444.523 80.868,424.209 110.622,413.086 110.124,406.407 119.298,398.736 120.514,399.384 
			126.747,371.188 139.507,370.001 		"/>
		<polygon fill="#212121" points="91.067,236.73 116.342,201.977 175.272,204.371 175.272,204.371 187.204,221.159 117.696,233.119 
					"/>
		<g>
			<path fill="#212121" stroke="#ABFF4F" stroke-miterlimit="10" d="M53.334,49.279l12.673,6.658l25.664,38.047l2.534,12.049
				l-12.356,8.243l-10.456,9.195L55.552,78.766l-3.169-22.512L53.334,49.279z M94.205,106.033l2.852-2.537l-18.06-43.437V25.817
				l4.119-10.146l7.287,0.317l14.891,18.389l12.674,21.877l8.554,24.097l-0.317,31.389l20.277,20.608l7.604,12.683l-5.386,21.56
				l0.634,10.146l27.247,22.828l5.703,7.609l-20.91-0.317l-32.317,5.39l-36.119,9.829l-2.535,0.951l6.654-17.438l-5.386-4.756
				l-12.04-2.853l-17.426-20.926l-1.584-38.681l3.802-10.146l6.97-4.756l10.456-9.195L94.205,106.033z M84.067,225.247l13.307-5.073
				l30.099-7.61l33.901-5.707l20.91,0.317l6.654,3.805l3.485,4.439l2.535,5.707l1.584,8.244l-7.921-12.049l-11.406-3.487h-22.178
				l-29.782,7.292l-30.416,8.561l-6.337,2.536l-0.317,5.073l-4.435-6.024L84.067,225.247z M88.185,237.295l0.317,13.951
				l0.951,16.487l1.901,14.584l6.336,13.317l4.753,2.219l16.792,0.317l22.812-5.39l23.128-5.39l29.466-9.511l12.356-7.61
				l2.852-1.902l-1.901-11.414l-11.406-27.584 M97.69,295.634v5.073l1.901,3.487l6.02,2.854l13.307-0.634l21.861-4.756l30.416-7.926
				l24.396-6.342l12.99-7.292l4.436-5.073l1.267-6.024l-2.851-6.658l-3.802-4.122l2.218,10.146 M105.611,307.048l7.604,14.268
				l3.802,2.536l20.594,39.95l-2.534,2.219l-1.901-4.439l-4.436-2.536l-4.753-0.634l-4.435-6.342l-3.485,0.635l-4.436-4.122
				l-2.535,1.585l2.852,4.756l2.851,7.926l3.485,8.561l6.654,3.488l-1.267,8.56l-0.951,6.976l-4.752,9.511h-4.436l-3.485,5.39
				l0.317,4.439l-25.981,3.488l-34.217,3.804l-21.228,6.659l-11.406,8.243l6.654,7.927l-2.218,5.39l4.119,6.341l7.603,27.267
				l-0.95,8.561l2.851,51.68l5.387-1.585l5.069-19.658l3.485,22.828l28.832,45.023l19.96-2.219l30.733-10.464l30.416-8.243
				l17.425,7.609l8.872,8.878l17.425,29.487l11.406,2.536l5.386-5.073l18.06-2.219l22.178-21.243l11.406,12.999l2.218,5.39
				l4.752,4.439l22.812,17.121l45.624-28.852l39.92-86.874l4.119-3.805l4.119-7.927l12.99-14.267l3.168,8.56h6.02l-0.317-20.291
				l6.337-8.244l11.406,17.121h6.97l12.357,10.463l3.168-0.634l-1.584-42.803l-5.069-19.975l-17.109-12.365l-12.99,0.951
				l-14.575-3.804l-3.485-8.244l-7.604-4.439l-27.881-1.902l9.822-6.341l-8.871-3.805l-3.169-3.171l3.169-3.487l4.118-1.269
				l3.169-3.804l0.317-4.756l-5.703-1.585l-2.852,1.585l-1.901-7.927l0.317-6.975l-2.852-3.805l4.753-4.438l-0.317-17.756h-2.851
				l-0.317,8.244l-4.753-8.561l-1.584,1.268l-0.317,7.61l0.634,3.17l-4.119,4.756v2.537l2.535,3.17l1.901,3.171l-9.188,8.561
				l-2.852-0.635l-2.851,1.269l-12.99,0.634l2.217-4.439l0.317-3.488l-4.435-5.39l4.118-5.073l2.535-6.024l0.951-5.073l-3.486,1.586
				l-1.584,5.707l-4.119-1.269l-0.316-5.073l-1.268-3.487l-2.851,2.853l0.634,6.025l-0.317,2.853l-0.634,3.171l1.584,3.17
				l-4.119,6.024L205.413,250.929 M213.017,275.025l21.861,93.532l5.07,4.439l2.534-0.951l-2.851-3.488v-4.121l6.336-5.39
				l-1.584-6.024l1.268-8.878l3.168-3.805l2.535,1.586l2.217,11.414l1.585,5.073l1.901-1.903l0.316-12.999l3.486-5.707l2.217,1.268
				l-0.316,14.268l-0.951,12.048l-2.851,7.926l9.188,5.073l0.95,6.341l3.168,3.488l38.654,2.537l2.851-11.732l2.852-7.609
				l2.218-2.219l0.95-3.805l-105.505-96.386L213.017,275.025z M315.67,389.8l1.268-4.755l3.485-5.073l4.436-4.122l-0.634,5.39
				l1.901,3.805l1.901,3.804L315.67,389.8z M332.146,370.142l21.861-0.317l1.584,4.439l-5.703,9.511v4.122l4.436,6.024l-19.01-6.024
				h-2.218l-2.218-6.341l1.584-4.756L332.146,370.142z M40.978,537.55l8.237-34.242 M46.364,497.6l13.307,30.755L73.294,510.6
				l20.594,41.218l5.387-1.586l6.653-15.219 M98.958,535.33l19.01-3.17l3.802-2.22l5.069-34.242 M123.671,493.478l33.901,18.072
				l6.336,25.999l8.871,8.243l14.892-43.754l13.623-8.243l12.99,10.463l9.188-6.341l13.941,39.949l15.208-48.193l6.97-3.488
				l10.456,5.707l13.623-26.633l4.119,38.999l17.426,12.048c0,0,2.218-0.317,3.168-0.317c0.951,0,17.743-24.097,17.743-24.097
				l14.257,32.657l5.703,2.537l27.565-41.535l6.019,23.463l4.753,0.951l2.534-0.951 M93.888,551.817l24.08-77.997 M137.611,363.802
				l5.386,9.828 M121.77,408.19l-2.535,4.122l-4.119,0.951l-3.168-0.951l-1.584-2.537l1.584,2.537l-8.555,6.975l-8.554,1.268
				l-2.218,0.951l-4.752,13.951l3.802,1.585l3.168-1.902l-1.584-1.903l3.168-4.121l7.604-2.537l14.574-3.804l4.753-7.927
				l2.851,2.219l1.268,3.488l-4.436,2.537l-7.287,4.121v5.39l9.505,6.025l8.554-0.318l-0.95-2.219l-5.386-2.219l-5.703-4.122
				l6.653,0.317l4.436-1.902l4.118-2.22l2.218-5.073l-0.633-4.756l-2.218-6.975l-0.634-5.39l-0.95-16.17l2.217-3.488l6.337-3.804
				l7.287-2.854l5.386-0.317l2.535-3.488l-0.634-2.536l-4.118-1.268l-2.535,1.585l-5.703,2.536l-7.921,1.903l-5.069,0.317
				l-0.634-3.805l3.169-6.341 M139.829,368.556l-8.238,5.073 M135.71,395.19l7.287,0.635l7.921-5.39 M142.997,395.825l-6.653,10.462
				l5.808,2.114l9.083-1.691l6.125-0.211l1.901-2.537 M116.067,352.705l2.851,10.145 M123.987,358.412l1.268,5.178 M131.169,419.181
				l-4.858,2.114 M130.958,274.391l8.66,3.805l9.293,12.893 M153.981,298.699l13.095,18.812l12.04,10.78l6.759-2.114l3.168-3.382
				l8.449-19.446l-1.901-15.959 M194.641,277.879l-2.218-26.739l1.901-3.593 M192.634,288.129l0.423,10.146l-4.436,20.715
				l-9.505,9.3 M91.671,252.197l6.759,28.112l5.703,17.544 M108.357,307.365l8.66,16.487 M234.878,368.556l-1.875-0.844
				l-4.461-2.009l-14.152-0.846l-1.479,2.326l12.674,12.893l11.617,10.78l2.957-7.821l2.746-4.016l3.168-2.113l-0.845-2.96
				l-2.746-1.902l-2.534,0.951L234.878,368.556z M224.74,380.499l-1.268,3.171l2.324,4.65l7.815,7.398l3.802,2.325l0.317,13.951
				l-1.901,2.219l-6.654,3.488l-13.94,4.438l-16.475,0.952l-19.644-1.586l-4.436-1.585l-9.821-5.39l-19.327-34.559 M247.763,391.069
				l-5.703,7.609l-4.647-0.634 M267.618,452.367l-4.225-8.244L256,434.189l-2.323-8.244 M255.156,423.197l-10.35,11.203
				l-1.056,5.707l-0.634,7.398l1.479,6.764l0.211,5.284l-5.914,0.635l-10.773-3.171l1.056-3.382l8.449-0.211l-4.858-21.772
				l7.604-19.235l2.535-14.584 M264.238,408.613l-4.436-2.114l-6.336,0.211l-2.957,3.594l-0.211,6.341l3.379,4.227l4.436,2.114
				l4.013-0.211l3.168-3.594l0.845-3.17 M258.958,373.313l-3.38,1.903l0.634,2.536l4.224,1.903l3.591,5.707l4.858,6.975
				l-0.211,2.748l-7.604,5.707l-1.268-1.903l3.591-5.495l-3.168-4.439l-0.423,9.934l3.802,7.61l2.113,4.439l1.056,7.82l-0.845,8.455
				l2.746,11.837l5.069,8.244l1.901,2.748l0.211,3.382l-5.069,1.902l-6.125-1.268l-2.324-3.382l2.746-2.96 M272.264,388.215
				l2.324,3.276v2.537l-3.38,1.268l-2.534-0.211 M319.472,357.142l6.495,6.817 M329.294,366.655l-0.475,2.695l-2.535,1.427
				l-2.693-0.951l-1.267,3.012l-2.852-0.317l-1.584-2.537 M319.156,365.069l2.693,2.536l2.851,0.793l1.901-0.951 M326.284,356.509
				l0.317,6.976l-2.059,1.426 M345.294,363.485l-0.634,2.536l2.377,2.536l2.534,0.318l6.02-5.708l3.961-1.109 M354.007,369.826
				l1.584-6.659 M366.997,370.777l-0.792,2.695l0.792,2.061 M366.997,380.606l-8.554,5.231l1.267,5.866l2.376,4.439l-0.792,2.695
				l-15.208-0.317l-1.267-2.695l10.138-1.269 M366.047,397.885l-4.278-0.951l2.693-2.536l3.961-1.586l-5.862-0.792l-3.009-2.22
				 M357.809,341.607l3.01-0.158l2.059,0.793 M310.918,390.752l-4.119,3.646l-1.267,2.061l1.901,1.426l5.861-2.536l2.06-2.219
				l0.316-3.33 M327.393,388.532l3.802,3.805l-1.426,2.378l-1.425,2.536l2.851,0.634l3.01-1.268l2.535-4.439l-3.644-4.28
				 M267.406,431.441l2.535-1.48l11.617-1.691l-4.224,6.976L267.406,431.441z M293.387,436.514l-17.109-0.423l8.66-13.316
				l13.94,0.422l11.406-9.089l3.169-6.764l6.125,6.976l3.802,8.666l8.449,2.959l1.056,3.805l-3.168,4.016l-8.872,3.382l-9.505,4.65
				l-7.392-2.748l-10.35-0.211L293.387,436.514z"/>
			<path fill="none" stroke="#ABFF4F" stroke-width="0.25" stroke-miterlimit="10" d="M136.72,406.372l11.843-8.247l-6.133,9.939
				L136.72,406.372z M148.352,391.993l0.211,6.132l3.384-5.921l-1.058-2.326L148.352,391.993z M158.08,404.892l-9.517-6.767
				l1.692,8.458h6.345L158.08,404.892z M135.663,401.085l6.556-5.286l6.344,2.326 M28.651,424.346l43.989-4.44l16.707-7.19
				l21.36-2.538l0.212,2.326l-28.339,9.939L28.651,424.346z M48.954,417.157l23.686,2.749l9.94,2.537 M118.532,362.599l1.269,4.441
				l-1.586,4.282l4.758,2.696l-0.634-6.82l-0.952-6.661l-3.172-7.771 M116.312,367.357l3.489-0.317l2.538,0.158l0.378-0.543
				l2.16-3.104l6.186,1.744l3.013,0.793l-6.027,4.124l-5.076,3.806 M130.904,372.908l-2.855-2.696l-5.71-3.014 M124.877,374.335
				h2.379l-0.317,5.393l-3.172-0.635L124.877,374.335z M122.656,385.754l4.124-0.158l0.159-5.868l-3.172-0.635L122.656,385.754z
				 M118.056,400.345l6.979-9.04l-3.013-1.11L118.056,400.345z M126.78,385.596l-1.745,5.709l-2.379-1.427v-4.124L126.78,385.596z
				 M131.697,376.239l0.317,4.599l-5.075-1.11l0.317-5.393L131.697,376.239z M126.78,385.596l4.6,0.634l0.634-5.392l-5.075-1.11
				L126.78,385.596z M125.035,391.305l3.49,2.221l2.855-7.296l-4.6-0.634L125.035,391.305z M127.097,401.138l1.428-7.612
				l-3.49-2.221l-2.696,11.736L127.097,401.138z M118.056,400.345l2.38,0.793l1.903,1.903l2.696-11.736L118.056,400.345z
				 M132.014,380.838l17.607-6.027l4.599-4.599l-6.979,2.696l-6.82,2.22l-8.724,1.111L132.014,380.838z M136.931,383.534
				l-4.917-2.696l-0.634,5.392l3.014,4.758l0.317-3.648L136.931,383.534z M128.525,393.526l5.869-2.538l-2.221,11.578l-5.076-1.428
				L128.525,393.526z M117.422,400.345l-3.49,6.661l8.407-3.965l-1.903-1.903L117.422,400.345z M110.284,408.434l3.648-1.428
				l0.635,3.648L110.284,408.434z M114.25,413.192l0.317-2.538l5.393,0.635l-1.269,1.11L114.25,413.192z M111.236,402.883
				l2.696,4.123l3.49-6.661l-4.441-0.158L111.236,402.883z M114.25,413.192l-2.062,3.965l-8.407,3.806l-12.054,1.11l3.489-1.586
				l8.089-1.11l7.614-6.873L114.25,413.192z M91.251,424.135l3.648,2.379l-3.966,6.027l-0.158,4.44l-3.49-1.586L91.251,424.135z
				 M127.097,401.138l4.124,10.468l-6.186-0.317L127.097,401.138z M132.173,402.566l4.441,9.357l-5.393-0.317l-4.124-10.468
				L132.173,402.566z M134.869,402.407l-2.696,0.159 M130.587,419.536l0.634-7.93l-6.186-0.317L130.587,419.536z M135.98,411.764
				l0.793,9.04l-9.358,5.234l3.172-6.502l0.634-7.93L135.98,411.764z M118.691,429.051l3.172-5.233l2.379-0.952l3.173,3.172
				l-7.297,3.489L118.691,429.051z M129.318,438.25l-7.931-5.551l-2.696-3.648h-3.807l0.317,3.965l9.041,5.868L129.318,438.25z
				 M136.773,420.804l-1.586,5.71l3.648-6.027l-0.793-5.868l-1.428-2.696L136.773,420.804z M121.229,406.213l-0.159,6.661
				l3.965-1.585l2.062-10.151l-4.758,1.903L121.229,406.213z M116.312,413.35l-1.745,5.234l3.331,4.758l5.234-8.247l-2.062-2.221
				l0.317-4.757l-2.696,4.282L116.312,413.35z M94.899,426.514l11.103-3.489l-2.221-2.062l-11.42,0.793l-1.11,2.379L94.899,426.514z
				 M115.201,420.011l-9.199,3.014l-2.221-2.062l8.407-3.806l2.062-3.965l2.062,0.158l-1.745,5.234L115.201,420.011z
				 M214.124,365.137l11.208,6.344l3.807-5.075L214.124,365.137z M237.81,387.763l-23.686-22.626l-2.327,2.326l25.378,23.684
				L237.81,387.763z M232.734,368.097l0.635,8.882l-8.037-5.498l3.807-5.075L232.734,368.097z M237.175,371.269l0.423,10.362
				l-4.229-4.652l-0.635-8.882L237.175,371.269z M239.502,372.749l-0.212,4.864l1.481,3.383l3.172-2.749l1.903-1.691l-1.057-2.326
				l-2.538-2.326L239.502,372.749z M236.964,387.552l0.634-5.921l-4.229-4.652l-3.173,3.806L236.964,387.552z M225.332,371.481
				l-1.057,2.96 M258.747,373.384l1.057,6.555l8.248-1.692l0.635,5.71l-6.133,0.634l4.229,5.498l5.499-1.48 M262.554,341.03
				l-2.75,6.555l-2.326-4.229l2.749-5.709l2.327,2.114V341.03z M256.209,357.101l4.018,3.172l-0.423-12.688l-2.326-4.229
				l-0.423,12.265L256.209,357.101z M262.554,342.722l0.211,12.265l-1.48,6.555l-1.058-1.269l-0.423-12.688l2.115-5.709
				L262.554,342.722z M251.345,342.51l1.692,10.996l1.48,5.71l4.23,10.15l-3.595,1.903l-6.556-14.168l-1.481-9.093l1.481-7.612
				l-1.481,7.612l1.481,9.093l-0.846,8.247l-0.15,6.134l-0.062,2.536l2.115,3.595L245,382.265l-1.903,3.807l-5.076,9.938
				l-12.054-11.842l-1.481-4.017 M248.807,357.63l-3.172,1.797l-6.028,4.758v5.075l8.143-5.392L248.807,357.63z M245.318,373.912
				l2.22,0.106l0.062-2.536l-5.455-4.125l-2.538,1.903l2.644,2.644L245.318,373.912z M255.152,371.269l-7.552,0.213l-0.062,2.536
				l4.653,2.538L255.152,371.269z M258.747,369.366l1.057,1.163l-1.374,3.383l-3.278,1.375l1.163,3.278l-4.124-2.009l2.961-5.287
				L258.747,369.366z M244.895,390.724l-4.653,6.238l-2.221-0.952l5.288-10.467L244.895,390.724z M252.191,376.556l0.317,2.326
				l0.423,3.7L245,382.265l4.653-4.652l-2.115-3.595L252.191,376.556z M261.073,381.631l-8.142,0.951l-0.74-6.026l8.142,3.277
				L261.073,381.631z M260.016,384.803l6.344,8.881l-0.423,2.961l2.432-1.481l0.106-3.171l-7.402-10.362L260.016,384.803z
				 M243.097,386.072l10.469,1.268l6.45-2.537l1.057-3.172l-8.142,0.951L245,382.265L243.097,386.072z M247.644,391.147l0.423,8.458
				h-3.172l-0.106-4.758L247.644,391.147z M240.771,410.073c0.105-0.423,4.124-10.468,4.124-10.468h3.172l-3.913,13.217
				l-6.133,5.392L240.771,410.073z M259.17,399.182l-5.182-2.432l-5.921,2.855l-3.913,13.217l9.412-9.728L259.17,399.182z
				 M259.276,406.583l-0.106-7.401l5.076,9.305L259.276,406.583z M252.825,406.795l0.741-3.701l5.604-3.912l0.106,7.401
				L252.825,406.795z M253.988,396.75l-0.422,6.344l5.604-3.912L253.988,396.75z M259.381,387.658l-0.158,0.266l-5.235,8.826
				l5.182,2.432 M244.154,412.822l-4.917,14.326l-2.062-6.819l0.793-2.855L244.154,412.822z M249.865,420.17l-10.628,6.978
				l10.31,1.586L249.865,420.17z M237.175,453.634l-0.951-21.411l3.013-5.075l-2.062-6.819l-4.917,11.894L237.175,453.634z
				 M248.913,429.051l-7.614,2.697l-2.537,4.916l1.11,22.679l0.793,0.952l1.586-0.793l0.793-11.102l2.062-14.432L248.913,429.051z
				 M236.224,432.223l5.075-0.475l3.014,3.33l-5.551,1.586 M254.782,423.501l4.124,7.454l3.013,10.467l-6.186-7.771l-2.696-8.089
				L254.782,423.501z M261.602,426.197l0.159,5.551l3.965-2.855l0.476-5.868L261.602,426.197l-6.82-2.696l-4.917-3.331l-5.711-7.348
				 M266.678,433.175l-4.6,2.062l-0.159,6.185 M266.519,450.621l0.793-9.04h2.855 M261.761,431.748l0.317,3.489l10.944,13.956
				l0.952,4.917 M250.34,410.178l3.331,1.586l4.441-1.586l6.028-0.951l-1.904,4.44l3.49,1.269 M250.658,416.364l3.013-4.6
				l2.697,4.917L250.658,416.364z M262.236,413.667l-5.868,3.014l2.379-6.344L262.236,413.667z M255.416,421.597l0.952-4.916
				l5.551,2.379L255.416,421.597z M262.236,413.667l-0.317,5.393l3.014-0.317l0.793-3.014 M259.276,406.583l-1.164,3.595
				l-5.287-3.383 M323.779,334.527l1.268,8.565l-2.537,1.586l-0.635-8.406L323.779,334.527z M322.668,349.118l2.379-6.026
				l-2.537,1.269l-0.714,2.775L322.668,349.118z M323.779,351.259l2.934-2.458l-2.538-3.568l-1.507,3.885L323.779,351.259z
				 M330.995,342.854l-0.634,2.458l-1.586,1.348l1.745,2.141l1.982-2.299L330.995,342.854z M325.047,343.092l1.666-1.348
				l4.203,1.586l-0.555,1.982l-1.586,1.348l-4.6-1.427L325.047,343.092z M326.713,348.801l2.062-2.141l1.745,2.141l-2.935,3.41
				L326.713,348.801z M323.779,351.259l3.806,0.952l-1.269,1.586l-2.617-0.079L321.082,358l-1.348-1.348L323.779,351.259z
				 M331.313,355.621l-1.269,4.996l-1.745,3.806l0.872,1.19l3.49-4.6l0.079-3.727L331.313,355.621z M322.298,355.938l3.595,3.066
				v4.758l-5.287-5.075L322.298,355.938z M327.585,352.211l0.741,4.784l3.066-0.634L327.585,352.211z M326.422,363.445l2.115-3.701
				l-0.211-2.749l2.537-0.634l-0.819,4.256l-1.745,3.806L326.422,363.445z M320.606,358.687l5.287,0.317l-1.903,2.432
				 M326.316,353.797l-0.74,3.093l2.75,0.105 M324.836,374.97l1.057-2.326l1.587,0.211l-1.164,8.987l3.596,6.556l3.383,3.383
				l-2.22,5.71l-2.855-0.635l2.855-4.441l-3.384-4.017l-3.595-7.296L324.836,374.97z M320.289,373.172l-6.133,4.653l2.221-5.921
				l1.903-1.269l1.057,1.797l1.481,0.952L320.289,373.172z M324.836,374.97l-3.384-0.74l-4.547,4.652l1.481,3.383l4.124-4.123
				L324.836,374.97z M315.108,388.186l-0.635-3.383l2.432-5.921l1.481,3.383l-1.692,4.018l-0.846,2.643L315.108,388.186z
				 M306.331,396.962l5.499-3.384l3.278-5.392l0.74,0.74l-0.423,4.758l-3.278,2.644l-4.97,1.797L306.331,396.962z M327.48,372.855
				l4.229-2.855l-2.643-0.634l-3.384,2.009l0.211,1.269L327.48,372.855z M332.027,372.855l-3.054,4.375l-1.388-4.362l3.701-2.656
				L332.027,372.855z M330.546,381.631l-4.23,0.211l1.19-8.775L330.546,381.631z M332.872,388.398h-2.96l-1.164,1.48l2.327,2.537
				l2.22-0.634l3.067,0.74L332.872,388.398z M359.943,332.254l-0.846,3.384l-1.481-0.318l-0.634-4.017l1.797-1.586L359.943,332.254z
				 M360.154,341.136l-1.057-5.498l-1.481-0.318l-0.423,3.384l0.74,3.278L360.154,341.136z M367.133,342.827l-6.027,5.816l0.951,3.7
				l5.182-4.229L367.133,342.827z M354.973,345.154l3.489,1.374l1.798-4.864l-2.327,0.318L354.973,345.154z M355.607,351.074
				l2.644-2.537l0.211-2.009l-3.489-1.374l-1.375,1.163l-0.106,2.854L355.607,351.074z M362.903,341.77l1.798,3.384l-3.595,3.489
				l-2.644-2.115l1.798-4.864L362.903,341.77z M355.607,351.074l6.027,1.058l-0.528-3.489l-2.644-2.115l-0.211,2.009
				L355.607,351.074z M358.251,355.198l3.383-0.846v-2.22l-6.027-1.058L358.251,355.198z M365.653,373.172l-1.798-4.123l1.798-2.961
				l1.48,4.441L365.653,373.172z M365.124,361.436l-2.538,0.212l-0.423,2.22l1.692,5.181l1.798-2.961L365.124,361.436z
				 M361.634,354.352l1.058,3.912l-0.106,3.384l2.538-0.212l0.423-5.181l-3.49-3.912l-0.423-0.211V354.352z M348.84,363.974
				l-0.741,2.326l1.586-0.317l11.949-11.631l-3.383,0.846L348.84,363.974z M362.586,361.648l-0.338-0.27l-4.315-3.431l3.701-3.595
				l0.952,3.384V361.648z M359.202,361.965l-1.269-4.018l-3.701,3.912l0.529,1.903L359.202,361.965z M355.713,374.124l2.115-0.846
				l-1.586-3.912l2.96-6.767l-4.441,1.163l-0.952,6.133l1.375,4.546L355.713,374.124z M350.003,383.745l10.785-10.255l-2.96-0.212
				l-2.115,0.846L350.003,383.745z M365.653,373.172l-8.777,10.256l1.057,3.278l8.46-6.027l1.374-2.432l-0.74-3.594L365.653,373.172
				z M356.242,369.366l7.507-0.74l1.904,4.546l-4.865,0.318l-2.96-0.212L356.242,369.366z M375.169,371.058l-3.912,2.326
				l3.807,2.537L375.169,371.058z M369.882,369.472l1.375,3.912l-5.076,0.106l0.952-2.961L369.882,369.472z M367.767,378.247
				l3.49-4.863l0.74,3.383L367.767,378.247z M371.786,379.622l0.211-2.855l3.067-0.846L371.786,379.622z M350.003,383.745
				l4.071,1.375l6.424-11.34l-11.024,9.913L350.003,383.745z M360.788,373.49l-3.912,9.938l8.777-10.256L360.788,373.49z
				 M354.074,385.12l2.802-1.692l3.622-9.648L354.074,385.12z M349.791,388.213l4.283-3.093l-4.6-1.427L349.791,388.213z
				 M358.356,389.719l-4.282-4.599l2.802-1.692l1.057,3.278L358.356,389.719z M355.263,394.794c0-0.237-1.189-9.674-1.189-9.674
				l4.917,5.313L355.263,394.794z M361.687,396.142l-6.424-1.348l3.728-4.361L361.687,396.142z M363.829,384.248l-0.048,0.31
				l-1.063,6.985l-3.41-2.537l-0.714-3.252l4.283-2.458L363.829,384.248z M363.273,391.86l5.314-4.44l0.714,5.313l1.11-0.238
				l3.965-2.3 M83.32,230.488l4.758-3.648l4.917-1.269l4.759,0.317l6.503-3.965l32.992-7.612l16.178-2.855l9.834-2.062l16.972,0.635
				l4.758,2.379l7.455,3.647 M89.347,231.757l-1.269-4.917l-0.158-3.489l6.186-1.745l-1.111,3.965l1.111,4.124l4.441-0.793
				l-0.793-3.014l3.172-6.343l6.979-2.062l-3.648,4.44l11.737,1.904l25.696-10.309l18.082-6.185l8.089,2.378l-1.11,4.441
				l13.482-4.123l2.062-2.855l5.869,3.172l3.806,5.075 M96.961,300.641l7.402,3.383l13.535-3.172l15.015-0.423
				c0,0,19.88-7.19,20.514-7.19c0.635,0,40.394-9.304,40.394-9.304l16.707-11.63l1.904-5.71 M106.478,307.407l-2.115-3.383
				l2.749-6.132l6.768,0.634l4.018,2.326l-0.846,5.921l16.073-3.172l-0.212-3.172l-4.018-4.864l22.417-5.075l-0.211,3.384
				l10.151,2.96l13.324-4.229l6.556-5.71l6.767-6.978l5.922,4.018l9.094-0.846l7.613-10.784l-1.057-4.441 M207.145,256.868
				l117.797,107.846l1.057,2.537l-3.807,0.423l-1.268-3.806l-108.915-98.753 M51.725,56.891l11.105,20.63l12.057,42.846
				 M52.994,49.909l17.134,13.012l-7.298,14.6l12.057,3.173l7.615,31.738 M54.898,79.425l7.932-1.904l12.057,3.173l9.202,4.126
				l6.98,21.582 M70.128,62.921l4.759,17.773 M82.82,16.267l8.884,9.204l-7.615,24.755l-5.394,9.521 M126.289,81.012l-6.346-4.126
				H108.52l-24.431-26.66 M91.704,25.471l26.652,32.69l1.587,18.725 M126.606,112.432l-9.519,0.317 M60.08,140.15l8.461-11.003
				l-4.442-0.846 M101.54,107.671l-11.634,18.937l19.249-17.032L101.54,107.671l-32.999,21.476l27.922-25.919L101.54,107.671
				L84.089,50.226l-5.394-25.073l13.009,0.318l16.816,51.415l0.635,32.69l7.932,3.173l2.856-35.863L91.704,25.471l-2.221-9.839
				 M66.849,170.83l1.692-41.683l21.365-2.539L66.849,170.83z M68.541,129.147l-6.98,41.259l5.288,0.424l-5.288,6.135l28.345,16.293
				l-11.211,4.866 M106.828,136.764l17.345-1.692l-15.018-25.496L106.828,136.764l-16.922-10.156l5.288,33.854L66.849,170.83
				l23.057,22.428l6.346,11.848l12.691-1.904l0.212-9.944 M117.404,160.25l-22.21,0.212l11.634-23.698L117.404,160.25z
				 M136.23,151.787l9.942-3.597l6.769-0.423l-12.48-15.234l5.711-0.424 M101.328,186.487l-11.422,6.771l5.288-32.796
				L101.328,186.487z M117.404,160.25l2.75,28.141l-0.649-0.066l-18.177-1.838L117.404,160.25l18.826-8.463l-12.057-16.715
				l16.288-2.539l-0.369-0.313l-23.005-19.471 M89.906,193.258h19.249l-16.076,6.136 M101.328,186.487l7.827,6.771l10.999-4.867
				l1.481,21.37l-12.692-6.559l11.211-14.811l15.442-15.022l6.98,18.619l3.173-9.733l2.75-15.657 M136.23,151.787l-0.634,21.582
				l12.903-6.771l-2.327-18.408l-5.711-15.657 M135.596,173.369l9.519,9.732l28.133,19.043l3.596-2.327l-24.96-21.159
				 M145.326,183.948l3.596-6.983 M119.505,188.325l23.071,3.663l-7.192,12.484l-13.749,5.289 M151.46,208.492l-8.884-16.504
				l30.672,10.156l-1.904,4.02 M177.478,206.799l-4.23-4.655 M142.576,191.988l17.557,14.599 M108.943,203.202l-8.461,15.869
				l14.173-3.597L108.943,203.202z M143.845,209.338l-8.461-4.866l-15.23-16.081 M118.462,223.514l4.019,8.675l2.538,18.408
				l5.712,23.698l-11.634,23.909 M130.519,220.129l6.981,10.156l8.672,39.778l8.25,19.043 M154.845,213.781l22.21,43.164
				l-0.211,26.236 M189.324,218.648l-2.75,34.276l5.077-0.846L189.324,218.648z M207.092,256.098L193.978,247l-4.231-27.083
				 M193.555,259.907l6.768-1.058L193.978,247 M200.747,273.237l-0.424-14.388l4.443,11.425 M186.574,252.924l-9.519,4.021
				l-16.287,11.425l-14.596,1.693l-6.346,7.617l-7.192,4.655l-14.383,15.446l-11.423-26.449L93.29,229.65l-1.903,22.428
				 M101.963,291.856l4.865-20.524l17.98-22.216l15.018,28.564 M93.29,229.65l31.518,19.466l21.364,20.947l-23.691-37.874
				l14.173-1.904l20.729-12.272l9.731-4.02l19.46,38.931l3.596,24.968 M166.691,286.567l-5.923-18.197L137.5,230.285l39.555,26.66
				 M107.251,226.265l15.23,5.924 M101.751,290.798l16.5,6.983 M169.599,294.131l7.139,20.629l2.38,13.647l1.904,5.078
				l27.128,80.138l5.235,8.252 M177.055,292.385l-0.317,22.375 M183.401,290.481l4.76,27.929l-11.423-3.65l-9.995,2.698
				l-8.884-19.995 M193.237,297.622l3.966,5.554 M211.958,275.564l4.124,41.259l13.485,49.511 M201.963,284.133l2.697,45.861
				l10.153,34.277 M111.217,307.302l38.869,63.634 M153.258,377.442l25.225,43.481l-10.47-31.42l-45.691-83.788l24.908,7.617
				l33.792,20.153l23.638-3.491l10.946-14.44 M149.292,387.598l29.191,33.325 M192.127,422.192l-24.114-32.689l16.499,3.649
				l23.638,20.471l-5.394,9.363l-7.139-0.952l-10.312-28.247l-43.31-92.198 M222.745,419.653l4.443-12.06l-19.038,6.03
				 M216.717,372.047l10.471,35.546l3.49,8.887l3.173-1.587l2.221-16.98l-8.884,9.68l-2.327-19.043 M132.524,352.806l2.332-6.467
				l13.326,7.935l12.691-11.426l23.48,1.587l28.239,13.965l8.25-23.804l0.634,30.045 M284.935,423.25l18.826,3.809l-5.077-4.232
				L284.935,423.25z M310.318,413.517l-6.557,13.542l-5.077-4.232L310.318,413.517z M310.53,441.235l0.423-6.136l-7.192-8.04
				l-10.365,9.521l-8.461-13.33 M304.395,439.119l6.558-4.02l10.153,2.116l-4.442-8.463l-12.903-1.693l18.826-3.809l-11.634,11.849
				l-17.557,0.635 M29.356,424.255l-5.235,16.187l-7.298-7.935L29.356,424.255z M82.978,422.034l-53.622,2.221l20.465-7.141
				l59.81-6.982l1.586,1.27L82.978,422.034z M24.121,440.442l43.151-2.222l-37.916-13.965L24.121,440.442z M82.978,422.034
				l-4.6,20.153l-7.298,2.222l-3.808-6.189L82.978,422.034z M86.786,437.744l-8.408,4.443l4.6-20.153L86.786,437.744z
				 M91.069,423.621l-8.091-1.587 M71.08,444.409l-7.932,2.38l4.124-8.569L71.08,444.409z M24.121,440.442L35.226,455.2
				l27.922-8.411l4.124-8.569L24.121,440.442z M33.957,478.527l1.269-23.327l-11.105-14.758l-2.697,5.078l4.442,6.347
				L33.957,478.527z M78.378,442.187l12.691,22.058l-56.24-0.873l0.397-8.172L78.378,442.187z M94.559,435.311l11.423-8.464
				l-14.913,37.398l-12.691-22.058l8.408-4.443l4.601-0.317L94.559,435.311z M117.616,474.031l-11.634-47.184l-14.913,37.398
				L117.616,474.031z M34.829,463.372l23.136,5.792l33.104-4.919L34.829,463.372z M45.908,497.305l-11.079-33.933l23.136,5.792
				L45.908,497.305z M59.023,527.562l-1.058-58.398l-12.057,28.141L59.023,527.562z M92.444,472.761l-34.479-3.597l33.104-4.919
				L92.444,472.761z M117.616,474.031l-25.172-1.27l-1.375-8.516L117.616,474.031z M72.56,510l-14.595-40.836l34.479,3.597
				L72.56,510z M93.29,551.471l-0.846-78.71l25.172,1.27L93.29,551.471z M117.616,474.031v57.763l5.711-37.874L117.616,474.031z
				 M35.332,538.564l10.576-41.259l-0.846,21.37l-4.231,18.197L35.332,538.564z M93.29,551.471l-24.431,20.524l28.556-3.174
				L93.29,551.471z M98.684,583.42l-29.825-11.425l8.567,14.599L98.684,583.42z M125.019,574.534l-27.604-5.713l1.269,14.599
				L125.019,574.534z M141.836,552.317l-16.817,22.217l-27.604-5.713L141.836,552.317z M145.643,540.892l-3.807,11.425
				l-19.355-31.42L145.643,540.892z M132.317,498.68l13.326,42.212l30.778,24.755l-39.344-64.428L132.317,498.68z M158.652,564.06
				l-16.816-11.743l-16.817,22.217L158.652,564.06z M117.616,474.031l59.122-0.423l-19.355,38.402l-34.056-18.09L117.616,474.031z
				 M164.046,538.353l12.692-64.745l-4.125,72.044L164.046,538.353z M187.42,502.172l-10.682-28.564l24.643,19.889L187.42,502.172z
				 M223.38,498.786l-6.557-30.891l43.363,18.408l-7.827,3.597l-15.23,48.029L223.38,498.786z M238.399,460.278l-21.576,7.617
				l-40.085,5.713l50.873-16.081L238.399,460.278z M269.07,491.169l-24.326-31.949l-6.345,1.058l-21.576,7.617l42.305,18.196
				L269.07,491.169z M271.185,488.842l-2.961-29.411l-23.48-0.211l24.749,32.796L271.185,488.842z M244.533,452.238l19.46-5.502
				l0.423,1.693l-2.538,2.327l-17.134,8.464L244.533,452.238z M268.224,459.431l15.865,1.058l-0.212,4.02l-12.692,24.333
				L268.224,459.431z M287.685,503.441l22.633-30.045l-26.229-12.907l-0.212,4.02L287.685,503.441z M305.453,516.136l4.865-42.74
				l18.191,12.484l-2.749,6.77l-17.134,23.275L305.453,516.136z M284.089,460.489l32.786-9.944l-6.557,22.851L284.089,460.489z
				 M328.509,485.88l5.289-13.33l-23.48,0.846L328.509,485.88z M350.508,460.913l-40.19,12.483l6.557-22.851L350.508,460.913z
				 M333.798,472.55l16.71-11.637l-4.019,65.591L333.798,472.55z M328.509,485.88l17.98,40.624l-5.711-1.27L325.76,492.65
				L328.509,485.88z M350.508,460.913l27.076,17.773l-4.231,8.04l-26.864,39.778L350.508,460.913z M158.652,564.06l-13.009-23.168
				l-3.807,11.425L158.652,564.06z M176.421,565.647l-17.769-1.587l-13.009-23.168L176.421,565.647z M201.17,494.555l-24.749,71.092
				l46.959-16.08l-9.519-45.491L201.17,494.555z M220.207,574.322l-43.786-8.675l46.959-16.08L220.207,574.322z M191.228,577.919
				l-32.576-13.859l17.769,1.587l18.826,3.809L191.228,577.919z M202.862,610.926l-11.634-33.007l-6.558,2.327l2.116,4.021
				L202.862,610.926z M220.207,574.322l-28.979,3.597l4.019-8.463L220.207,574.322z M218.938,608.599l-27.71-30.68l10.999,32.161
				l11.846,3.597L218.938,608.599z M223.38,549.567l28.345-15.446l-31.518,40.201L223.38,549.567z M266.109,573.899l-45.902,0.423
				l31.518-40.201L266.109,573.899z M218.938,608.599l24.537-31.526l3.385,0.846l-9.096,28.141L218.938,608.599z M266.109,573.899
				l-9.308,6.347l3.808,5.29l11.634,13.542L266.109,573.899z M232.476,574.11l14.384,3.809l9.941,2.327l-6.98-6.347L232.476,574.11z
				 M265.474,490.111l-13.749,44.01l-6.346-20.947l6.98-23.274l6.769-3.809L265.474,490.111z M266.109,573.899l-0.635-83.788
				l4.865,2.116l4.865-9.31L266.109,573.899z M287.685,503.441l-17.346,26.025l28.768-17.138L287.685,503.441z M278.377,606.906
				l-8.038-77.44l28.768-17.138L278.377,606.906z M297.415,604.367l-19.038,2.539l20.73-94.578L297.415,604.367z M326.606,492.439
				l-1.904,26.871l-27.287,85.057l1.692-92.039l5.5,4.02l4.019-0.423L326.606,492.439z M328.086,591.249l-30.671,13.118
				l20.095-30.891L328.086,591.249z M324.702,519.31l-7.192,54.166l10.576,17.773L324.702,519.31z M345.855,590.826l-17.769,0.423
				l-3.384-71.939L345.855,590.826z M373.988,486.091l-28.133,104.735l1.269,5.501L386.257,510l-6.346-1.058L373.988,486.091z
				 M300.588,624.891l1.269-6.348l26.229-27.294l17.769-0.423l1.269,5.501L300.588,624.891z M277.531,607.118l24.326,11.425
				l-1.269,6.348L277.531,607.118z M316.875,450.545l57.959-6.559l-24.326,16.927L316.875,450.545z M377.584,478.686l-2.75-34.7
				l-24.326,16.927L377.584,478.686z M384.776,509.154l-7.192-30.468l-2.75-34.7l16.922,60.725L384.776,509.154z M406.14,462.605
				l-31.306-18.619l16.922,60.725L406.14,462.605z M400.006,436.792l-25.172,7.194l31.306,18.619L400.006,436.792z M416.505,453.084
				l0.423,19.254l0.423,19.043l-11.211-28.776l-6.134-25.813L416.505,453.084z M403.179,470.011l8.249,20.947 M400.006,436.792
				l8.461-7.194l8.038,23.486L400.006,436.792z M433.427,414.787l-5.076,4.655l0.423,9.098l21.787-1.058L433.427,414.787z
				 M441.677,480.378l-12.903-51.838l28.768,61.571l-3.173,0.847L441.677,480.378z M408.467,429.598l20.307-1.058l12.903,51.838
				l-19.461-38.297L408.467,429.598z M423.697,463.028l-6.98-11.002l5.499-9.945l19.461,38.297l-7.192-0.423L423.697,463.028z
				 M433.427,414.787l-5.076,4.655l22.21,8.04L433.427,414.787z M428.351,419.442l-52.248-9.098l32.364,19.254l20.307-1.058
				l28.768,61.571 M366.161,398.072l9.942,12.272l24.326,4.231l2.115-10.79l-21.787-0.635L366.161,398.072z M402.544,403.785
				l-26.441,6.559l4.654-7.194l14.172-3.809 M400.006,436.792l-23.903-26.448l-2.115,33.642L400.006,436.792z M320.26,436.792
				l-3.385,13.753l59.228-40.201l-46.747,2.75l-2.539,11.003l4.865,1.692l1.481,2.963l-4.442,5.078l-6.134-10.58l10.153,6.56
				 M309.26,397.86l66.843,12.484l-46.747,2.75L309.26,397.86z M263.359,398.707l43.152-1.058l1.269,0.211h1.48l20.096,15.234
				l-12.269-2.116l-3.596-4.231l-1.692,3.174L263.359,398.707z M117.616,474.031l94.765-51.627l25.594,31.315l-9.518-0.635
				 M105.982,426.847l34.267,34.383l83.448-25.073 M140.249,461.23l21.365-50.252l-23.691,3.174"/>
			<line fill="#212121" stroke="#ABFF4F" stroke-miterlimit="10" x1="245.967" y1="359.046" x2="244.354" y2="351.779"/>
		</g>
		<line fill="#212121" stroke="#ABFF4F" stroke-miterlimit="10" x1="239.502" y1="372.749" x2="233.003" y2="367.711"/>
		<polyline fill="#212121" stroke="#ABFF4F" stroke-miterlimit="10" points="237.413,389.879 242.002,379.929 245.846,376.556 
			245.318,373.912 		"/>
		<polyline fill="none" stroke="#ABFF4F" stroke-miterlimit="10" points="111.217,411.402 103.532,418.347 95.173,419.878 
			92.361,421.756 87.285,435.395 90.775,436.981 		"/>
		<polyline fill="none" stroke="#ABFF4F" stroke-miterlimit="10" points="115.75,427.213 115.201,433.016 124.242,438.884 
			129.318,438.25 122.839,431.062 121.556,428.839 131.785,428.625 		"/>
		<polyline fill="none" stroke="#ABFF4F" stroke-miterlimit="10" points="138.377,422.763 138.988,419.711 137.919,413.454 		"/>
		<polyline fill="none" stroke="#ABFF4F" stroke-miterlimit="10" points="124.766,374.809 122.788,384.965 122.656,389.878 
			118.387,399.498 		"/>
		<polyline fill="none" stroke="#ABFF4F" stroke-miterlimit="10" points="318.816,438.14 328.721,433.83 332.525,428.454 		"/>
		<line fill="none" stroke="#ABFF4F" stroke-miterlimit="10" x1="298.684" y1="422.827" x2="310.867" y2="412.863"/>
		<polyline fill="none" stroke="#ABFF4F" stroke-miterlimit="10" points="259.161,372.749 255.639,375.082 256.315,378.565 
			261,380.551 268.475,391.993 269.254,395.133 		"/>
		<polyline fill="#212121" stroke="#ABFF4F" stroke-miterlimit="10" points="214.124,365.137 211.797,367.463 225.159,379.653 		"/>
		<polyline fill="#212121" stroke="#ABFF4F" stroke-miterlimit="10" points="237.975,453.719 232.258,432.223 240.32,411.409 
			242.06,398.678 		"/>
	</g>
</g>
<g id="Layer_1">
</g>
</svg>
