<?xml version="1.0" encoding="utf-8"?>
<!-- Generator: Adobe Illustrator 17.0.0, SVG Export Plug-In . SVG Version: 6.00 Build 0)  -->
<!DOCTYPE svg PUBLIC "-//W3C//DTD SVG 1.1//EN" "http://www.w3.org/Graphics/SVG/1.1/DTD/svg11.dtd">
<svg version="1.1" id="Layer_2" xmlns="http://www.w3.org/2000/svg" xmlns:xlink="http://www.w3.org/1999/xlink" x="0px" y="0px"
	 width="410.463px" height="416.164px" viewBox="0 0 410.463 416.164" enable-background="new 0 0 410.463 416.164"
	 xml:space="preserve">
<polygon fill="#212121" points="19.868,251.18 9.124,269.29 15.865,292.908 37.462,292.908 "/>
<polygon fill="#212121" points="57.385,150.878 43.574,150.837 48.062,189.665 56.424,188.963 "/>
<polygon fill="#212121" points="133,175.112 119.587,202.989 118.884,213.427 146.423,206.408 151.575,173.948 151.575,167.178 
	154.399,163.135 153.658,154.906 146.423,144.639 135.19,164.292 138.994,167.977 "/>
<polygon fill="#212121" points="234.069,141.736 199.534,142.085 141.815,227.857 331.328,227.857 331.936,212.252 329.2,207.494 
	294.594,174.991 266.332,177.925 "/>
<polygon fill="#212121" points="311.079,73.554 307.815,75.142 306.856,94.523 320.643,95.496 320.643,77.841 "/>
<polygon fill="#212121" points="227.127,105.151 222.519,109.118 225.689,114.178 228.565,111.198 "/>
<line fill="none" stroke="#ABFF4F" stroke-miterlimit="10" x1="11.721" y1="274.077" x2="11.098" y2="283.433"/>
<g>
	<g>
		<path fill="#212121" stroke="#ABFF4F" stroke-miterlimit="10" d="M56.899,219.477l-31.127,4.951l-2.403,9.412l-9.611,4.627
			l-4.966,28.716l3.845,24.408l8.65,3.19l0.32,3.67l30.948,19.462l2.052-1.754l0.641-6.222l2.899,5.105l24.254,9.412l30.036,34.938
			l14.577,2.871l7.049-5.105l15.378,28.237l16.019-11.645l26.272,27.439l7.529-9.093l7.85-23.292l19.543-24.568l17.781,25.525
			l10.733,3.829l13.136-27.599l26.592,2.233l2.563-7.178l21.466,12.603l36.684-42.117l17.301-13.719l7.049-21.856l5.126,0.957
			l3.844-2.234l11.534-32.863l-1.762-14.996l1.121-2.552l-14.257-8.137l-53.629-3.88 M21.287,294.781l-2.563-36.054 M18.724,258.727
			l-4.966-20.26 M16.241,292.92l-4.566-22.866l7.049-11.327"/>
	</g>
	<path fill="none" stroke="#ABFF4F" stroke-width="0.5" stroke-miterlimit="10" d="M15.865,292.908l2.344-34.371 M15.865,292.908
		l4.003-9.503"/>
	<g>
		<path fill="none" stroke="#ABFF4F" stroke-width="0.25" stroke-miterlimit="10" d="M8.351,267.069l9.922-8.487 M18.273,258.582
			l42.088-20.336 M21.153,298.454l39.208-60.208"/>
	</g>
	<path fill="none" stroke="#ABFF4F" stroke-miterlimit="10" d="M36.936,225.869l19.488-6.613 M23.084,232.993l11.858-4.749
		 M25.128,224.502l14.857,2.878l-5.357,0.864"/>
	<path fill="none" stroke="#ABFF4F" stroke-width="0.25" stroke-miterlimit="10" d="M42.75,227.295l13.641-8.175 M42.75,227.295
		l14.413-1.442 M42.75,227.295l17.59,10.252 M60.34,237.547l-33.533-5.481 M60.34,237.547l-1.759,25.229"/>
	<line fill="none" stroke="#ABFF4F" stroke-miterlimit="10" x1="55.366" y1="310.084" x2="56.76" y2="262.79"/>
	
		<line fill="none" stroke="#ABFF4F" stroke-width="0.5" stroke-miterlimit="10" x1="58.804" y1="262.705" x2="76.992" y2="239.655"/>
	<path fill="none" stroke="#ABFF4F" stroke-miterlimit="10" d="M64.58,309.403l12.259-69.785 M80.854,317.121l6.273-33.717
		l7.237-29.444 M81.481,317.121h-7.527 M74.425,317.121l-2.196-20.579 M72.229,296.542l-3.332,11.873 M69.25,308.573h-5.175
		 M60.782,237.655l-8.125,23.429l6.4,1.503l5.488,45.986l-12.231,8.548v-56.037 M60.499,274.674l-5.206,34.532 M91.772,248.354
		l-2.368-4.775l-12.234-3.757 M91.772,248.354l2.866,5.557 M77.091,239.055l-16.624-1.05l-47.221,0.323"/>
	<path fill="none" stroke="#ABFF4F" stroke-width="0.5" stroke-miterlimit="10" d="M89.425,243.442l-17.18,37.078 M72.245,280.52
		l-0.361,17.978 M72.245,280.52l-7.795,28.892 M72.245,280.52l4.852-40.93"/>
	<path fill="none" stroke="#ABFF4F" stroke-miterlimit="10" d="M74.698,318.07l7.121-34.113 M89.047,243.583l-11.614,35.09
		l-2.472,39.416"/>
	<line fill="none" stroke="#ABFF4F" stroke-miterlimit="10" x1="81.555" y1="283.893" x2="81.548" y2="318.135"/>
	
		<line fill="none" stroke="#ABFF4F" stroke-width="0.5" stroke-miterlimit="10" x1="94.754" y1="254.092" x2="79.216" y2="282.721"/>
	<path fill="none" stroke="#ABFF4F" stroke-miterlimit="10" d="M92.432,248.845l-12.649,33.593l5.692,1.722l9.828-29.755
		 M123.58,294.497l-15.811-10.337l-3.953-34.297l-11.384-1.018 M154.885,255.501l-11.542,75.329l-19.763-36.333"/>
	<path fill="none" stroke="#ABFF4F" stroke-width="0.25" stroke-miterlimit="10" d="M155.402,255.252l-31.798,39.818
		 M155.402,255.252l-51.872-5.757 M103.53,249.495l90.415-1.759"/>
	<path fill="none" stroke="#ABFF4F" stroke-miterlimit="10" d="M94.931,254.545l9.184,1.116 M133.416,357.393l-11.252-21.367
		 M122.164,336.026l-6.814-1.914 M115.35,334.112L99.523,320.24"/>
	<path fill="none" stroke="#ABFF4F" stroke-width="0.25" stroke-miterlimit="10" d="M99.537,320.295l-17.393-7.616 M126.734,362.681
		l-8.646-8.477 M118.088,354.204l-8.165-11.036 M109.923,343.168l8.165-8.243 M109.923,343.168l-10.386,1.9 M109.923,343.168
		l13.609-4.925 M124.29,339.671l-6.202,14.533 M118.088,354.204l-5.924,5.598 M118.088,354.204l10.007-7.358 M118.088,354.204
		l-18.551-9.136 M109.923,343.168l-27.779-18.394 M109.923,343.168l-13.89-18.394 M116.727,334.21l-20.694-9.436"/>
	<line fill="none" stroke="#ABFF4F" stroke-miterlimit="10" x1="96.128" y1="324.951" x2="82.154" y2="324.951"/>
	<path fill="none" stroke="#ABFF4F" stroke-width="0.25" stroke-miterlimit="10" d="M96.103,324.817l-38.227-9.629 M96.103,324.817
		l-14.081-8.474 M73.905,312.522l-5.164-3.111 M64.109,306.818l-7.918-4.743 M56.191,302.075l1.685,13.113 M85.542,293.765
		l13.942,26.398 M87.462,283.895l12.022,36.268 M97.703,254.046l5.22,44.453 M102.923,298.499l-3.439,21.664 M102.923,298.499
		l19.422,37.551 M122.345,336.05l-14.881-51.513 M122.345,336.05l1.12-40.921"/>
	<line fill="none" stroke="#ABFF4F" stroke-miterlimit="10" x1="134.143" y1="313.88" x2="148.786" y2="385.967"/>
	
		<line fill="none" stroke="#ABFF4F" stroke-width="0.5" stroke-miterlimit="10" x1="97.858" y1="254.069" x2="107.408" y2="284.511"/>
	<path fill="none" stroke="#ABFF4F" stroke-miterlimit="10" d="M235.304,276.356l6.418,2.49 M154.207,263.273l7.27-0.062
		 M155.695,255.543l19.096,17.069 M155.236,258.549l19.555,14.063 M209.043,286.994l-18.34,33.821l-15.912-7.586h-0.478v-40.775
		 M234.941,276.563l-17.345,29.845l-8.553-19.414"/>
	<path fill="none" stroke="#ABFF4F" stroke-width="0.25" stroke-miterlimit="10" d="M150.354,289.305l24.357,21.096
		 M174.071,291.779l-10.742,9.037 M163.329,300.816l-13.907,85.226 M185.43,319.007l23.734,19.71"/>
	<path fill="none" stroke="#ABFF4F" stroke-miterlimit="10" d="M195.091,352.388l13.976-13.521 M165.68,373.919l43.243-34.834
		 M165.68,373.919l29.119-21.261"/>
	<path fill="none" stroke="#ABFF4F" stroke-width="0.25" stroke-miterlimit="10" d="M194.786,352.606l-9.403,36.017
		 M185.383,388.623l-16.65-16.986"/>
	<g>
		<path fill="none" stroke="#ABFF4F" stroke-width="0.25" stroke-miterlimit="10" d="M186.147,388.644l13.521,4.05 M199.668,392.694
			l-5.186-6.671l-8.335,2.621l6.134,13.103 M195.425,387.453v-34.307 M195.425,353.146l11.945,16.359 M209.452,339.169l17.093,5.877
			"/>
	</g>
	
		<line fill="none" stroke="#ABFF4F" stroke-width="0.25" stroke-miterlimit="10" x1="209.121" y1="338.84" x2="209.121" y2="287.28"/>
	<path fill="none" stroke="#ABFF4F" stroke-width="0.5" stroke-miterlimit="10" d="M209.495,338.774l6.672-35.851 M221.392,300.832
		l7.38,6.092 M228.772,306.924l-19.277,31.85"/>
	<path fill="none" stroke="#ABFF4F" stroke-width="0.25" stroke-miterlimit="10" d="M194.05,248.02l-38.475,7.492l-47.774,29.171
		 M194.05,248.02l28.616-8.927 M222.666,239.093l19.158-2.869 M241.824,236.224l23.972-1.674 M209.44,287.393l13.226-48.3
		 M222.666,239.093l-4.729,67.721 M222.666,239.093l12.745,37.62 M193.698,247.761l-18.776,65.953 M193.698,247.761l-18.776,24.652
		 M226.338,344.579l5.482-62.672 M209.422,287.369l-15.037-39.582 M194.385,247.787l-3.133,73.716"/>
	
		<line fill="none" stroke="#ABFF4F" stroke-width="0.5" stroke-miterlimit="10" x1="222.737" y1="238.666" x2="241.697" y2="279.034"/>
	<path fill="none" stroke="#ABFF4F" stroke-miterlimit="10" d="M241.689,278.923v-42.708 M242.139,236.215l6.972,10.677
		 M249.111,246.892l-6.972,32.031 M242.139,278.923l13.72-38.674 M255.859,240.249l-6.748,6.643 M255.859,240.249l-13.72-4.034"/>
	<path fill="none" stroke="#ABFF4F" stroke-width="0.25" stroke-miterlimit="10" d="M244.514,370.292l-15.505-63.45
		 M238.312,344.601l7.037,2.168 M237.922,343.316l-1.16-66.265"/>
	<path fill="none" stroke="#ABFF4F" stroke-miterlimit="10" d="M245.068,291.77l-6.986,52.73v0.481h-11.367 M246.715,264.643
		l-1.647,82.022 M245.068,346.665l-0.829,23.492 M245.068,346.665l9.749,27.341"/>
	<path fill="none" stroke="#ABFF4F" stroke-width="0.25" stroke-miterlimit="10" d="M244.908,346.662l22.962-0.401 M245.387,291.637
		l22.962,54.624 M268.349,346.261l-14.571-99.68"/>
	<path fill="none" stroke="#ABFF4F" stroke-miterlimit="10" d="M280.105,308.305v-27.478 M280.105,280.827l-23.372-40.751
		 M297.693,274.307l-17.588,33.998v-0.21l-4.722-3.05h-0.472V279.43h0.472l-21.124-32.834"/>
	<path fill="none" stroke="#ABFF4F" stroke-width="0.5" stroke-miterlimit="10" d="M275.435,280.425l4.798,1.43 M280.233,281.855
		l17.874-6.673 M280.233,281.855l-15.988-18.946"/>
	<line fill="none" stroke="#ABFF4F" stroke-miterlimit="10" x1="264.179" y1="262.565" x2="268.484" y2="261.583"/>
	
		<line fill="none" stroke="#ABFF4F" stroke-width="0.5" stroke-miterlimit="10" x1="268.425" y1="261.232" x2="253.917" y2="246.653"/>
	<path fill="none" stroke="#ABFF4F" stroke-miterlimit="10" d="M256.407,240.196l23.703-2.637 M280.11,237.559l27.513-9.108
		 M339.246,226.773l-42.262-3.235l-14.919-4.914 M354.33,275.43l6.704-10.546l-21.788-38.111l-31.623,1.678 M297.946,275.43
		l24.461,34.779l12.091-36.187 M311.234,294.323l-13.726,46.942"/>
	
		<line fill="none" stroke="#ABFF4F" stroke-width="0.25" stroke-miterlimit="10" x1="268.597" y1="346.34" x2="298.033" y2="275.282"/>
	<line fill="none" stroke="#ABFF4F" stroke-miterlimit="10" x1="304.103" y1="284.476" x2="295.656" y2="348.579"/>
	<path fill="none" stroke="#ABFF4F" stroke-width="0.5" stroke-miterlimit="10" d="M298.19,275.116l-29.556-13.82 M268.634,261.296
		l11.654-24.001 M280.288,237.295l35.524,2.633"/>
	<line fill="none" stroke="#ABFF4F" stroke-miterlimit="10" x1="318.732" y1="353.971" x2="312.027" y2="331.018"/>
	<path fill="none" stroke="#ABFF4F" stroke-width="0.5" stroke-miterlimit="10" d="M311.577,330.766l-8.606-6.98 M311.577,330.766
		l28.098-8.908"/>
	<line fill="none" stroke="#ABFF4F" stroke-miterlimit="10" x1="311.327" y1="331.37" x2="299.032" y2="337.09"/>
	<path fill="none" stroke="#ABFF4F" stroke-width="0.25" stroke-miterlimit="10" d="M339.604,321.779l-20.415,32.251
		 M302.897,323.754l36.707-1.975 M339.604,321.779l-30.742-18.391"/>
	<path fill="none" stroke="#ABFF4F" stroke-miterlimit="10" d="M329.2,292.488l4.703,3.911 M354.488,275.692l-15.922,20.247v0.46
		h-5.62 M333.024,295.709l2.069-22.72l19.395,2.703 M333.024,295.709l15.858-20.798"/>
	<path fill="none" stroke="#ABFF4F" stroke-width="0.25" stroke-miterlimit="10" d="M341.087,292.795l-1.244,28.849
		 M339.843,321.644l23.228-24.041 M363.071,297.603l10.217,0.241 M356.047,311.627l7.024-14.024 M363.071,297.603l17.242-39.987
		 M363.071,297.603l-8.142-22.358"/>
	<path fill="none" stroke="#ABFF4F" stroke-miterlimit="10" d="M298.264,274.996l17.611-34.716 M268.726,261.362l47.149-21.082
		 M315.875,240.28l30-2.598"/>
	<path fill="none" stroke="#ABFF4F" stroke-width="0.25" stroke-miterlimit="10" d="M345.795,237.237l-10.962,35.098
		 M334.833,272.335l-29.778-48.777 M305.055,223.558l-39.19,10.559"/>
	<g>
		<path fill="none" stroke="#ABFF4F" stroke-miterlimit="10" d="M332.831,225.111l25.401-1.192 M400.221,224.316l-16.507-4.251
			l-25.482,3.854 M378.906,243.23l2.885-14.781l18.43-4.133 M378.906,243.23l-7.933,2.503 M370.973,245.733l-10.407,17.166
			 M341.098,229.164l29.875,16.569 M378.906,243.23l4.434,33.139"/>
	</g>
	<path fill="none" stroke="#ABFF4F" stroke-width="0.25" stroke-miterlimit="10" d="M378.87,243.001l-22.911-19.363
		 M370.923,245.524l-14.964-21.886 M355.959,223.638l25.801,4.462 M381.76,228.1l3.693,48.708 M398.617,224.796l-13.164,52.012
		 M332.713,224.736l20.389-11.309 M353.102,213.427l3.607,11.309 M353.102,213.427l32.188,6.637 M384.808,220.064l0.645-4.301
		 M60.504,238.194l58.279-16.182 M89.563,243.482l29.862-13.619 M124.924,228.821l-21.393,20.589"/>
	<path fill="#212121" stroke="#ABFF4F" stroke-miterlimit="10" d="M60.273,236.851l-6.66-46.068l-5.551-1.118l-2.854-6.547
		l-4.123-30.34l10.942-25.549l16.016-20.12l7.136-1.117h10.308l8.246-0.958l9.039-3.833l1.586,7.825l9.674,17.405l9.039,24.751
		l-4.758,70.739 M53.771,166.671l0.793-13.733h-9.039l2.537,36.727l5.392-2.555l-3.409-30.02 M54.277,157.909l-4.232-0.819
		l4.519-4.152 M158.335,229.888l35.692,17.833 M248.887,246.684h4.813 M77.327,278.52l2.005,4.149"/>
	<path fill="none" stroke="#ABFF4F" stroke-width="0.25" stroke-miterlimit="10" d="M51.676,126.738l12.685-6.069 M64.361,120.669
		L45.175,152.45 M64.361,120.669L54.213,152.45 M51.676,126.738l-6.501,25.712"/>
	<polyline fill="#212121" stroke="#ABFF4F" stroke-miterlimit="10" points="103.127,102.898 109.744,91.498 109.744,82.277 
		104.23,67.65 100.764,62.562 92.886,58.111 71.145,58.747 62.479,63.993 59.801,68.604 55.311,79.733 59.801,96.904 
		68.151,106.443 64.843,120.435 	"/>
	<path fill="none" stroke="#ABFF4F" stroke-width="0.25" stroke-miterlimit="10" d="M64.591,120.503l10.558-15.121 M73.229,118.275
		l-8.638,2.228 M73.229,118.275l12.318-12.893 M75.149,105.382l-1.92,12.893 M73.229,118.275l21.916,10.982 M85.547,105.382
		l9.598,23.875 M85.547,105.382l25.435,23.875 M93.865,104.427l1.969,10.612 M93.865,104.427l8.478,7.401 M102.343,111.828
		l-6.509,3.211 M95.834,115.039l-0.689,14.218 M95.145,129.257l15.837-0.517 M95.834,115.039l15.148,13.701 M110.982,128.74
		l-8.639-16.912 M102.343,111.828l11.998,13.928 M114.341,125.756l-3.359,2.984"/>
	
		<line fill="none" stroke="#ABFF4F" stroke-width="0.25" stroke-miterlimit="10" x1="110.948" y1="129.226" x2="110.948" y2="152.356"/>
	<path fill="none" stroke="#ABFF4F" stroke-width="0.25" stroke-miterlimit="10" d="M110.392,152.636l13.079-1.758 M110.392,152.636
		l2.443,30.841 M112.835,183.477l10.636-32.599"/>
	<path fill="none" stroke="#ABFF4F" stroke-miterlimit="10" d="M123.084,150.837l-6.114,35.595 M116.97,186.432l-8.7,2.531
		 M108.27,188.963l-3.684-1.265 M104.586,187.698l-6.349-31.008 M98.237,156.69l-6.977-4.271"/>
	<path fill="none" stroke="#ABFF4F" stroke-width="0.5" stroke-miterlimit="10" d="M91.115,152.283l4.127-22.823 M95.242,129.46
		l15.717,22.823"/>
	<path fill="none" stroke="#ABFF4F" stroke-miterlimit="10" d="M100.861,155.073l-9.757-2.212 M100.861,155.073l7.047,34.285"/>
	<path fill="none" stroke="#ABFF4F" stroke-width="0.25" stroke-miterlimit="10" d="M112.678,183.56l-4.323,5.938 M117.242,186.93
		l-4.564-3.37 M95.144,129.477l5.925,25.196 M95.144,129.477l-20.015,27.282 M75.129,156.759l-11.689,2.247 M63.44,159.006
		l-9.127-6.419 M64.561,120.65l-1.121,38.356 M73.207,118.404l7.526,114.424 M63.44,159.006l-2.882,79.118 M63.44,157.883
		l-11.178,20.896 M63.44,159.006l17.293,73.822 M75.835,155.796l18.709,22.983 M94.544,178.779l8.527,2.057 M90.981,152.426
		l3.563,26.353 M94.849,178.104l9.743,48.305 M104.592,226.409l3.763-36.911 M120.364,197.033l-7.566-8.819 M73.207,118.404
		l-9.767,39.479 M90.981,152.426l9.458,15.647 M94.544,178.779l-7.085,52.124 M59.437,96.337l6.525,3.37 M65.962,99.707l1.961,6.821
		 M65.962,99.707l9.167,5.698 M75.129,105.405l9.047-6.42 M84.176,98.985l1.361,6.42 M84.176,98.985l9.687,5.457 M93.863,104.442
		l7.406-15.246 M101.269,89.196l8.927,2.247 M101.269,89.196l-17.093,9.789"/>
	<line fill="none" stroke="#ABFF4F" stroke-miterlimit="10" x1="65.712" y1="99.35" x2="65.712" y2="81.521"/>
	<path fill="none" stroke="#ABFF4F" stroke-width="0.25" stroke-miterlimit="10" d="M65.766,81.478L84.11,98.774 M84.11,98.774
		L72.134,81.478 M65.766,81.478l-6.408,14.653 M54.792,79.396l10.974,2.082 M72.014,81.478l19.105,1.561 M91.119,83.039
		L84.11,98.774 M91.119,83.039l10.093,5.966 M101.212,89.005l2.148-14.133 M103.36,74.872l6.783,16.375 M103.36,74.872
		l-12.241,8.167 M91.119,83.039l0.721-17.175 M91.84,65.864l11.52,9.008 M91.84,65.864L72.134,81.478 M65.766,81.478l-6.408-13.292
		 M65.766,81.478l3.124-20.779"/>
	<g>
		<path fill="#212121" stroke="#ABFF4F" stroke-miterlimit="10" d="M103.051,74.817l1.166-7.588l8.611-13.506l-0.714-12.514
			l-6.905-25.027l-5.122-0.715L91.28,32.628l1.508,25.067l-14.603,3.178h-9.524 M100.725,62.144l-9.088,3.735"/>
	</g>
	<path fill="none" stroke="#ABFF4F" stroke-width="0.5" stroke-miterlimit="10" d="M91.935,65.942L78.368,60.93 M78.368,60.93
		l-6.123,20.526 M77.768,60.93L65.882,81.456 M79.689,60.93l21.411,1.273"/>
	<path fill="#212121" stroke="#ABFF4F" stroke-miterlimit="10" d="M62.314,63.308l-3.759-12.481l3.196-31.971l3.131-0.938
		l10.971,17.664v22.275 M64.882,17.918l4.874,15.887 M69.756,33.805l0.947,24.368 M75.853,35.582l-6.097-1.777"/>
	<path fill="none" stroke="#ABFF4F" stroke-width="0.25" stroke-miterlimit="10" d="M69.78,33.451l-7.193-1.204 M62.116,63.5
		l7.664-30.049 M62.587,32.247l-4.431,18.496 M62.587,32.247l-1.115-13.981"/>
	<polyline fill="none" stroke="#ABFF4F" stroke-miterlimit="10" points="64.219,17.322 62.869,32.263 62.533,63.449 	"/>
	<line fill="none" stroke="#ABFF4F" stroke-width="0.5" stroke-miterlimit="10" x1="70.035" y1="33.471" x2="73.352" y2="58.141"/>
	<polyline fill="none" stroke="#ABFF4F" stroke-miterlimit="10" points="75.853,46.287 73.999,50.735 75.853,35.302 	"/>
	<path fill="none" stroke="#ABFF4F" stroke-width="0.25" stroke-miterlimit="10" d="M101.135,62.064l-2.186-32.462 M98.949,29.602
		l-7.275,2.649 M98.949,29.602l1.547-14.686 M98.949,29.602l6.678-13.963 M98.949,29.602l9.54,18.879 M108.489,48.481l4.771,5.076
		 M91.674,32.251l9.461,29.813 M108.489,48.481L104.633,67.2"/>
	<g>
		<path fill="#212121" stroke="#ABFF4F" stroke-miterlimit="10" d="M106.078,15.67l2.879,32.848l-7.871,14.272 M330.362,209.507
			l6.168-44.185l-2.474-17.177l-3.197-9.953l-6.717-8.909l5.679-3.692l4.559-12.441l-8.158-15.972l-16.395-5.057l0.72-18.38
			l-5.999-13.725l-2.799-0.642l-3.439,4.013l-4.879,22.795l3.999,11.798l-8.858,15.893l6.698,9.551v4.174l-8.877,14.788
			l-4.559,24.902v6.22"/>
	</g>
	<path fill="none" stroke="#ABFF4F" stroke-width="0.25" stroke-miterlimit="10" d="M301.29,186.45l7.491-2.397 M308.781,184.053
		l2.231,5.034 M301.29,186.45L297.226,160 M297.226,160l-5.579,1.838 M297.226,160l10.2-4.715 M307.426,155.285l5.738,5.634
		 M313.164,160.919l-4.383,23.134 M297.226,160l11.236,24.053"/>
	<polyline fill="#212121" stroke="#ABFF4F" stroke-miterlimit="10" points="320.029,161.464 310.859,188.518 301.297,185.985 
		296.438,183.376 291.814,162.347 	"/>
	<path fill="none" stroke="#ABFF4F" stroke-width="0.25" stroke-miterlimit="10" d="M286.839,142.496l10.467,17.293
		 M297.306,159.789l2.962-17.869 M300.268,141.92l7.285,13.183 M300.268,141.92l-13.429,0.576 M297.306,159.789l16.17,1.112
		 M331.328,138.347l-13.129,3.573 M318.199,141.92l-10.646,13.183"/>
	
		<line fill="none" stroke="#ABFF4F" stroke-width="0.25" stroke-miterlimit="10" x1="318.27" y1="142.085" x2="299.959" y2="142.085"/>
	<path fill="none" stroke="#ABFF4F" stroke-width="0.25" stroke-miterlimit="10" d="M300.07,141.657l-2.073-7.998 M297.997,133.659
		l11.164,0.633 M309.161,134.292l-8.852,7.444 M309.161,134.292l9.09,7.365 M318.251,141.657l-0.08-13.304 M328.538,139.123
		l-10.367-10.77"/>
	<line fill="none" stroke="#ABFF4F" stroke-miterlimit="10" x1="318.147" y1="128.721" x2="324.659" y2="128.94"/>
	<path fill="none" stroke="#ABFF4F" stroke-width="0.5" stroke-miterlimit="10" d="M318.12,128.287l-8.995,5.89 M309.125,134.177
		l3.343-7.461 M297.981,133.549l4.458-7.225"/>
	<path fill="none" stroke="#ABFF4F" stroke-width="0.25" stroke-miterlimit="10" d="M317.92,77.665l-0.171,16.802 M317.267,66.682
		l-4.523,11.102 M312.744,77.944h5.267 M312.744,77.784l2.634,15.879 M317.267,66.682l0.744,11.022 M311.079,73.554l1.281-1.996
		l4.913-4.053l3.37,10.336v17.655 M302.363,59.463l5.72,11.709 M301.763,83.213l0.035-23.863 M307.164,94.684l0.896-26.892
		 M308.06,67.792l-6.01,15.448 M302.298,83.377l4.558,11.146 M295.559,127.856l3.439-6.667 M298.998,121.189l-3.27,2.235
		 M298.998,121.189l-9.949-7.262 M297.961,113.607l1.037,7.582 M298.998,121.189l6.699-9.417 M305.697,111.772l-3.27,14.446
		 M305.697,111.772l-8.334,2.155 M292.117,116.166l5.246-2.239 M290.823,115.047l11.046-17.162 M295.259,108.505l2.702,5.102
		 M301.869,97.885l3.828,13.887 M305.697,111.772l14.755,9.018 M320.452,120.79l-18.025,5.428 M320.452,120.79l-7.976,5.827
		 M320.452,120.79l-2.313,7.423 M320.452,120.79l9.73,4.789 M324.519,129.25l1.276-5.746l-7.656,4.709 M325.795,123.504
		l8.749-10.655 M334.544,112.849l-14.639,8.34 M319.905,120.79l-5.196-14.605 M314.709,106.185l20.019,7.023 M314.812,106.473
		l-9.115,5.299 M326.593,97.326l-7.298,2.873 M319.295,100.199l-4.483,6.274 M334.728,113.208l-15.433-13.009 M319.295,100.199
		l-11.923-5.347 M314.812,106.473l-7.44-11.621 M307.372,94.852l-1.675,16.92 M307.372,94.852l-5.503,3.033 M301.869,97.885
		l-6.221-11.493 M295.728,86.312h-1.914 M295.728,86.551l6.141-3.112 M302.368,126.773l-6.745,0.654 M318.187,127.735l-5.702-0.769
		l-10.117-0.193"/>
	<path fill="none" stroke="#ABFF4F" stroke-width="0.25" stroke-miterlimit="10" d="M327.826,139.207l4.942,28.091 M332.768,167.298
		l4.242-1.927 M332.768,166.736l-7.845,42.377 M332.768,167.298l-12.728,13.563 M320.04,180.861l-2.962,21.43 M320.04,180.861
		l-6.564,1.255 M332.768,167.298l-9.366-5.538"/>
	<polyline fill="none" stroke="#ABFF4F" stroke-width="0.25" stroke-miterlimit="10" points="323.46,161.709 327.594,139.259 
		320.767,160.79 	"/>
	
		<line fill="none" stroke="#ABFF4F" stroke-width="0.5" stroke-miterlimit="10" x1="323.282" y1="161.772" x2="320.165" y2="180.847"/>
	
		<line fill="none" stroke="#ABFF4F" stroke-width="0.25" stroke-miterlimit="10" x1="323.511" y1="161.474" x2="320.578" y2="161.409"/>
	<path fill="none" stroke="#ABFF4F" stroke-width="0.25" stroke-miterlimit="10" d="M313.553,160.587l6.87,0.184 M320.423,160.771
		l-2.24-17.424l-4.481,17.424"/>
	<path fill="none" stroke="#ABFF4F" stroke-width="0.5" stroke-miterlimit="10" d="M136.657,177.925l-16.912,31.293
		 M136.657,177.925l4.779,2.959"/>
	<line fill="none" stroke="#ABFF4F" stroke-miterlimit="10" x1="141.048" y1="181.037" x2="132.644" y2="195.558"/>
	<path fill="none" stroke="#ABFF4F" stroke-width="0.5" stroke-miterlimit="10" d="M136.721,177.707l-3.899-2.616 M136.428,177.511
		l14.379-15.027"/>
	<line fill="none" stroke="#ABFF4F" stroke-miterlimit="10" x1="150.891" y1="162.476" x2="150.891" y2="174.041"/>
	<path fill="none" stroke="#ABFF4F" stroke-width="0.5" stroke-miterlimit="10" d="M139.095,167.916l5.228-4.131 M144.323,163.785
		l6.655-1.351 M150.978,162.434l2.772-7.785"/>
	<path fill="none" stroke="#ABFF4F" stroke-miterlimit="10" d="M153.634,154.636l0.765,8.499 M154.399,163.135l-2.824,10.813"/>
	<path fill="none" stroke="#ABFF4F" stroke-width="0.25" stroke-miterlimit="10" d="M150.783,162.284l-12.454-26.9 M150.783,162.284
		l-6.463-3.831"/>
	
		<line fill="none" stroke="#ABFF4F" stroke-width="0.25" stroke-miterlimit="10" x1="144.154" y1="163.921" x2="144.154" y2="158.62"/>
	<path fill="none" stroke="#ABFF4F" stroke-width="0.25" stroke-miterlimit="10" d="M144.245,163.896l-9.507-6.001 M134.738,157.895
		l-4.177,2.28 M138.994,167.977l-2.307-7.082 M130.561,160.175l13.684,3.721 M134.738,157.895l-8.603-10.918 M137.403,159.577
		l-0.716-10.084 M134.738,157.895l-6.564-14.803"/>
	<line fill="none" stroke="#ABFF4F" stroke-miterlimit="10" x1="124.558" y1="143.529" x2="127.931" y2="143.529"/>
	<path fill="none" stroke="#ABFF4F" stroke-width="0.25" stroke-miterlimit="10" d="M127.959,143.217l5.185,1.122 M133.144,144.339
		l3.51,5.129 M136.654,149.468l7.578,9.055 M136.361,149.468l1.011-12.902 M144.232,157.882l-6.062-22.518 M150.774,162.369
		l-3.191-15.466"/>
	<path fill="#212121" stroke="#ABFF4F" stroke-miterlimit="10" d="M146.813,143.863l3.463,1.297l9.964-3.981l12.463-18.274
		l13.016-2.708V109.82l-11.715-7.503l-3.206-10.616l-6.115,1.517l-12.794-3.113l-12.096-7.344l-5.138-5.108l-8.546,1.197
		l-12.901,14.687l-2.056,2.02l0.356,1.572l9.855,11.574l-0.949,5.042l1.899,7.928l11.083,4.43l-11.787,18.255l3.475-1.173
		l5.699,17.041l8.391,7.782L133,175.112l-12.111,26.34 M146.56,146.092v-10.119 M153.466,154.283l-6.416-7.788"/>
	<path fill="none" stroke="#ABFF4F" stroke-width="0.25" stroke-miterlimit="10" d="M111.36,97.089l11.735-0.42 M112.453,93.093
		l5.527,3.996 M117.98,97.089l8.365-5.789 M112.453,93.093l15.818-4.418 M122.732,96.682l9.391-13.576 M132.123,83.106l7.914-0.651
		 M125.803,78.318l6.32,4.788 M134.47,77.116l0.533,5.753 M131.81,82.869l1.276,10.855 M133.086,93.724l-10.354,2.958
		 M133.086,93.724l-5.658,10.637 M127.428,104.361l-4.333-7.692 M127.428,104.361l-16.068-7.272 M127.428,104.361l-6.439,3.927
		 M127.428,104.361l-7.402,8.989 M120.026,113.35l6.921,3.212 M126.947,116.562l-4.995,4.748 M126.947,116.562l12.638,3.425
		 M139.585,119.987l-6.399,5.77 M126.947,116.562l12.638-6.852 M126.947,116.562l0.243-12.622 M127.19,103.94l12.395,5.77
		 M127.19,103.94l14.442-3.786 M133.086,93.724l8.546,6.43 M132.725,93.724l14.804,2.945 M147.529,96.669l-5.897,3.485
		 M147.529,96.669l4.434-7.052 M139.686,82.245l7.843,14.424 M147.072,96.939l13.577,2.915 M151.963,89.617l8.686,9.816
		 M164.962,92.742l-2.748,2.063 M162.214,94.805l-1.565,5.049 M162.214,94.805l-10.251-5.188 M170.962,91.283l-10.313,8.571
		 M160.649,99.854l13.943,2.023 M174.592,101.877l-8.786,9.276 M165.806,111.153l20.902-1.743 M165.806,111.153l14.232,10.024
		 M160.649,99.433l5.157,11.72 M165.806,111.153l-18.734,8.233 M147.072,119.386l19.896,1.791 M166.668,121.177l6.605,1.37
		 M165.806,111.153l-8.718-8.835 M160.649,99.433l-3.561,2.885"/>
	<line fill="none" stroke="#ABFF4F" stroke-miterlimit="10" x1="156.666" y1="102.242" x2="156.666" y2="110.916"/>
	<path fill="none" stroke="#ABFF4F" stroke-width="0.25" stroke-miterlimit="10" d="M156.842,110.872l8.953,0.299 M156.842,110.872
		l-9.791,8.499 M156.842,110.872l-11.621,0.599 M156.842,110.872l-15.234-10.653 M141.608,100.219l15.234,2.035 M141.608,100.219
		l5.901,9.217 M147.509,109.436l-8.731,0.299 M141.608,99.919l-2.048,9.816"/>
	<line fill="none" stroke="#ABFF4F" stroke-miterlimit="10" x1="139.341" y1="109.952" x2="139.341" y2="120.071"/>
	<path fill="none" stroke="#ABFF4F" stroke-width="0.25" stroke-miterlimit="10" d="M139.451,120.114l7.534-0.6 M146.985,119.514
		l-1.826-7.914 M145.159,111.6l-5.648,8.808 M139.511,109.861l5.648,1.739 M147.442,109.561l-2.283,2.039 M139.511,120.114
		l3.575,6.636 M143.086,126.75l5.738-4.083 M148.824,122.667l-2.163-3.153 M148.824,122.667l12.497-1.863 M166.848,121.736
		l-10.093,3.335 M156.755,125.071l-5.798,0.799 M150.957,125.87l-7.871,0.88 M148.824,122.667l2.643,3.203 M150.957,125.87
		l-4.296,10.074 M156.755,125.071l-9.77,15.19 M151.868,132.186l8.421,8.784 M168.202,129.702l-10.351-4.994 M164.846,122.397
		l3.356,7.305 M165.688,111.3l-2.574,9.665 M167.499,129.702l-15.11,2.484 M143.086,126.75l3.575,9.194 M146.581,146.537
		l-8.412-11.233 M138.169,135.304l4.917-8.554 M133.122,125.87l3.23,5.037 M138.169,135.304l-16.975,8.85 M132.662,125.688
		l-17.479,1.681 M115.183,127.369l6.724-5.936 M121.907,121.433l-11.616-4.037 M119.985,113.492l-10.964,1.186 M119.985,113.492
		L106.626,111 M120.946,108.442l-15.862-0.28 M120.946,108.442l-16.262-5.757"/>
	<polygon fill="#212121" stroke="#ABFF4F" stroke-miterlimit="10" points="237.441,96.29 242.832,80.426 247.988,73.847 
		254.65,73.847 259.325,81.201 272.064,93.248 272.648,98.68 270.077,107.941 272.648,113.848 263.298,133.695 258.974,137.382 
		237.353,137.382 	"/>
	<path fill="none" stroke="#ABFF4F" stroke-width="0.25" stroke-miterlimit="10" d="M247.847,72.955l11.615,7.693 M247.847,72.955
		l0.599,11.613 M248.446,84.568l2.315,11.052 M250.761,95.62l-4.79,22.185 M245.971,117.805l6.227,12.093 M252.198,129.898
		l2.834,7.448 M252.198,129.898l-4.95,7.448 M236.988,120.207l8.584,17.139 M236.988,120.207l15.21,9.691 M252.198,129.898
		l11.335,3.944 M263.533,133.842l3.353-13.635 M266.886,120.207l3.523-0.635 M266.886,120.207l-14.688,9.691 M245.971,117.805
		l-8.98,0.72 M245.971,117.805l10.378-3.845 M256.349,113.96l-4.151,15.938 M252.198,129.898l7.264-10.812 M259.462,119.086
		l-3.113-5.126 M259.462,119.086l7.424,1.121 M259.462,119.086l12.547-7.64 M266.886,120.207l5.123-8.761 M272.009,111.446
		l-15.66,2.514 M236.991,118.525l4.49-5.822 M241.481,112.703l4.49,5.102 M241.481,112.703l9.28-17.083 M241.481,112.703
		l-0.539-14.921 M240.942,97.782l9.819-2.162 M240.942,97.782l-3.902-1.842 M240.942,97.782l5.179-12.734 M246.121,85.048
		l4.64,10.572 M246.121,85.048l-3.558-5.306 M246.121,85.048l1.726-12.093 M246.121,85.048l2.325-0.48 M248.446,84.568
		l12.612,12.133 M259.462,80.648l13.651,17.895 M261.058,96.701l2.116-11.187 M261.058,96.701l12.055,1.842 M261.058,96.701
		l-10.297-1.081 M250.761,95.62l7.504,8.542 M258.265,104.162l2.793-7.461 M258.265,104.162l-1.916,9.798 M258.265,104.162
		l-12.294,13.643 M258.265,104.162l-8.287-4.917 M258.265,104.162l8.621,2.11 M266.886,106.272l-10.537,7.688 M266.886,106.272
		l-5.828-9.571 M266.886,106.272l3.523-8.142 M266.886,106.272l5.123,5.174"/>
	<path fill="#212121" stroke="#ABFF4F" stroke-miterlimit="10" d="M118.731,229.265l6.224-0.979l6.443-4.066l6.763-2.484
		l14.682-14.005l3.95,13.214l5.625,2.598 M118.809,221.821l1.334-12.889h3.938v-3.337l1.797-3.814h5.392v-3.814l1.079-2.384h5.631
		l7.309-20.977h8.028l12.821-37.663h21.208v-19.07l-4.133-3.636l0.089-5.661l4.524-4.708v-1.728l13.24-12.992l2.576,10.37v5.959
		l-0.479,2.622l-2.217,2.771l0.12,22.735h5.452v3.814h11.503v-18.593l-1.918-1.758v-1.579v-6.675l2.502-13.229l5.167,5.155V90.221
		l16.296,10.787v5.899l-2.097,2.503l-1.917,2.056l0.059,23.093h8.747l1.918,3.635l14.018,0.06l16.895,35.398h10.305l11.503,22.408
		 M119.623,213.956l12.848-0.257 M124.081,208.932v4.767 M124.081,205.595h11.024 M131.27,201.781v3.814 M131.27,197.967h6.231
		 M130.072,221.168l15.217-46.562 M153.317,174.606h57.514 M159.548,221.168l14.219-46.562 M162.583,225.3l15.338-50.694
		 M137.501,197.013h29.236 M166.737,197.013l3.515,2.066 M180.157,174.606l11.503-38.14 M184.311,174.606l11.982-40.524
		 M191.66,136.466l4.633-2.384l10.225-0.477 M191.66,136.466l-4.314,0.477 M138.939,194.153h28.757 M167.696,194.153l3.76,1.821
		 M171.53,196.06h41.698 M184.95,106.907v5.721 M184.95,112.628l-1.677,1.669 M184.95,112.628l1.717,1.709 M186.667,114.337
		l-1.576,1.568 M186.867,114.535h4.314 M187.346,117.873l1.039-1.272 M188.385,116.601l-1.718-2.264 M188.305,116.442h2.876
		 M184.95,112.628h6.231 M191.061,111.079l-3.235-3.218v-5.721 M191.181,110.721v25.745 M190.222,99.756v5.721 M190.222,105.477
		l2.237,2.225 M192.459,107.702l-2.397,2.384 M190.222,105.477l-2.396,2.384 M192.619,107.861h10.544 M200.766,110.721h-7.189
		 M193.577,110.721l-0.958-2.86 M193.577,110.721v24.791 M193.577,110.721l-2.396,1.907 M190.222,105.477h13.42 M190.222,99.756
		h13.42 M218.021,137.419h11.982 M229.603,137.419l6.51-2.86 M219.938,137.419v-20.023 M219.938,117.396l-1.917,1.43
		 M219.938,117.396h6.23 M219.938,117.396l-0.959-1.828 M218.979,115.568l-2.876,1.5 M218.979,115.489h7.189 M218.979,115.489
		l-0.559-1.986 M218.42,113.503l-2.317,1.35 M218.5,113.582h7.668 M218.42,113.503l0.185-17.918 M223.772,100.74l0.24,8.472
		 M225.689,113.582v23.837 M228.565,137.419v-26.221 M228.565,111.198l-2.876,2.98 M228.085,111.198h8.148 M223.772,111.675
		l3.355-2.861 M227.127,108.814l1.438,2.384 M227.127,108.814h11.503 M227.127,108.814v-2.383 M227.127,106.431h12.941
		 M227.127,106.431l-3.715,3.158l0.36-0.298v2.384l2.077,1.907 M227.127,106.431v-5.721 M227.127,100.71l12.941,0.298
		 M227.127,100.71l-3.355-10.489 M206.518,137.419l2.756,37.187 M210.831,174.606l1.198,8.224 M212.029,182.83l1.199,8.581
		 M213.228,191.292v7.628h-43.136 M246.778,138.194l15.576,35.101 M241.505,173.176h31.633 M273.138,173.176l23.6,49.462
		 M241.505,173.176l3.116,18.116 M244.381,196.06h39.781 M244.381,198.92h41.218 M236.113,134.559l3.236,40.047 M241.505,173.176
		l-2.156,1.43 M277.691,173.652l-4.553-0.476 M229.523,137.419v7.152 M231.92,151.722v-7.151h-24.923 M234.316,158.873v-7.151
		h-26.84 M236.233,166.501v-7.628h-27.798 M237.671,174.606v-8.105h-29.236 M240.547,182.711v-8.105h-29.716 M242.464,191.292
		v-8.581H211.79 M213.228,191.292h31.153 M244.381,191.292v9.058 M251.57,199.874v10.011 M209.393,210.362v-9.058l-0.119-0.238
		l42.536-0.716 M200.367,209.885l1.757,0.716 M257.322,207.263l5.032,2.026l-60.23,1.312 M202.204,210.362v10.012 M191.66,217.871
		l3.595,2.503 M273.737,218.467l-5.512-2.503 M183.632,227.764l3.595,3.814l86.39-4.053v-9.058h0.12l-78.482,1.907 M192.379,228.359
		l2.636,2.027v-10.012"/>
	<path fill="none" stroke="#ABFF4F" stroke-width="0.25" stroke-miterlimit="10" d="M121.586,224.731l5.59-4.327 M127.176,220.404
		l6.196,3.247 M124.98,228.738l6.668,1.843 M125.739,248.852l5.909-18.271 M138.196,221.766l6.629-1.843 M144.825,219.923
		l5.11-6.491 M149.935,213.432l2.955-6.571 M144.825,219.923l10.301,28.288 M144.825,219.923l13.256,9.736 M156.843,220.925
		l-12.018-1.002 M149.935,213.432l6.908,7.493 M156.843,220.925l1.238,8.734 M144.825,219.923l-13.177,10.658 M131.648,230.581
		l-0.697-5.85"/>
	<polyline fill="none" stroke="#ABFF4F" stroke-miterlimit="10" points="297.696,222.94 290.879,204.219 293.684,203.405 
		301.669,194.801 300.579,188.909 315.07,198.405 319.043,202.901 321.458,208.405 330.41,209.49 334.274,217.01 329.805,220.382 
		332.833,226.079 	"/>
	<path fill="none" stroke="#ABFF4F" stroke-width="0.25" stroke-miterlimit="10" d="M293.22,202.832l11.957,1.2 M305.177,204.032
		l-3.759-10.078 M293.22,202.832l3.976,19.759 M297.196,222.591l6.101-12.441 M303.297,210.15l-10.077-7.318 M303.297,210.15
		l7.838,13.756 M303.297,210.15l1.656-6.718 M303.297,210.15l9.317,4.559 M312.614,214.709l3.759-3.279 M312.614,214.709l1.28,9.197
		 M313.894,223.906l-10.597-13.756 M316.373,211.43l-13.076-1.28 M303.297,210.15l14.676-3.359 M317.973,206.791l-12.796-2.759
		 M305.177,204.032l14.075-1.72 M305.177,204.032l9.997-6.359 M305.177,204.032l3.419-10.691 M317.973,206.791l-1.6,4.639
		 M316.373,211.43l5.359-3.439 M321.732,207.991l-3.759-1.2 M317.973,206.791l1.279-4.479 M321.732,207.991l5.038,6.078
		 M326.77,214.069l4.151-4.959 M326.77,214.069l8.118,2.799 M334.888,216.868l-13.156,5.199 M321.732,222.067l5.038-7.998
		 M321.732,222.067l-5.359-10.637 M321.732,222.067l-1.2,2.479 M316.373,211.43l0.8,12.476 M316.373,211.43l-3.039,8.452
		 M316.373,211.43l10.397,2.639 M330.3,220.347l-5.049,4.839 M330.3,220.347l-7.529,4.199"/>
	<polyline fill="#212121" stroke="#ABFF4F" stroke-miterlimit="10" points="311.079,73.554 312.36,71.558 317.273,67.505 
		320.643,77.841 320.643,95.496 	"/>
</g>
</svg>
