<?xml version="1.0" encoding="utf-8"?>
<!-- Generator: Adobe Illustrator 17.0.0, SVG Export Plug-In . SVG Version: 6.00 Build 0)  -->
<!DOCTYPE svg PUBLIC "-//W3C//DTD SVG 1.1//EN" "http://www.w3.org/Graphics/SVG/1.1/DTD/svg11.dtd">
<svg version="1.1" id="Layer_1" xmlns="http://www.w3.org/2000/svg" xmlns:xlink="http://www.w3.org/1999/xlink" x="0px" y="0px"
	 width="165.348px" height="104.219px" viewBox="135.22 415.014 165.348 104.219"
	 enable-background="new 135.22 415.014 165.348 104.219" xml:space="preserve">
<path fill="#ABFF4F" d="M148.302,499.361l18.119,1.733l8.213,7.019l-12.946,0.907L148.302,499.361z M148.224,497.372l13.497-6.935
	l3.393,8.552L148.224,497.372z M167.935,499.938l10.97-16.304l-2.578,23.356L167.935,499.938z M163.482,489.533l13.893-7.142
	l-10.525,15.635L163.482,489.533z M142.907,497.892l18.209,13.137l16.876-1.18l3.513-31.791L142.907,497.892z"/>
<path fill="#ABFF4F" d="M179.932,444.662l8.717-2.59l-7.537,11.31L179.932,444.662z M169.597,448.74l-5.986-3.421l5.585-6.913
	l8.729,6.115l1.319,9.73L169.597,448.74z M165.653,432.969l6.786-6.793l-4.286,10.389l-4.283,5.305L165.653,432.969z
	 M170.217,436.722l5.319-12.875l13.707,15.998l-10.219,3.04L170.217,436.722z M175.289,420.543l-11.451,11.456l-3.207,13.881
	l7.742,4.424l12.419,7.104l11.42-17.128L175.289,420.543z"/>
<path fill="#ABFF4F" d="M223.494,498.744l8.971,1.495l-11.733,6.859L223.494,498.744z M212.417,497.875l-3.881-5.694l8.051-3.767
	l5.166,9.322l-3.082,9.325L212.417,497.875z M215.784,481.972l9.08-3.127l-8.409,7.457l-6.174,2.892L215.784,481.972z
	 M223.456,496.747l-5.211-9.4l10.422-9.24l5.307,20.387L223.456,496.747z M214.581,480.307l-8.971,11.072l5.02,7.37l8.053,11.828
	l17.768-10.389l-6.558-25.157L214.581,480.307z"/>
<path fill="#ABFF4F" d="M283.232,477.145l8.971,1.495l-11.733,6.859L283.232,477.145z M272.156,476.278l-3.881-5.696l8.051-3.767
	l5.166,9.325l-3.08,9.325L272.156,476.278z M275.523,460.375l9.082-3.129l-8.411,7.457l-6.172,2.892L275.523,460.375z
	 M283.194,475.148l-5.211-9.4l10.422-9.237l5.31,20.387L283.194,475.148z M274.32,458.708l-8.971,11.072l5.023,7.37l8.051,11.828
	l17.768-10.389l-6.558-25.157L274.32,458.708z"/>
<path fill="#ABFF4F" d="M253.295,439.278l-42.314-9.617l5.503,21.769l13.685,9.944L253.295,439.278z M215.387,432.682l14.799,3.362
	l-2.899,8.733L215.387,432.682z M232.114,436.483l15.232,3.459l-18.112,5.213L232.114,436.483z M228.837,447.319l18.885-5.439
	l-16.989,16.233L228.837,447.319z M214.169,434.255l12.765,12.974l1.78,10.657l-10.502-7.629L214.169,434.255z"/>
</svg>
